{
.appVersion = "1346";
DisplayStrings = (
"",
"HOV/space n´eépk¨ä%#\012/twoinferior/threeinferior/ring ¸/alef-hb/qamatsqatan-hb/alefqamats-hb/dagesh-hb/hedagesh-hb/tbar/descender-cy.case/Pe-cy/Pedescender-cy",
"%S"
);
classes = (
{
code = "zero one two three four five six seven eight nine parenleft parenright";
name = standard;
},
{
code = "zerosuperior onesuperior twosuperior threesuperior foursuperior fivesuperior sixsuperior sevensuperior eightsuperior ninesuperior parenleftsuperior parenrightsuperior";
name = sups;
},
{
code = "zeroinferior oneinferior twoinferior threeinferior fourinferior fiveinferior sixinferior seveninferior eightinferior nineinferior parenleftinferior parenrightinferior";
name = subs;
},
{
code = "zero.numerator one.numerator two.numerator three.numerator four.numerator five.numerator six.numerator seven.numerator eight.numerator nine.numerator parenleft.numerator parenright.numerator";
name = numerator;
},
{
code = "zero.denominator one.denominator two.denominator three.denominator four.denominator five.denominator six.denominator seven.denominator eight.denominator nine.denominator parenleft.denominator parenright.denominator";
name = denominator;
},
{
code = "zero.otlf one.otlf two.otlf three.otlf four.otlf five.otlf six.otlf seven.otlf eight.otlf nine.otlf parenleft.otlf parenright.otlf";
name = tnum1;
},
{
code = "alef-hb bet-hb gimel-hb dalet-hb he-hb vav-hb zayin-hb het-hb tet-hb yod-hb finalkaf-hb kaf-hb lamed-hb finalmem-hb mem-hb finalnun-hb nun-hb samekh-hb ayin-hb finalpe-hb pe-hb finaltsadi-hb tsadi-hb qof-hb resh-hb shin-hb tav-hb ";
name = HebrewLetters;
}
);
copyright = "Copyright 2015 The Rubik Project Authors (https://github.com/googlefonts/rubik)";
customParameters = (
{
name = license;
value = "This Font Software is licensed under the SIL Open Font License, Version 1.1. This license is available with a FAQ at: http://scripts.sil.org/OFL";
},
{
name = licenseURL;
value = "http://scripts.sil.org/OFL";
},
{
name = fsType;

glyphs = (
{
color = 1;
glyphname = A;
layers = (
{
anchors = (
{
name = bottom;
position = "{378, 0}";
},
{
name = ogonek;
position = "{679, 10}";
},
{
name = top;
position = "{378, 700}";
}
);
layerId = "EC64484B-0978-4CB1-9EE9-C40A2D8C4059";
paths = (
{
closed = 1;
nodes = (
"41.681 -39 LINE",
"61.362 20 LINE",
"84.979 -30 LINE",
"108.596 20 LINE",
"138.117 -31 LINE",
"167.638 20 LINE",
"195.488 -25.894 LINE",
"219.475 22.132 LINE",
"269.893 38.249 LINE",
"246.773 85.864 LINE",
"299.11 47.134 LINE",
"311.77 111 LINE",
"331.689 66 LINE",
"351.607 111 LINE",
"379.492 54 LINE",
"407.377 111 LINE",
"447.213 61 LINE",
"487.049 111 LINE",
"458.105 57.679 LINE",
"518.773 57.136 LINE",
"520.791 9.021 LINE",
"567.681 20 LINE",
"597.202 -37 LINE",
"626.723 20 LINE",
"652.309 -29 LINE",
"677.894 20 LINE",
"708.65 -20.442 LINE",
"735 23 LINE",
"762.772 70.834 LINE",
"711.249 90.953 LINE",
"745.243 124.016 LINE",
"698.053 128.704 LINE",
"723.937 175.879 LINE",
"674.302 196.657 LINE",
"716.701 239.013 LINE",
"657.148 245.734 LINE",
"702.095 286.862 LINE",
"641.314 291.036 LINE",
"675.785 334.857 LINE",
"621.521 347.663 LINE",
"666.467 388.791 LINE",
"605.686 392.964 LINE",
"648.461 431.215 LINE",
"591.172 434.491 LINE",
"629.236 492.278 LINE",
"563.462 513.769 LINE",
"604.825 562.118 LINE",
"542.349 574.172 LINE",
"587.58 617.517 LINE",
"525.195 623.249 LINE",
"527.266 676.431 LINE",
"474.164 680 LINE",
"444.573 723 LINE",
"414.982 680 LINE",
"395.255 737 LINE",
"375.527 680 LINE",
"341.991 731 LINE",
"308.455 680 LINE",
"262.346 716.597 LINE",
"243 661 LINE",
"180.899 653.051 LINE",
"224.527 608.148 LINE",
"172.435 592.465 LINE",
"203.414 547.746 LINE",
"158.397 540.18 LINE",
"188.899 506.219 LINE",
"135.112 482.656 LINE",
"162.509 430.716 LINE",
"109.94 425.791 LINE",
"147.994 389.189 LINE",
"89.487 367.276 LINE",
"121.604 313.686 LINE",
"55.92 298.517 LINE",
"97.852 245.734 LINE",
"48.115 239.818 LINE",
"83.337 204.207 LINE",
"23.216 201.921 LINE",
"68.822 162.68 LINE",
"12.67 150.535 LINE",
"49.03 106.053 LINE",
"-4.199 99.24 LINE",
"33.195 60.751 LINE"
);
},
{
closed = 1;
nodes = (
"327.391 276.573 LINE",
"305.429 303.857 LINE",
"329.906 317.121 LINE",
"316.857 341.714 LINE",
"350.248 352.288 LINE",
"328.286 379.571 LINE",
"353.233 392.694 LINE",
"339.714 417.429 LINE",
"373.105 428.002 LINE",
"351.143 455.286 LINE",
"376.584 452.647 LINE",
"373.2 478 LINE",
"373.428 445.974 LINE",
"400.643 462.857 LINE",
"384.897 437.321 LINE",
"412.25 425 LINE",
"392.287 398.171 LINE",
"423.857 387.143 LINE",
"409.048 361.894 LINE",
"435.464 349.286 LINE",
"414.096 322.026 LINE",
"447.071 311.429 LINE",
"432.731 286.324 LINE",
"458.679 273.571 LINE",
"436.275 299.618 LINE",
"429.19 266 LINE",
"409.31 288.54 LINE",
"389.429 266 LINE",
"369.548 298.9 LINE",
"349.667 266 LINE",
"329.786 291.97 LINE",
"309.905 266 LINE"
);
},
{
closed = 1;
nodes = (
"633.741 244.927 LINE",
"590.616 181.008 LINE",
"533.547 210.789 LINE",
"517.999 267.842 LINE",
"576.573 284.795 LINE"
);
},
{
closed = 1;
nodes = (
"289.815 380.653 LINE",
"278.911 358.308 LINE",
"251.834 371.196 LINE",
"257.322 400.678 LINE",
"286.804 406.166 LINE"
);
},
{
closed = 1;
nodes = (
"531.901 543.951 LINE",
"515.607 503.622 LINE",
"472.217 506.656 LINE",
"463.549 548.111 LINE",
"497.535 556.946 LINE"
);
},
{
closed = 1;
nodes = (
"389.096 569.142 LINE",
"338.215 546.136 LINE",
"304.032 596.815 LINE",
"340.564 648.831 LINE",
"422.323 639.735 LINE"
);
},
{
closed = 1;
nodes = (
"413.89 163.091 LINE",
"405.795 134.507 LINE",
"373.935 142.933 LINE",
"379.278 169.5 LINE",
"398.158 180.563 LINE"
);
},
{
closed = 1;
nodes = (
"222.257 370.048 LINE",
"206.479 350.431 LINE",
"184.501 347.913 LINE",
"174.82 373.365 LINE",
"199.814 389.937 LINE"
);
},
{
closed = 1;
nodes = (
"516.469 387.566 LINE",
"470.137 379.372 LINE",
"435.279 420.331 LINE",
"477.476 455.104 LINE",
"511.115 429.5 LINE"
);
},
{
closed = 1;
nodes = (
"428.481 502.56 LINE",
"422.268 498.038 LINE",
"418.109 503.96 LINE",
"420 510.196 LINE",
"427.015 509.459 LINE"
);
},
{
closed = 1;
nodes = (
"211.874 211.893 LINE",
"190 192 LINE",
"165.273 210.966 LINE",
"177.657 235.989 LINE",
"203.519 237.607 LINE"
);
},
{
closed = 1;
nodes = (
"211.996 123.599 LINE",
"193.97 107.743 LINE",
"175.894 114.823 LINE",
"169.034 139.045 LINE",
"197.139 147.638 LINE"
);
},
{
closed = 1;
nodes = (
"63.071 46.929 LINE",
"53.276 48.654 LINE",
"48.098 55.251 LINE",
"55.061 59.926 LINE",
"61.346 56.724 LINE"
);
},
{
closed = 1;
nodes = (
"688.604 95.63 LINE",
"645.023 78.071 LINE",
"611.476 94.263 LINE",
"626.93 126.151 LINE",
"663.137 139.226 LINE"
);
}
);
width = 755;
}
);
leftKerningGroup = A;
rightKerningGroup = A;
unicode = 0041;
userData = {
com.typemytype.robofont.guides = (
{
angle = 0;
isGlobal = 0;
magnetic = 5;
x = 0;
y = 680;
},
{
angle = 90;
isGlobal = 0;
magnetic = 5;
x = 35;
y = 0;
},
{
angle = 90;
isGlobal = 0;
magnetic = 5;
x = 637;
y = 0;
},
{
angle = 90;
isGlobal = 0;
magnetic = 5;
x = 336;
y = 0;
}
);
};
},
{
color = 1;
glyphname = Aogonek;
layers = (
{
hints = (
{
horizontal = 1;
place = "{-2147483648, 0}";
type = Tag;
name = hr01;
}
);
layerId = "EC64484B-0978-4CB1-9EE9-C40A2D8C4059";
paths = (
{
closed = 1;
nodes = (
"741.966 -182.987 LINE",
"725 -145 LINE",
"714.676 -99.576 LINE",
"668.839 -107.876 LINE",
"697.511 -54.882 LINE",
"638.1 -44.848 LINE",
"706.315 -47.658 LINE",
"688.672 18.296 LINE",
"717.796 -38.05 LINE",
"735 23 LINE",
"765.036 67.389 LINE",
"713.888 83.402 LINE",
"743.832 134.114 LINE",
"688.817 155.13 LINE",
"728.759 192.391 LINE",
"674.302 196.657 LINE",
"704.622 243.264 LINE",
"651.87 260.834 LINE",
"683.032 292.908 LINE",
"638.675 298.586 LINE",
"677.297 339.622 LINE",
"621.521 347.663 LINE",
"665.341 401.106 LINE",
"597.769 415.615 LINE",
"627.236 455.57 LINE",
"579.296 468.467 LINE",
"613.29 501.531 LINE",
"566.101 506.219 LINE",
"590.005 559.056 LINE",
"538.391 585.497 LINE",
"573.999 638.189 LINE",
"513.32 657.225 LINE",
"508.524 694.026 LINE",
"474.164 680 LINE",
"446.545 737 LINE",
"418.927 680 LINE",
"379.473 721 LINE",
"340.018 680 LINE",
"318.318 727 LINE",
"296.618 680 LINE",
"257.89 695.771 LINE",
"241.68 657.225 LINE",
"185.346 632.434 LINE",
"213.97 577.947 LINE",
"160.741 571.134 LINE",
"198.136 532.645 LINE",
"131.417 511.483 LINE",
"170.426 453.367 LINE",
"106.722 443.861 LINE",
"150.633 396.74 LINE",
"84.95 381.571 LINE",
"126.882 328.787 LINE",
"76.018 310.556 LINE",
"104.45 264.609 LINE",
"40.938 246.563 LINE",
"79.379 192.882 LINE",
"23.511 178.518 LINE",
"58.266 132.479 LINE",
"11.27 119.251 LINE",
"39.793 79.627 LINE",
"-20.408 59.004 LINE",
"29.872 20 LINE",
"57.426 -27 LINE",
"84.979 20 LINE",
"112.532 -30 LINE",
"140.085 20 LINE",
"178.212 -23.621 LINE",
"215.461 20.753 LINE",
"273.611 11.681 LINE",
"236.227 57.136 LINE",
"283.664 70.284 LINE",
"256 111 LINE",
"295.836 66 LINE",
"335.672 111 LINE",
"377.5 69 LINE",
"419.328 111 LINE",
"457.491 57.234 LINE",
"500.318 107.364 LINE",
"457.373 52.711 LINE",
"525.364 38.273 LINE",
"491.494 -15.53 LINE",
"552.755 -32.531 LINE",
"499.564 -70.884 LINE",
"558.036 -100.567 LINE",
"541.74 -156.547 LINE",
"598.935 -167.862 LINE",
"589.019 -230.014 LINE",
"637.103 -189.404 LINE"
);
},
{
closed = 1;
nodes = (
"321.292 278.414 LINE",
"305.429 303.857 LINE",
"332.721 316.272 LINE",
"316.857 341.714 LINE",
"349.779 352.429 LINE",
"328.286 379.571 LINE",
"354.171 392.411 LINE",
"339.714 417.429 LINE",
"370.759 428.71 LINE",
"351.143 455.286 LINE",
"379.748 449.575 LINE",
"373.2 478 LINE",
"375.322 449.407 LINE",
"400.643 462.857 LINE",
"383.023 436.747 LINE",
"412.25 425 LINE",
"399.315 400.326 LINE",
"423.857 387.143 LINE",
"406.237 361.032 LINE",
"435.464 349.286 LINE",
"422.06 324.468 LINE",
"447.071 311.429 LINE",
"427.109 284.6 LINE",
"458.679 273.571 LINE",
"436.623 298.262 LINE",
"429.19 266 LINE",
"409.31 286.58 LINE",
"389.429 266 LINE",
"369.548 294 LINE",
"349.667 266 LINE",
"329.786 294.42 LINE",
"309.905 266 LINE"
);
},
{
closed = 1;
nodes = (
"308.722 337.096 LINE",
"287.625 312.248 LINE",
"260.377 306.724 LINE",
"250.689 337.577 LINE",
"278.152 360.98 LINE"
);
},
{
closed = 1;
nodes = (
"248.776 164.656 LINE",
"228.298 141.061 LINE",
"195.597 139.176 LINE",
"188.388 177.968 LINE",
"224.915 191.43 LINE"
);
},
{
closed = 1;
nodes = (
"397.257 561.069 LINE",
"381.5 523.689 LINE",
"337.904 525.017 LINE",
"341.161 564.168 LINE",
"368.077 592.786 LINE"
);
},
{
closed = 1;
nodes = (
"553.141 490.231 LINE",
"537.756 431.403 LINE",
"488.53 453.36 LINE",
"474.111 488.971 LINE",
"508.57 521.973 LINE"
);
},
{
closed = 1;
nodes = (
"514.681 307.647 LINE",
"501.512 289.873 LINE",
"483.58 293.21 LINE",
"476.024 312.767 LINE",
"496.505 321.825 LINE"
);
},
{
closed = 1;
nodes = (
"285.189 475.321 LINE",
"254.588 460.209 LINE",
"227.57 482.085 LINE",
"243.941 513.364 LINE",
"273.686 504.821 LINE"
);
},
{
closed = 1;
nodes = (
"260.69 541.795 LINE",
"253.279 536.005 LINE",
"243.603 540.58 LINE",
"248.69 549.516 LINE",
"256.355 548.974 LINE"
);
},
{
closed = 1;
nodes = (
"171.38 293.41 LINE",
"163.27 278.223 LINE",
"146.765 277.18 LINE",
"140.025 294.814 LINE",
"156.384 299.993 LINE"
);
},
{
closed = 1;
nodes = (
"687.692 113.186 LINE",
"664.564 96.004 LINE",
"646.83 115.445 LINE",
"655.249 134.926 LINE",
"680.647 141.765 LINE"
);
},
{
closed = 1;
nodes = (
"418.604 134.779 LINE",
"368.457 157.724 LINE",
"374.968 201.928 LINE",
"410.479 210.733 LINE",
"436.995 183.611 LINE"
);
},
{
closed = 1;
nodes = (
"582.394 368.297 LINE",
"567.938 329.639 LINE",
"534.314 345.179 LINE",
"516.467 377.637 LINE",
"554.265 396.739 LINE"
);
}
);
width = 755;
}
);
leftKerningGroup = A;
rightKerningGroup = A;
unicode = 0104;
},
{
color = 1;
glyphname = AE;
layers = (
{
anchors = (
{
name = bottom;
position = "{503, 0}";
},
{
name = top;
position = "{503, 700}";
}
);
layerId = "EC64484B-0978-4CB1-9EE9-C40A2D8C4059";
paths = (
{
closed = 1;
nodes = (
"51.585 -27 LINE",
"77.17 20 LINE",
"112.596 -25 LINE",
"148.021 20 LINE",
"171.638 -36 LINE",
"195.255 20 LINE",
"244.416 12.301 LINE",
"242.265 62.015 LINE",
"304.728 67.103 LINE",
"260 111 LINE",
"295.804 67 LINE",
"331.609 111 LINE",
"353.489 55 LINE",
"375.37 111 LINE",
"398.364 57.263 LINE",
"443 95 LINE",
"396 71 LINE",
"443 47 LINE",
"450.05 4.984 LINE",
"489.919 20 LINE",
"531.833 -29 LINE",
"573.748 20 LINE",
"599.695 -33 LINE",
"625.642 20 LINE",
"657.577 -31 LINE",
"689.512 20 LINE",
"725.439 -24 LINE",
"761.366 20 LINE",
"793.301 -27 LINE",
"825.236 20 LINE",
"861.163 -29 LINE",
"897.089 20 LINE",
"936.78 -0.641 LINE",
"948 42.667 LINE",
"1001 70.083 LINE",
"948 97.5 LINE",
"999 122.958 LINE",
"948 148.417 LINE",
"941.823 198.286 LINE",
"897.293 175 LINE",
"859.547 209.3 LINE",
"821.8 175 LINE",
"795.973 210 LINE",
"770.147 175 LINE",
"736.373 215.6 LINE",
"702.6 175 LINE",
"682.733 205.8 LINE",
"662.867 175 LINE",
"698.65 218.386 LINE",
"643 226.5 LINE",
"687 252.25 LINE",
"643 278 LINE",
"673 247.9 LINE",
"703 278 LINE",
"741 250 LINE",
"779 278 LINE",
"813 240.2 LINE",
"847 278 LINE",
"871 249.3 LINE",
"895 278 LINE",
"937.231 285.962 LINE",
"918 324.394 LINE",
"977 359.848 LINE",
"918 395.303 LINE",
"924.187 428.562 LINE",
"891 422 LINE",
"859 461.9 LINE",
"827 422 LINE",
"789 454.9 LINE",
"751 422 LINE",
"721 457 LINE",
"691 422 LINE",
"682.842 465.877 LINE",
"643 445.769 LINE",
"687 469.538 LINE",
"643 493.308 LINE",
"701.375 489.443 LINE",
"654.918 525 LINE",
"684.712 494.2 LINE",
"714.507 525 LINE",
"744.301 487.2 LINE",
"774.096 525 LINE",
"815.808 489.3 LINE",
"857.521 525 LINE",
"889.301 487.2 LINE",
"921.082 525 LINE",
"986.28 541.838 LINE",
"940 590.75 LINE",
"989 631.875 LINE",
"940 673 LINE",
"920.075 717.119 LINE",
"889 680 LINE",
"869 722 LINE",
"849 680 LINE",
"809 720 LINE",
"769 680 LINE",
"737 736 LINE",
"705 680 LINE",
"683 723 LINE",
"661 680 LINE",
"619 727 LINE",
"577 680 LINE",
"547 726 LINE",
"517 680 LINE",
"483 730 LINE",
"449 680 LINE",
"413 727 LINE",
"377 680 LINE",
"337 721 LINE",
"297 680 LINE",
"265.303 732.333 LINE",
"253.19 672.36 LINE",
"186.2 656.305 LINE",
"225.86 599.98 LINE",
"166.979 579.874 LINE",
"200.653 527.555 LINE",
"142.404 509.457 LINE",
"176.652 458.983 LINE",
"112.981 440.759 LINE",
"151.175 386.653 LINE",
"96.789 373.803 LINE",
"131.036 329.643 LINE",
"80.433 309.083 LINE",
"107.25 261.5 LINE",
"51.36 247.033 LINE",
"86.107 200.929 LINE",
"18.416 179.963 LINE",
"58.357 121.429 LINE",
"-3.198 108.939 LINE",
"37.214 60.857 LINE"
);
},
{
closed = 1;
nodes = (
"322.972 279.251 LINE",
"309.471 304.088 LINE",
"341.48 315.22 LINE",
"320.941 342.176 LINE",
"353.889 353.025 LINE",
"332.412 380.265 LINE",
"361.606 392.244 LINE",
"343.882 418.353 LINE",
"372.139 430.615 LINE",
"355.353 456.441 LINE",
"382.671 468.986 LINE",
"366.824 494.529 LINE",
"399.724 496.121 LINE",
"383.882 525 LINE",
"403.588 493.5 LINE",
"423.294 525 LINE",
"415.728 497.81 LINE",
"443 505.077 LINE",
"415.07 485.154 LINE",
"443 465.231 LINE",
"421.93 445.308 LINE",
"443 425.385 LINE",
"419.48 405.462 LINE",
"443 385.538 LINE",
"419.48 365.615 LINE",
"443 345.692 LINE",
"414.09 325.769 LINE",
"443 305.846 LINE",
"417.52 285.923 LINE",
"443 266 LINE",
"423.405 301.7 LINE",
"403.811 266 LINE",
"384.216 297.5 LINE",
"364.622 266 LINE",
"345.027 288.05 LINE",
"325.432 266 LINE"
);
},
{
closed = 1;
nodes = (
"468 552.038 LINE",
"393.837 554.952 LINE",
"395.063 623.117 LINE",
"442.077 642.786 LINE",
"499.623 617.098 LINE"
);
},
{
closed = 1;
nodes = (
"206.732 265.989 LINE",
"163.345 255.231 LINE",
"123.032 291.85 LINE",
"167.455 319.799 LINE",
"204.187 309.013 LINE"
);
},
{
closed = 1;
nodes = (
"900.766 581.028 LINE",
"883.877 572.148 LINE",
"865.071 575.374 LINE",
"868.565 597.435 LINE",
"891.534 602.711 LINE"
);
},
{
closed = 1;
nodes = (
"319.08 168.097 LINE",
"305.707 171.229 LINE",
"297.996 184.376 LINE",
"312.785 193.979 LINE",
"320.693 181.329 LINE"
);
},
{
closed = 1;
nodes = (
"598.791 100.588 LINE",
"577.869 68.661 LINE",
"522.896 77.335 LINE",
"546.134 127.188 LINE",
"594.667 154.753 LINE"
);
},
{
closed = 1;
nodes = (
"588.237 422.699 LINE",
"551.061 365.777 LINE",
"485.988 371.988 LINE",
"485.123 434.338 LINE",
"536.543 473.249 LINE"
);
},
{
closed = 1;
nodes = (
"265.032 161.125 LINE",
"242.831 144.194 LINE",
"230.294 166.947 LINE",
"237.758 184.869 LINE",
"255.548 180.239 LINE"
);
},
{
closed = 1;
nodes = (
"135.973 91.149 LINE",
"98.578 109.244 LINE",
"95.043 140.206 LINE",
"124.599 165.423 LINE",
"146.718 132.036 LINE"
);
},
{
closed = 1;
nodes = (
"546.271 287.571 LINE",
"525.847 290.17 LINE",
"522.272 309.252 LINE",
"538.394 318.939 LINE",
"549.667 305.924 LINE"
);
},
{
closed = 1;
nodes = (
"870.922 93.887 LINE",
"864.736 85.152 LINE",
"852.405 89.366 LINE",
"855.807 101.947 LINE",
"867.384 103.988 LINE"
);
},
{
closed = 1;
nodes = (
"730.769 407.025 LINE",
"728.18 394.714 LINE",
"714.127 395.943 LINE",
"710.033 410.08 LINE",
"722.784 413.966 LINE"
);
},
{
closed = 1;
nodes = (
"66.978 63.372 LINE",
"59.935 56.238 LINE",
"46.127 56.581 LINE",
"47.275 73 LINE",
"61.746 73.272 LINE"
);
},
{
closed = 1;
nodes = (
"276.824 413.618 LINE",
"258.102 408.436 LINE",
"249.874 429.847 LINE",
"268.703 440.997 LINE",
"282.237 428.558 LINE"
);
},
{
closed = 1;
nodes = (
"669.012 328.645 LINE",
"644.76 307.17 LINE",
"626.481 333.426 LINE",
"635.5 359.651 LINE",
"666.067 358.065 LINE"
);
},
{
closed = 1;
nodes = (
"874.399 347.538 LINE",
"861.292 350.947 LINE",
"858.865 366.817 LINE",
"875.017 370.364 LINE",
"882 358 LINE"
);
}
);
width = 1005;
}
);
leftKerningGroup = AE;
rightKerningGroup = E;
unicode = 00C6;
userData = {
com.typemytype.robofont.guides = (
{
angle = 0;
isGlobal = 0;
magnetic = 5;
x = 0;
y = 505;
},
{
angle = 90;
isGlobal = 0;
magnetic = 5;
x = 431;
y = 0;
}
);
};
},
{
color = 1;
glyphname = B;
layers = (
{
hints = (
{
horizontal = 1;
place = "{-2147483648, 0}";
type = Tag;
name = hr00;
}
);
layerId = "EC64484B-0978-4CB1-9EE9-C40A2D8C4059";
paths = (
{
closed = 1;
nodes = (
"121.767 -38 LINE",
"161.535 20 LINE",
"181.419 -28 LINE",
"201.302 20 LINE",
"233.116 -39 LINE",
"264.93 20 LINE",
"284.814 -32 LINE",
"304.698 20 LINE",
"328.558 -20 LINE",
"352.419 20 LINE",
"380.256 -31 LINE",
"408.093 20 LINE",
"430.73 -28.7 LINE",
"452.049 20.592 LINE",
"497.491 -20.066 LINE",
"531.476 30.56 LINE",
"572.479 -11.92 LINE",
"581.002 46.501 LINE",
"622.369 13.487 LINE",
"615.928 66.019 LINE",
"668.068 49.96 LINE",
"652.92 102.372 LINE",
"704.744 99.897 LINE",
"673.411 141.25 LINE",
"731.752 154.941 LINE",
"684.648 191.986 LINE",
"733.726 234.667 LINE",
"677.308 267.029 LINE",
"708.803 322.115 LINE",
"645.515 317.535 LINE",
"665.218 377.904 LINE",
"602.4 368.6 LINE",
"656.217 360.804 LINE",
"640.047 412.723 LINE",
"704.736 425.466 LINE",
"670.663 481.912 LINE",
"722.542 523.733 LINE",
"663.045 553.74 LINE",
"697.301 610.545 LINE",
"631.036 613.576 LINE",
"631.214 676.793 LINE",
"572.009 654.631 LINE",
"544.053 715.452 LINE",
"490.334 675.515 LINE",
"465.3 718.507 LINE",
"434.134 679.729 LINE",
"408.3 724.864 LINE",
"382 680 LINE",
"352 727 LINE",
"322 680 LINE",
"298 734 LINE",
"274 680 LINE",
"232 729 LINE",
"190 680 LINE",
"166 720 LINE",
"142 680 LINE",
"116 726 LINE",
"90 680 LINE",
"33.415 675.722 LINE",
"75 637.111 LINE",
"18 613.185 LINE",
"75 589.259 LINE",
"25 549.383 LINE",
"75 509.506 LINE",
"34 479.599 LINE",
"75 449.691 LINE",
"22 423.772 LINE",
"75 397.852 LINE",
"25 377.914 LINE",
"75 357.975 LINE",
"30 320.093 LINE",
"75 282.21 LINE",
"35 244.327 LINE",
"75 206.444 LINE",
"35 184.512 LINE",
"75 162.58 LINE",
"26 134.667 LINE",
"75 106.753 LINE",
"30 68.87 LINE",
"75 30.988 LINE"
);
},
{
closed = 1;
nodes = (
"313.42 171.714 LINE",
"285 191.429 LINE",
"311.95 211.143 LINE",
"285 230.857 LINE",
"309.5 250.571 LINE",
"285 270.286 LINE",
"309.379 265.677 LINE",
"304.483 290 LINE",
"323.966 262.56 LINE",
"343.448 290 LINE",
"362.931 262.07 LINE",
"382.414 290 LINE",
"398.99 259.513 LINE",
"421.985 285.502 LINE",
"420.278 251.914 LINE",
"452.967 259.824 LINE",
"434.917 233.715 LINE",
"464 221 LINE",
"439.28 206.733 LINE",
"453.322 181.884 LINE",
"419.695 191.046 LINE",
"422.139 156.279 LINE",
"399.548 179.473 LINE",
"382.414 152 LINE",
"362.931 174.05 LINE",
"343.448 152 LINE",
"323.966 179.44 LINE",
"304.483 152 LINE"
);
},
{
closed = 1;
nodes = (
"306.07 436.848 LINE",
"285 456.697 LINE",
"306.07 476.545 LINE",
"285 496.394 LINE",
"309.01 516.242 LINE",
"285 536.091 LINE",
"308.397 519.951 LINE",
"313 548 LINE",
"333 527.42 LINE",
"353 548 LINE",
"372.926 520.989 LINE",
"393.015 547.878 LINE",
"402.611 519.916 LINE",
"429.314 532.602 LINE",
"418.668 504.178 LINE",
"448.376 497.96 LINE",
"419.79 479.349 LINE",
"445.988 457.503 LINE",
"417.977 453.697 LINE",
"420.702 425.561 LINE",
"395.79 444.751 LINE",
"381 417 LINE",
"361 436.6 LINE",
"341 417 LINE",
"321 438.56 LINE",
"301 417 LINE"
);
},
{
closed = 1;
nodes = (
"227.073 320.593 LINE",
"188.596 269.384 LINE",
"116.29 257.488 LINE",
"129.251 328.412 LINE",
"176.881 380.309 LINE"
);
},
{
closed = 1;
nodes = (
"254.975 214.942 LINE",
"243.809 196.262 LINE",
"224.566 203.931 LINE",
"218.549 225.982 LINE",
"242.435 234.284 LINE"
);
},
{
closed = 1;
nodes = (
"606.326 493.674 LINE",
"524.491 488.085 LINE",
"478.936 557.889 LINE",
"542.267 620.077 LINE",
"633.3 586.405 LINE"
);
},
{
closed = 1;
nodes = (
"553.967 300.267 LINE",
"504.849 308.036 LINE",
"485.321 339.593 LINE",
"511.228 373.408 LINE",
"561.264 358.004 LINE"
);
},
{
closed = 1;
nodes = (
"400.963 626.413 LINE",
"383.318 600.727 LINE",
"356.126 610.526 LINE",
"343.808 644.607 LINE",
"383.835 661.705 LINE"
);
},
{
closed = 1;
nodes = (
"182.65 156.339 LINE",
"178.441 149.085 LINE",
"167.778 144.416 LINE",
"167.436 156.605 LINE",
"175.175 163.998 LINE"
);
},
{
closed = 1;
nodes = (
"260.68 572.933 LINE",
"239.224 550.332 LINE",
"216.289 567.466 LINE",
"220.858 591.142 LINE",
"248.62 603.73 LINE"
);
},
{
closed = 1;
nodes = (
"231.109 432.66 LINE",
"209.663 420.012 LINE",
"187.387 431.134 LINE",
"195.455 456.336 LINE",
"222.421 458.897 LINE"
);
},
{
closed = 1;
nodes = (
"140.496 429.583 LINE",
"137.506 411.906 LINE",
"118.765 414.18 LINE",
"115.784 430.446 LINE",
"128.489 439.991 LINE"
);
},
{
closed = 1;
nodes = (
"569.648 159.15 LINE",
"525.572 139.38 LINE",
"488.653 170.533 LINE",
"511.752 214.201 LINE",
"552.534 200.3 LINE"
);
},
{
closed = 1;
nodes = (
"422.635 84.832 LINE",
"402.619 63.253 LINE",
"374.733 77.164 LINE",
"386.496 101.948 LINE",
"410.267 110.191 LINE"
);
},
{
closed = 1;
nodes = (
"305.064 37.048 LINE",
"262.204 33.872 LINE",
"255.311 73.771 LINE",
"283.337 102.994 LINE",
"314.257 75.418 LINE"
);
},
{
closed = 1;
nodes = (
"456.128 608.368 LINE",
"447.749 604.098 LINE",
"439.123 610.436 LINE",
"444.006 621.801 LINE",
"455.364 618.364 LINE"
);
}
);
width = 734;
}
);
leftKerningGroup = I;
unicode = 0042;
userData = {
com.typemytype.robofont.guides = (
{
angle = 0;
isGlobal = 0;
magnetic = 5;
x = 0;
y = 271;
},
{
angle = 0;
isGlobal = 0;
magnetic = 5;
x = 0;
y = 437;
},
{
angle = 0;
isGlobal = 0;
magnetic = 5;
x = 0;
y = 521;
},
{
angle = 0;
isGlobal = 0;
magnetic = 5;
x = 0;
y = 198;
},
{
angle = 0;
isGlobal = 0;
magnetic = 5;
x = 0;
y = 9;
},
{
angle = 90;
isGlobal = 0;
magnetic = 5;
x = 355;
y = 0;
},
{
angle = 90;
isGlobal = 0;
magnetic = 5;
x = 583;
y = 0;
},
{
angle = 90;
isGlobal = 0;
magnetic = 5;
x = 94;
y = 0;
}
);
};
},
{
color = 1;
glyphname = C;
layers = (
{
anchors = (
{
name = bottom;
position = "{367, 0}";
},
{
name = top;
position = "{367, 700}";
}
);
layerId = "EC64484B-0978-4CB1-9EE9-C40A2D8C4059";
paths = (
{
closed = 1;
nodes = (
"411.097 -33.61 LINE",
"444.365 14.594 LINE",
"491.506 -20.976 LINE",
"519.008 31.284 LINE",
"557.988 -12.435 LINE",
"556.465 46.118 LINE",
"604.962 15.564 LINE",
"601.487 72.778 LINE",
"652.183 60.214 LINE",
"642.33 111.506 LINE",
"710.539 120.864 LINE",
"679.638 182.388 LINE",
"740.597 203.409 LINE",
"688.914 241.968 LINE",
"659.967 288.801 LINE",
"623 248 LINE",
"597 291 LINE",
"571 248 LINE",
"541 299 LINE",
"511 248 LINE",
"465.939 260.232 LINE",
"457.32 214.343 LINE",
"399.943 231.487 LINE",
"414.329 173.357 LINE",
"379.297 212.278 LINE",
"355.028 165.876 LINE",
"351.954 223.097 LINE",
"313.896 180.257 LINE",
"341.157 231.378 LINE",
"284.033 221.711 LINE",
"329.869 251.374 LINE",
"277 265 LINE",
"318.377 290.338 LINE",
"275.78 313.565 LINE",
"316.746 348.016 LINE",
"275.713 382.387 LINE",
"333.27 405.326 LINE",
"276.859 430.954 LINE",
"332.126 455.543 LINE",
"299.187 506.279 LINE",
"352.564 474.56 LINE",
"366.999 534.949 LINE",
"387.59 477.821 LINE",
"437.77 512.019 LINE",
"403.937 464.28 LINE",
"460.516 479.195 LINE",
"446.467 432.764 LINE",
"491 452 LINE",
"521 402 LINE",
"551 452 LINE",
"583 409 LINE",
"615 452 LINE",
"641 402 LINE",
"667 452 LINE",
"711.851 464.837 LINE",
"683.645 501.997 LINE",
"732.772 541.461 LINE",
"669.81 544.041 LINE",
"709.961 590.483 LINE",
"649.674 578.888 LINE",
"677.06 636.451 LINE",
"617.181 614.585 LINE",
"612.904 674.53 LINE",
"556.465 653.882 LINE",
"541.904 708.964 LINE",
"495.796 675.497 LINE",
"474.203 725.211 LINE",
"436.365 686.403 LINE",
"416.374 746.95 LINE",
"388.126 689.787 LINE",
"350.165 740.488 LINE",
"315.848 687.252 LINE",
"281.068 739.41 LINE",
"264.309 679.002 LINE",
"222.413 711.959 LINE",
"206.896 660.962 LINE",
"148.537 689.408 LINE",
"144.659 624.601 LINE",
"83.384 634.907 LINE",
"98.498 574.637 LINE",
"40.446 567.066 LINE",
"70.666 516.926 LINE",
"24.692 498.071 LINE",
"58.896 462.026 LINE",
"7.723 442.858 LINE",
"56.389 418.005 LINE",
"11.951 380.512 LINE",
"55.508 341.998 LINE",
"9.884 313.385 LINE",
"56.251 285.993 LINE",
"9.088 255.004 LINE",
"59.735 230.111 LINE",
"7.021 194.37 LINE",
"69.721 183.196 LINE",
"38.707 125.934 LINE",
"102.937 115.196 LINE",
"92.807 46.426 LINE",
"160.852 60.629 LINE",
"170.694 -8.8 LINE",
"229.743 29.022 LINE",
"248.003 -26.345 LINE",
"288.242 15.842 LINE",
"304.785 -37.182 LINE",
"332.008 11.234 LINE"
);
},
{
closed = 1;
nodes = (
"165.199 286.333 LINE",
"139.794 277.043 LINE",
"133.289 303.299 LINE",
"147.825 329.708 LINE",
"172.672 310.083 LINE"
);
},
{
closed = 1;
nodes = (
"313.068 576.887 LINE",
"288.859 576.147 LINE",
"277.966 603.114 LINE",
"304.744 617.939 LINE",
"328.228 599.29 LINE"
);
},
{
closed = 1;
nodes = (
"426.321 57.095 LINE",
"363.07 42.833 LINE",
"348.005 92.558 LINE",
"364.797 141.728 LINE",
"418.5 118.958 LINE"
);
},
{
closed = 1;
nodes = (
"248.038 519.752 LINE",
"239.656 519.477 LINE",
"234.03 525.697 LINE",
"240.2 532.795 LINE",
"250.572 530.15 LINE"
);
},
{
closed = 1;
nodes = (
"226.283 222.408 LINE",
"217.874 219.636 LINE",
"214.027 227.61 LINE",
"219.65 232.846 LINE",
"226.143 230.09 LINE"
);
},
{
closed = 1;
nodes = (
"248.209 64.222 LINE",
"216.012 60.436 LINE",
"208.142 86.316 LINE",
"222.993 104.614 LINE",
"253.239 98.544 LINE"
);
},
{
closed = 1;
nodes = (
"519.979 105.056 LINE",
"482.729 127.366 LINE",
"470.594 171.45 LINE",
"519.67 183.993 LINE",
"540 145 LINE"
);
},
{
closed = 1;
nodes = (
"220.114 494.337 LINE",
"211.298 493.528 LINE",
"210.294 501.854 LINE",
"216 506 LINE",
"224.56 502.781 LINE"
);
},
{
closed = 1;
nodes = (
"409.641 642.149 LINE",
"405.786 622.714 LINE",
"384.847 626.17 LINE",
"384.033 644.08 LINE",
"396.959 649.958 LINE"
);
},
{
closed = 1;
nodes = (
"539.039 542.28 LINE",
"504.389 519.005 LINE",
"442.84 534.996 LINE",
"470.012 603.968 LINE",
"531.48 589.14 LINE"
);
},
{
closed = 1;
nodes = (
"112.851 179.79 LINE",
"108.488 174.017 LINE",
"101.51 178.378 LINE",
"103.5 186.362 LINE",
"111.18 186.088 LINE"
);
}
);
width = 733;
}
);
leftKerningGroup = O;
rightKerningGroup = C;
unicode = 0043;
userData = {
com.typemytype.robofont.guides = (
{
angle = 0;
isGlobal = 0;
magnetic = 5;
x = 0;
y = 434;
},
{
angle = 0;
isGlobal = 0;
magnetic = 5;
x = 0;
y = 266;
},
{
angle = 0;
isGlobal = 0;
magnetic = 5;
x = 0;
y = 710;
},
{
angle = 0;
isGlobal = 0;
magnetic = 5;
x = 0;
y = "-10";
},
{
angle = 90;
isGlobal = 0;
magnetic = 5;
x = 599;
y = 0;
},
{
angle = 90;
isGlobal = 0;
magnetic = 5;
x = 209;
y = 0;
},
{
angle = 90;
isGlobal = 0;
magnetic = 5;
x = 149;
y = 0;
},
{
angle = 90;
isGlobal = 0;
magnetic = 5;
x = 332;
y = 0;
}
);
};
},
{
color = 1;
glyphname = Ccedilla;
layers = (
{
hints = (
{
horizontal = 1;
place = "{-2147483648, 0}";
type = Tag;
name = hr00;
}
);
layerId = "EC64484B-0978-4CB1-9EE9-C40A2D8C4059";
paths = (
{
closed = 1;
nodes = (
"403.382 -237.551 LINE",
"416.773 -186.285 LINE",
"480.691 -179.384 LINE",
"444.934 -125.956 LINE",
"482.453 -81.755 LINE",
"424.923 -74.564 LINE",
"398.098 -38.203 LINE",
"361 -64 LINE",
"406.536 -27.181 LINE",
"356.308 2.923 LINE",
"383.573 -32.599 LINE",
"396.28 10.34 LINE",
"438.091 -38.397 LINE",
"468.36 18.236 LINE",
"516.03 -25.625 LINE",
"534.321 36.517 LINE",
"585.934 16.278 LINE",
"598.318 70.316 LINE",
"664.191 58.57 LINE",
"652.048 124.371 LINE",
"707.013 146.955 LINE",
"684.48 201.942 LINE",
"731.39 230.878 LINE",
"679 248 LINE",
"645 307 LINE",
"611 248 LINE",
"585 297 LINE",
"559 248 LINE",
"531 292 LINE",
"503 248 LINE",
"470.097 292.578 LINE",
"466.275 237.304 LINE",
"403.671 240.365 LINE",
"434.901 186.021 LINE",
"394.759 217.441 LINE",
"391.115 166.594 LINE",
"364.779 224.372 LINE",
"327.945 172.651 LINE",
"343.591 228.37 LINE",
"288.518 210.584 LINE",
"329.763 249.201 LINE",
"276.861 269.046 LINE",
"321.307 292.399 LINE",
"275.78 313.565 LINE",
"333.68 342.106 LINE",
"275.582 370.242 LINE",
"322.359 403.565 LINE",
"277.16 439 LINE",
"325.908 450.717 LINE",
"284.033 478.289 LINE",
"337.1 471.544 LINE",
"313.896 519.743 LINE",
"355.037 476.394 LINE",
"366.999 534.949 LINE",
"388.515 480.675 LINE",
"437.77 512.019 LINE",
"417.542 458.914 LINE",
"474.045 452.847 LINE",
"510.023 409.426 LINE",
"547 452 LINE",
"575 401 LINE",
"603 452 LINE",
"643 409 LINE",
"683 452 LINE",
"732.043 470.519 LINE",
"685.218 494.091 LINE",
"715.22 543.366 LINE",
"660.611 561.966 LINE",
"681.356 601.648 LINE",
"637.129 594.653 LINE",
"637.303 648.006 LINE",
"584.8 638.518 LINE",
"571.38 701.629 LINE",
"515.17 669.952 LINE",
"497.775 728.423 LINE",
"456.332 683.658 LINE",
"439.47 731.855 LINE",
"412.284 688.633 LINE",
"369.86 746.482 LINE",
"327.85 688.331 LINE",
"280.819 740.504 LINE",
"252.591 676.184 LINE",
"205.412 712.289 LINE",
"192.248 654.356 LINE",
"137.946 674.825 LINE",
"135.434 616.848 LINE",
"80.484 612.099 LINE",
"88.081 557.471 LINE",
"22.192 543.136 LINE",
"63.413 489.772 LINE",
"1.969 475.877 LINE",
"57.441 446.024 LINE",
"3.649 419.555 LINE",
"55.813 390.006 LINE",
"5.767 352.06 LINE",
"55.722 313.993 LINE",
"7.376 286.792 LINE",
"57 262 LINE",
"14.072 226.256 LINE",
"64.429 202.078 LINE",
"31.525 148.494 LINE",
"91.905 130.94 LINE",
"76.645 60.127 LINE",
"148.558 68.842 LINE",
"159.153 0.757 LINE",
"220.234 32.648 LINE",
"235.933 -20.757 LINE",
"274.925 18.969 LINE",
"293.993 -23.702 LINE",
"322.909 13.018 LINE",
"267.898 -8.145 LINE",
"326.2 -16.8 LINE",
"274.762 -34.864 LINE",
"310.25 -76.25 LINE",
"336.276 -118.015 LINE",
"374.089 -86.522 LINE",
"354.575 -140.968 LINE",
"412.403 -141.99 LINE",
"367.004 -130.522 LINE",
"344.608 -171.643 LINE",
"315.693 -151.428 LINE",
"305.916 -185.327 LINE",
"312.918 -235.268 LINE",
"345.605 -196.866 LINE"
);
},
{
closed = 1;
nodes = (
"327.762 624.065 LINE",
"320.837 614.029 LINE",
"310.728 622.254 LINE",
"314.215 632.894 LINE",
"323.18 631.088 LINE"
);
},
{
closed = 1;
nodes = (
"588.319 103.176 LINE",
"578.804 82.904 LINE",
"562.077 89.451 LINE",
"549.395 105.526 LINE",
"569.628 109.984 LINE"
);
},
{
closed = 1;
nodes = (
"539.484 141.624 LINE",
"496.377 95.82 LINE",
"437.555 122.71 LINE",
"463.981 171.229 LINE",
"504.973 185.851 LINE"
);
},
{
closed = 1;
nodes = (
"243.916 423.742 LINE",
"191.972 386.365 LINE",
"129.809 408.798 LINE",
"147.126 476.687 LINE",
"220.906 497.973 LINE"
);
},
{
closed = 1;
nodes = (
"238.743 112.893 LINE",
"170.976 68.139 LINE",
"125.574 133.789 LINE",
"150.245 211.207 LINE",
"222.125 178.817 LINE"
);
},
{
closed = 1;
nodes = (
"129.851 243.437 LINE",
"115.494 229.218 LINE",
"93.179 225.314 LINE",
"95.131 249.242 LINE",
"114.007 261.614 LINE"
);
},
{
closed = 1;
nodes = (
"546.225 522.305 LINE",
"519.511 517.028 LINE",
"508 537 LINE",
"517.348 563.63 LINE",
"544.607 550.519 LINE"
);
},
{
closed = 1;
nodes = (
"321.649 53.544 LINE",
"306.907 47.612 LINE",
"297.002 60.756 LINE",
"306.768 73.292 LINE",
"319.785 67.62 LINE"
);
}
);
width = 733;
}
);
leftKerningGroup = O;
rightKerningGroup = C;
unicode = 00C7;
userData = {
com.typemytype.robofont.guides = (
{
angle = 0;
isGlobal = 0;
magnetic = 5;
x = 0;
y = "-174";
},
{
angle = 0;
isGlobal = 0;
magnetic = 5;
x = 0;
y = "-220";
},
{
angle = 0;
isGlobal = 0;
magnetic = 5;
x = 0;
y = "-96";
},
{
angle = 0;
isGlobal = 0;
magnetic = 5;
x = 0;
y = "-50";
},
{
angle = 0;
isGlobal = 0;
magnetic = 5;
x = 0;
y = "-135";
},
{
angle = 90;
isGlobal = 0;
magnetic = 5;
x = 331;
y = 0;
},
{
angle = 90;
isGlobal = 0;
magnetic = 5;
x = 342;
y = 0;
}
);
};
},
{
color = 1;
glyphname = D;
layers = (
{
hints = (
{
horizontal = 1;
place = "{-2147483648, 0}";
type = Tag;
name = hr00;
}
);
layerId = "EC64484B-0978-4CB1-9EE9-C40A2D8C4059";
paths = (
{
closed = 1;
nodes = (
"105.757 -21 LINE",
"129.514 20 LINE",
"163.169 -30 LINE",
"196.824 20 LINE",
"218.601 -22 LINE",
"240.378 20 LINE",
"279.973 -30 LINE",
"319.568 20 LINE",
"353.418 -38.941 LINE",
"387.062 20.118 LINE",
"434.033 -25.387 LINE",
"470.944 28.6 LINE",
"500.937 -8.183 LINE",
"509.9 38.424 LINE",
"566.353 7.342 LINE",
"578.921 70.548 LINE",
"632.075 58.821 LINE",
"626.927 113.009 LINE",
"680.684 103.142 LINE",
"651.75 149.51 LINE",
"712.839 147.371 LINE",
"669.13 190.103 LINE",
"732.082 200.027 LINE",
"680.176 237.003 LINE",
"730.594 274.439 LINE",
"685.196 317.826 LINE",
"728.274 344.247 LINE",
"685.353 370.921 LINE",
"724.949 409.025 LINE",
"682.602 444.047 LINE",
"717.723 484.603 LINE",
"668.843 506.716 LINE",
"700.115 561.399 LINE",
"637.381 567.103 LINE",
"644.348 631.545 LINE",
"580.1 622.964 LINE",
"581.074 668.645 LINE",
"541.899 645.129 LINE",
"535.851 709.293 LINE",
"489.244 664.779 LINE",
"459.584 728.769 LINE",
"410.158 678.456 LINE",
"389.721 726.199 LINE",
"366 680 LINE",
"338 734 LINE",
"310 680 LINE",
"276 733 LINE",
"242 680 LINE",
"212 725 LINE",
"182 680 LINE",
"150 732 LINE",
"118 680 LINE",
"75.866 675.489 LINE",
"75 633.123 LINE",
"18 611.191 LINE",
"75 589.259 LINE",
"16 553.37 LINE",
"75 517.481 LINE",
"29 497.543 LINE",
"75 477.605 LINE",
"18 441.716 LINE",
"75 405.827 LINE",
"16 381.901 LINE",
"75 357.975 LINE",
"21 328.068 LINE",
"75 298.16 LINE",
"25 260.278 LINE",
"75 222.395 LINE",
"34 184.512 LINE",
"75 146.63 LINE",
"35 120.71 LINE",
"75 94.79 LINE"
);
},
{
closed = 1;
nodes = (
"309.5 194.886 LINE",
"285 214.773 LINE",
"310.97 234.659 LINE",
"285 254.545 LINE",
"309.01 274.432 LINE",
"285 294.318 LINE",
"309.01 314.205 LINE",
"285 334.091 LINE",
"304.6 353.977 LINE",
"285 373.864 LINE",
"312.44 393.75 LINE",
"285 413.636 LINE",
"307.54 433.523 LINE",
"285 453.409 LINE",
"313.42 473.295 LINE",
"285 493.182 LINE",
"308.484 504.192 LINE",
"293 525 LINE",
"313 492.8 LINE",
"333 525 LINE",
"352.801 483.587 LINE",
"373.069 524.773 LINE",
"385.254 487.575 LINE",
"412.243 515.926 LINE",
"408.191 475.809 LINE",
"444.825 492.654 LINE",
"430.283 461.509 LINE",
"464.446 457.718 LINE",
"445.147 434.436 LINE",
"470.429 417.844 LINE",
"449.651 396.633 LINE",
"471.962 377.041 LINE",
"448.044 356.518 LINE",
"472.145 336.21 LINE",
"444.126 316.596 LINE",
"470.964 295.394 LINE",
"446.351 276.989 LINE",
"467.645 254.828 LINE",
"438.919 244.177 LINE",
"453.217 217.081 LINE",
"409.914 232.444 LINE",
"424.478 188.865 LINE",
"395.541 211.637 LINE",
"386.218 176.015 LINE",
"365.797 203.498 LINE",
"346.818 175 LINE",
"327.5 216.3 LINE",
"308.182 175 LINE"
);
},
{
closed = 1;
nodes = (
"585.637 541.353 LINE",
"562.25 507.517 LINE",
"531.896 512.348 LINE",
"521.793 540.676 LINE",
"548.832 565.952 LINE"
);
},
{
closed = 1;
nodes = (
"161.81 624.12 LINE",
"144.83 622.42 LINE",
"138.511 638.882 LINE",
"151.796 657.968 LINE",
"167.937 640.734 LINE"
);
},
{
closed = 1;
nodes = (
"255.437 324.722 LINE",
"231.538 251.855 LINE",
"156.636 265.717 LINE",
"157.339 327.411 LINE",
"200.358 360.81 LINE"
);
},
{
closed = 1;
nodes = (
"497.762 67.632 LINE",
"480.256 49.061 LINE",
"458.713 68.194 LINE",
"467.692 96.897 LINE",
"494.213 88.555 LINE"
);
},
{
closed = 1;
nodes = (
"631.311 408.76 LINE",
"601.423 350.104 LINE",
"548.423 372.423 LINE",
"518.085 429.509 LINE",
"585.073 457.286 LINE"
);
},
{
closed = 1;
nodes = (
"537.854 199.148 LINE",
"494.277 183.864 LINE",
"472.898 235.506 LINE",
"518.604 261.976 LINE",
"548.191 232.261 LINE"
);
},
{
closed = 1;
nodes = (
"271.985 71.493 LINE",
"236.718 77.966 LINE",
"224.419 107.961 LINE",
"252 135 LINE",
"274.825 106.416 LINE"
);
},
{
closed = 1;
nodes = (
"347.547 569.214 LINE",
"304.424 555.261 LINE",
"279.048 589.168 LINE",
"303.966 617.14 LINE",
"354.412 623.725 LINE"
);
},
{
closed = 1;
nodes = (
"251.388 643.907 LINE",
"238.279 632.002 LINE",
"226.654 644.093 LINE",
"228.371 660.778 LINE",
"246.604 660.287 LINE"
);
},
{
closed = 1;
nodes = (
"242.569 485.967 LINE",
"224.257 473.076 LINE",
"207.487 488.726 LINE",
"213.124 514.429 LINE",
"245.026 514.887 LINE"
);
},
{
closed = 1;
nodes = (
"135.791 199.659 LINE",
"128.988 177.398 LINE",
"108.393 186.393 LINE",
"97.616 207.896 LINE",
"121.347 211.815 LINE"
);
}
);
width = 740;
}
);
leftKerningGroup = I;
rightKerningGroup = D;
unicode = 0044;
userData = {
com.typemytype.robofont.guides = (
{
angle = 0;
isGlobal = 0;
magnetic = 5;
x = 0;
y = 425;
},
{
angle = 0;
isGlobal = 0;
magnetic = 5;
x = 0;
y = 276;
},
{
angle = 0;
isGlobal = 0;
magnetic = 5;
x = 0;
y = 9;
},
{
angle = 90;
isGlobal = 0;
magnetic = 5;
x = 320;
y = 0;
},
{
angle = 90;
isGlobal = 0;
magnetic = 5;
x = 603;
y = 0;
},
{
angle = 90;
isGlobal = 0;
magnetic = 5;
x = 94;
y = 0;
}
);
};
},
{
color = 1;
glyphname = Eth;
layers = (
{
hints = (
{
horizontal = 1;
place = "{-2147483648, 0}";
type = Tag;
name = hr00;
}
);
layerId = "EC64484B-0978-4CB1-9EE9-C40A2D8C4059";
paths = (
{
closed = 1;
nodes = (
"147.568 -22 LINE",
"189.137 20 LINE",
"210.911 -39 LINE",
"232.685 20 LINE",
"258.418 -35 LINE",
"284.151 20 LINE",
"317.801 -24 LINE",
"351.452 20 LINE",
"381.475 -34.895 LINE",
"411.112 20.21 LINE",
"433.749 -19.462 LINE",
"451.298 22.708 LINE",
"498.905 -11.928 LINE",
"530.279 37.889 LINE",
"569.251 -3.039 LINE",
"571.732 53.422 LINE",
"624.243 38.313 LINE",
"632.613 92.31 LINE",
"687.997 74.334 LINE",
"665.161 127.898 LINE",
"718.652 122.546 LINE",
"687.274 166.196 LINE",
"736.609 185.224 LINE",
"705.33 227.858 LINE",
"754.078 255.11 LINE",
"709 288.081 LINE",
"753 326.338 LINE",
"709 364.595 LINE",
"762 392.784 LINE",
"709 420.973 LINE",
"742.663 468.056 LINE",
"697.135 503.793 LINE",
"723.14 559.962 LINE",
"662.215 570.884 LINE",
"676.612 614.189 LINE",
"632.344 603.102 LINE",
"635.294 651.538 LINE",
"590.251 633.485 LINE",
"583.28 685.151 LINE",
"539.464 656.901 LINE",
"531.111 715.394 LINE",
"493.313 669.979 LINE",
"478.627 716.925 LINE",
"449.895 676.999 LINE",
"416.2 732.452 LINE",
"378 680 LINE",
"344 726 LINE",
"310 680 LINE",
"284 729 LINE",
"258 680 LINE",
"232 734 LINE",
"206 680 LINE",
"170 731 LINE",
"134 680 LINE",
"102.473 696.338 LINE",
"99 661 LINE",
"40 641 LINE",
"99 621 LINE",
"56 581 LINE",
"99 541 LINE",
"46 505 LINE",
"99 469 LINE",
"50 439 LINE",
"99 409 LINE",
"55.466 438.121 LINE",
"34 390.346 LINE",
"-10 370.923 LINE",
"34 351.5 LINE",
"10.677 309.248 LINE",
"56.467 294 LINE",
"75.8 243 LINE",
"95.133 294 LINE",
"42.168 258.79 LINE",
"99 230.239 LINE",
"50 202.343 LINE",
"99 174.448 LINE",
"40 132.604 LINE",
"99 90.761 LINE"
);
},
{
closed = 1;
nodes = (
"337.42 194.833 LINE",
"309 214.667 LINE",
"332.52 234.5 LINE",
"309 254.333 LINE",
"334.97 274.167 LINE",
"309 294 LINE",
"329 273.42 LINE",
"349 294 LINE",
"370.67 271.019 LINE",
"390 296 LINE",
"418.406 314.609 LINE",
"392 335.962 LINE",
"411.6 355.385 LINE",
"392 374.808 LINE",
"407.491 398.657 LINE",
"381 409 LINE",
"361 430.07 LINE",
"341 409 LINE",
"330.229 433.916 LINE",
"309 417 LINE",
"335.46 437 LINE",
"309 457 LINE",
"337.91 477 LINE",
"309 497 LINE",
"336.527 502.004 LINE",
"320.591 525 LINE",
"339.909 496.58 LINE",
"359.227 525 LINE",
"378.586 500.472 LINE",
"398.016 524.944 LINE",
"412.247 494.572 LINE",
"437.157 517.031 LINE",
"435.822 482.384 LINE",
"468.818 493.037 LINE",
"456.285 465.284 LINE",
"485.553 456.875 LINE",
"467.749 435.224 LINE",
"489 416.946 LINE",
"460.58 396.811 LINE",
"489 376.676 LINE",
"467.93 356.541 LINE",
"489 336.405 LINE",
"464.01 316.27 LINE",
"489 296.135 LINE",
"459.921 276.999 LINE",
"487.649 255.952 LINE",
"461.396 243.533 LINE",
"475.181 217.971 LINE",
"443.357 220.786 LINE",
"447.732 189.138 LINE",
"420.675 206.183 LINE",
"410.043 176.024 LINE",
"389.919 195.105 LINE",
"370.818 175 LINE",
"351.5 198.52 LINE",
"332.182 175 LINE"
);
},
{
closed = 1;
nodes = (
"646.063 117.774 LINE",
"636.147 115.052 LINE",
"631.11 120.855 LINE",
"632.152 130.746 LINE",
"643.138 128.582 LINE"
);
},
{
closed = 1;
nodes = (
"567 354.913 LINE",
"563.754 349.262 LINE",
"556.266 350.985 LINE",
"555.611 359.815 LINE",
"564.279 361.619 LINE"
);
},
{
closed = 1;
nodes = (
"661.991 156.775 LINE",
"649.707 158.229 LINE",
"647.598 169.225 LINE",
"656.576 176.985 LINE",
"664.693 168.329 LINE"
);
},
{
closed = 1;
nodes = (
"575.223 145.939 LINE",
"521.43 128.517 LINE",
"474.665 161.553 LINE",
"500.307 224.351 LINE",
"562.648 204.648 LINE"
);
},
{
closed = 1;
nodes = (
"653.922 298.113 LINE",
"649.507 289.81 LINE",
"640.965 292.137 LINE",
"636.288 302.164 LINE",
"647.736 306.848 LINE"
);
},
{
closed = 1;
nodes = (
"231.405 219.449 LINE",
"200.5 221.081 LINE",
"196.35 244.327 LINE",
"209.387 265.863 LINE",
"235.752 251.575 LINE"
);
},
{
closed = 1;
nodes = (
"536.966 578.428 LINE",
"502.63 583.868 LINE",
"489.703 618.285 LINE",
"523.353 631.897 LINE",
"537.564 608.824 LINE"
);
},
{
closed = 1;
nodes = (
"582.694 494.089 LINE",
"570.359 484.071 LINE",
"554.383 490.492 LINE",
"559.632 507.404 LINE",
"577.5 511.722 LINE"
);
},
{
closed = 1;
nodes = (
"272.382 137.176 LINE",
"257.442 131.763 LINE",
"251.002 145.192 LINE",
"258.784 155.519 LINE",
"275.106 154.177 LINE"
);
},
{
closed = 1;
nodes = (
"167.966 174.977 LINE",
"157.371 165.655 LINE",
"141.743 163.715 LINE",
"147.216 178.239 LINE",
"156.419 183.703 LINE"
);
},
{
closed = 1;
nodes = (
"259.746 445.152 LINE",
"249.855 444.11 LINE",
"244.052 449.147 LINE",
"248.042 456.344 LINE",
"256.851 455.456 LINE"
);
},
{
closed = 1;
nodes = (
"195.354 483.592 LINE",
"148.863 482.774 LINE",
"141.832 521.774 LINE",
"166.838 545.924 LINE",
"209.796 531.483 LINE"
);
},
{
closed = 1;
nodes = (
"311.114 63.966 LINE",
"290.275 80 LINE",
"289.127 96.419 LINE",
"305.113 105.495 LINE",
"314.966 89.977 LINE"
);
},
{
closed = 1;
nodes = (
"160.781 344.643 LINE",
"107.594 340.878 LINE",
"112.331 394.37 LINE",
"151.772 415.408 LINE",
"172.728 380.897 LINE"
);
},
{
closed = 1;
nodes = (
"696.181 426.714 LINE",
"688.437 421.137 LINE",
"680.097 428.608 LINE",
"686.931 436.292 LINE",
"696.474 436.252 LINE"
);
},
{
closed = 1;
nodes = (
"511.387 350.554 LINE",
"501.188 349.239 LINE",
"493.014 355.477 LINE",
"500.491 362.535 LINE",
"511.549 362.923 LINE"
);
},
{
closed = 1;
nodes = (
"229.993 359.384 LINE",
"222.42 349.603 LINE",
"214.272 355.306 LINE",
"213.197 362.914 LINE",
"220.929 365.729 LINE"
);
}
);
width = 766;
}
);
leftKerningGroup = I;
rightKerningGroup = D;
unicode = 00D0;
userData = {
com.typemytype.robofont.guides = (
{
angle = 0;
isGlobal = 0;
magnetic = 5;
x = 0;
y = 350;
}
);
};
},
{
color = 1;
glyphname = Dcroat;
layers = (
{
hints = (
{
horizontal = 1;
place = "{-2147483648, 0}";
type = Tag;
name = hr00;
}
);
layerId = "EC64484B-0978-4CB1-9EE9-C40A2D8C4059";
paths = (
{
closed = 1;
nodes = (
"143.61 -22 LINE",
"181.219 20 LINE",
"204.973 -23 LINE",
"228.726 20 LINE",
"256.438 -33 LINE",
"284.151 20 LINE",
"313.842 -36 LINE",
"343.534 20 LINE",
"367.288 -38 LINE",
"391.041 20 LINE",
"419.097 -32.973 LINE",
"443.053 21.976 LINE",
"485.806 -15.533 LINE",
"514.158 33.772 LINE",
"569.562 8.74 LINE",
"591.931 65.272 LINE",
"642.706 40.816 LINE",
"633.572 96.429 LINE",
"683.399 85.545 LINE",
"664.687 132.991 LINE",
"726.348 138.386 LINE",
"692.818 190.414 LINE",
"752.479 198.27 LINE",
"703.454 233.166 LINE",
"756.045 265.608 LINE",
"708.92 305.576 LINE",
"752.159 335.868 LINE",
"709.402 366.836 LINE",
"753.748 409.271 LINE",
"706.167 448.043 LINE",
"745.723 492.733 LINE",
"690.057 514.255 LINE",
"703.974 571.98 LINE",
"646.241 585.861 LINE",
"641.03 647.198 LINE",
"580.198 637.78 LINE",
"577.1 684.247 LINE",
"540 656.098 LINE",
"528.126 717.62 LINE",
"485.891 671.336 LINE",
"467.659 714.331 LINE",
"438.163 678.123 LINE",
"413.951 731.028 LINE",
"386 680 LINE",
"348 724 LINE",
"310 680 LINE",
"274 736 LINE",
"238 680 LINE",
"202 738 LINE",
"166 680 LINE",
"138 721 LINE",
"110 680 LINE",
"60.237 673.084 LINE",
"99 641.121 LINE",
"44 601.273 LINE",
"99 561.424 LINE",
"46 541.5 LINE",
"99 521.576 LINE",
"48 479.735 LINE",
"99 437.894 LINE",
"52.507 462.413 LINE",
"56.467 410 LINE",
"9.736 392.3 LINE",
"34 348.615 LINE",
"-5.828 304.765 LINE",
"52.6 295 LINE",
"73.867 241 LINE",
"95.133 295 LINE",
"52.139 258.445 LINE",
"99 227 LINE",
"54 193 LINE",
"99 159 LINE",
"53 121 LINE",
"99 83 LINE"
);
},
{
closed = 1;
nodes = (
"333.01 195 LINE",
"309 215 LINE",
"337.42 235 LINE",
"309 255 LINE",
"334.97 275 LINE",
"309 295 LINE",
"329 266.09 LINE",
"349 295 LINE",
"370.885 267.614 LINE",
"390 297 LINE",
"413.022 315.879 LINE",
"392 336.962 LINE",
"416.99 356.385 LINE",
"392 375.808 LINE",
"412.622 401.307 LINE",
"381 410 LINE",
"361 436.46 LINE",
"341 410 LINE",
"330.658 436.795 LINE",
"309 417.931 LINE",
"336.93 437.759 LINE",
"309 457.586 LINE",
"336.93 477.414 LINE",
"309 497.241 LINE",
"336.047 502.247 LINE",
"320.591 525 LINE",
"339.909 503.44 LINE",
"359.227 525 LINE",
"378.606 501.451 LINE",
"398.053 524.943 LINE",
"413.312 498.411 LINE",
"437.59 517.047 LINE",
"438.409 483.844 LINE",
"470.165 493.575 LINE",
"458.253 464.604 LINE",
"488.862 457.945 LINE",
"463.981 434.054 LINE",
"494.429 417.844 LINE",
"473.161 396.614 LINE",
"495.962 377.041 LINE",
"475.964 356.535 LINE",
"496.145 336.21 LINE",
"472.044 316.482 LINE",
"494.964 295.394 LINE",
"470.839 276.949 LINE",
"491.645 254.828 LINE",
"462.461 244.352 LINE",
"477.217 217.081 LINE",
"448.773 217.309 LINE",
"448.478 188.865 LINE",
"421.859 204.736 LINE",
"410.218 176.015 LINE",
"389.95 197.55 LINE",
"370.818 175 LINE",
"351.5 199.5 LINE",
"332.182 175 LINE"
);
},
{
closed = 1;
nodes = (
"248.496 483.739 LINE",
"175.675 480.269 LINE",
"166.277 542.403 LINE",
"202.768 606.817 LINE",
"251.578 549.607 LINE"
);
},
{
closed = 1;
nodes = (
"309.544 77.761 LINE",
"263.628 70.358 LINE",
"255.122 122.595 LINE",
"300.606 149.657 LINE",
"335.247 111.823 LINE"
);
},
{
closed = 1;
nodes = (
"301.877 186.564 LINE",
"296.54 176.09 LINE",
"284.929 177.929 LINE",
"283.981 189.086 LINE",
"293.408 193.889 LINE"
);
},
{
closed = 1;
nodes = (
"634.471 515.653 LINE",
"580.905 470.748 LINE",
"532.552 477.674 LINE",
"521.144 530.756 LINE",
"572.777 552.155 LINE"
);
},
{
closed = 1;
nodes = (
"170.918 197.97 LINE",
"157.526 195.951 LINE",
"155.038 206.732 LINE",
"160.129 214.803 LINE",
"168.062 209.5 LINE"
);
},
{
closed = 1;
nodes = (
"175.923 268.935 LINE",
"155.763 260.736 LINE",
"140.013 278.267 LINE",
"153.818 298.734 LINE",
"172.82 288.235 LINE"
);
},
{
closed = 1;
nodes = (
"309.859 385.326 LINE",
"289.385 333.319 LINE",
"243.742 345.444 LINE",
"229.907 382.395 LINE",
"263.541 401.995 LINE"
);
},
{
closed = 1;
nodes = (
"625.167 148.5 LINE",
"568.317 114.333 LINE",
"546.192 170.342 LINE",
"558.223 225.159 LINE",
"612.955 202.773 LINE"
);
},
{
closed = 1;
nodes = (
"163.852 414.877 LINE",
"156.54 404.09 LINE",
"142.808 403.808 LINE",
"143.09 417.54 LINE",
"154.034 425.84 LINE"
);
},
{
closed = 1;
nodes = (
"186.073 98.055 LINE",
"142.498 102.149 LINE",
"139.049 137.017 LINE",
"161.546 155.996 LINE",
"202.657 144 LINE"
);
},
{
closed = 1;
nodes = (
"669.703 508.581 LINE",
"660.488 504.017 LINE",
"651.655 507.629 LINE",
"653.572 518.66 LINE",
"664.239 517.784 LINE"
);
},
{
closed = 1;
nodes = (
"670.765 372.353 LINE",
"638.931 355.852 LINE",
"611.006 388.681 LINE",
"639.475 422.427 LINE",
"676.213 406.354 LINE"
);
}
);
width = 764;
}
);
leftKerningGroup = I;
rightKerningGroup = D;
unicode = 0110;
userData = {
com.typemytype.robofont.guides = (
{
angle = 0;
isGlobal = 0;
magnetic = 5;
x = 0;
y = 352;
},
{
angle = 90;
isGlobal = 0;
magnetic = 5;
x = 340;
y = 0;
},
{
angle = 90;
isGlobal = 0;
magnetic = 5;
x = 105;
y = 0;
}
);
};
},
{
color = 1;
glyphname = E;
layers = (
{
anchors = (
{
name = bottom;
position = "{334, 0}";
},
{
name = ogonek;
position = "{600, 10}";
},
{
name = top;
position = "{334, 700}";
},
{
name = topleft;
position = "{20, 700}";
}
);
layerId = "EC64484B-0978-4CB1-9EE9-C40A2D8C4059";
paths = (
{
closed = 1;
nodes = (
"103.874 -39 LINE",
"125.748 20 LINE",
"157.565 -32 LINE",
"189.382 20 LINE",
"211.256 -32 LINE",
"233.13 20 LINE",
"256.992 -39 LINE",
"280.855 20 LINE",
"318.637 -39 LINE",
"356.42 20 LINE",
"394.202 -32 LINE",
"431.985 20 LINE",
"463.802 -24 LINE",
"495.618 20 LINE",
"515.504 -25 LINE",
"535.389 20 LINE",
"576.524 -17.321 LINE",
"610 27 LINE",
"657 58.333 LINE",
"610 89.667 LINE",
"654 117.083 LINE",
"610 144.5 LINE",
"608.18 182.358 LINE",
"571 175 LINE",
"543 203 LINE",
"515 175 LINE",
"477 210 LINE",
"439 175 LINE",
"411 206.5 LINE",
"383 175 LINE",
"347 212.1 LINE",
"311 175 LINE",
"303.753 213.513 LINE",
"275 186.885 LINE",
"331 212.635 LINE",
"275 238.385 LINE",
"333.627 242.345 LINE",
"286.92 278 LINE",
"326.653 247.9 LINE",
"366.387 278 LINE",
"394.2 242.3 LINE",
"422.013 278 LINE",
"443.867 243.7 LINE",
"465.72 278 LINE",
"505.453 247.9 LINE",
"545.187 278 LINE",
"580.595 261.841 LINE",
"580 300.758 LINE",
"631 342.121 LINE",
"580 383.485 LINE",
"588.622 421.994 LINE",
"549.16 422 LINE",
"523.333 458.4 LINE",
"497.507 422 LINE",
"465.72 459.1 LINE",
"433.933 422 LINE",
"398.173 457.7 LINE",
"362.413 422 LINE",
"326.653 461.9 LINE",
"290.893 422 LINE",
"328.47 460.989 LINE",
"275 469.538 LINE",
"316 491.327 LINE",
"275 513.115 LINE",
"304.63 483.828 LINE",
"311 525 LINE",
"341 490.7 LINE",
"371 525 LINE",
"399 494.2 LINE",
"427 525 LINE",
"461 489.3 LINE",
"495 525 LINE",
"519 490.7 LINE",
"543 525 LINE",
"584.048 506.275 LINE",
"602 547.667 LINE",
"655 569.208 LINE",
"602 590.75 LINE",
"656 631.875 LINE",
"602 673 LINE",
"564.945 726.321 LINE",
"519.442 680 LINE",
"499.558 736 LINE",
"479.674 680 LINE",
"447.86 735 LINE",
"416.047 680 LINE",
"384.233 725 LINE",
"352.419 680 LINE",
"326.57 721 LINE",
"300.721 680 LINE",
"270.895 738 LINE",
"241.07 680 LINE",
"201.302 734 LINE",
"161.535 680 LINE",
"121.767 724 LINE",
"82 680 LINE",
"33.101 665.965 LINE",
"75 637.111 LINE",
"24 601.222 LINE",
"75 565.333 LINE",
"35 545.395 LINE",
"75 525.457 LINE",
"21 493.556 LINE",
"75 461.654 LINE",
"34 441.716 LINE",
"75 421.778 LINE",
"26 391.87 LINE",
"75 361.963 LINE",
"22 320.093 LINE",
"75 278.222 LINE",
"35 242.333 LINE",
"75 206.444 LINE",
"19 182.519 LINE",
"75 158.593 LINE",
"33 134.667 LINE",
"75 110.741 LINE",
"34 88.809 LINE",
"75 66.877 LINE"
);
},
{
closed = 1;
nodes = (
"500.958 617.656 LINE",
"493.612 619.908 LINE",
"491.878 627.394 LINE",
"498.954 628.908 LINE",
"506.933 625.097 LINE"
);
},
{
closed = 1;
nodes = (
"299.993 82.785 LINE",
"269.325 40.397 LINE",
"232.638 65.149 LINE",
"218.138 107.811 LINE",
"269.034 127.903 LINE"
);
},
{
closed = 1;
nodes = (
"495.253 360.832 LINE",
"478.674 368.771 LINE",
"480.292 384.053 LINE",
"493.09 386.511 LINE",
"507 377 LINE"
);
},
{
closed = 1;
nodes = (
"129.339 438.535 LINE",
"109.53 438.113 LINE",
"100.057 452.307 LINE",
"112.526 461.718 LINE",
"129.572 459.756 LINE"
);
},
{
closed = 1;
nodes = (
"293 577.823 LINE",
"237.529 567.384 LINE",
"243.026 623.236 LINE",
"280.54 661.71 LINE",
"330.754 620.851 LINE"
);
},
{
closed = 1;
nodes = (
"156.906 357.856 LINE",
"123.318 358.359 LINE",
"122.749 389.596 LINE",
"146.312 418.855 LINE",
"171.257 387.524 LINE"
);
},
{
closed = 1;
nodes = (
"283.635 398.285 LINE",
"275.72 402.226 LINE",
"272.556 408.735 LINE",
"279.61 412.973 LINE",
"286.795 407.8 LINE"
);
},
{
closed = 1;
nodes = (
"531.025 576.111 LINE",
"517.097 571.356 LINE",
"502.044 581.744 LINE",
"513.257 599.689 LINE",
"529.193 590.713 LINE"
);
},
{
closed = 1;
nodes = (
"346.364 327.636 LINE",
"335.006 324.199 LINE",
"330.123 335.564 LINE",
"338.279 344.865 LINE",
"350.692 339.448 LINE"
);
},
{
closed = 1;
nodes = (
"137.776 185.08 LINE",
"117.874 176.273 LINE",
"105.156 191.773 LINE",
"114.424 207.482 LINE",
"133.948 206.504 LINE"
);
},
{
closed = 1;
nodes = (
"432.996 337.599 LINE",
"414.97 321.743 LINE",
"394.436 327.102 LINE",
"395.625 348.833 LINE",
"414.558 351.237 LINE"
);
},
{
closed = 1;
nodes = (
"403.535 116.692 LINE",
"392.593 103.01 LINE",
"377.905 114.87 LINE",
"385.228 128.668 LINE",
"398.71 129.948 LINE"
);
},
{
closed = 1;
nodes = (
"177.828 54.19 LINE",
"170.81 38.635 LINE",
"150.565 38.565 LINE",
"144.398 61.988 LINE",
"167.285 72.741 LINE"
);
},
{
closed = 1;
nodes = (
"104.803 487.871 LINE",
"98.5 481.67 LINE",
"90.647 480.055 LINE",
"88.692 489.254 LINE",
"96.836 493.956 LINE"
);
},
{
closed = 1;
nodes = (
"544.82 147.765 LINE",
"529.922 148.543 LINE",
"517.01 157.558 LINE",
"529.141 170.458 LINE",
"547.094 166.506 LINE"
);
},
{
closed = 1;
nodes = (
"209.338 221.604 LINE",
"173.034 218.428 LINE",
"163.666 250.849 LINE",
"186.385 274.886 LINE",
"215.695 256.331 LINE"
);
}
);
width = 667;
}
);
leftKerningGroup = I;
rightKerningGroup = E;
unicode = 0045;
userData = {
com.typemytype.robofont.guides = (
{
angle = 0;
isGlobal = 0;
magnetic = 5;
x = 0;
y = 334;
},
{
angle = 0;
isGlobal = 0;
magnetic = 5;
x = 0;
y = 9;
},
{
angle = 0;
isGlobal = 0;
magnetic = 5;
x = 0;
y = 376;
},
{
angle = 0;
isGlobal = 0;
magnetic = 5;
x = 0;
y = 691;
},
{
angle = 0;
isGlobal = 0;
magnetic = 5;
x = 0;
y = 649;
},
{
angle = 90;
isGlobal = 0;
magnetic = 5;
x = 664;
y = 0;
},
{
angle = 90;
isGlobal = 0;
magnetic = 5;
x = 94;
y = 0;
},
{
angle = 90;
isGlobal = 0;
magnetic = 5;
x = 511;
y = 0;
}
);
};
},
{
color = 1;
glyphname = Eogonek;
layers = (
{
hints = (
{
horizontal = 1;
place = "{-2147483648, 0}";
type = Tag;
name = hr01;
}
);
layerId = "EC64484B-0978-4CB1-9EE9-C40A2D8C4059";
paths = (
{
closed = 1;
nodes = (
"628.222 -175.502 LINE",
"610 -133 LINE",
"599.807 -84.821 LINE",
"557.412 -109.876 LINE",
"575.898 -59.262 LINE",
"523 -49 LINE",
"579.187 -42.863 LINE",
"535.833 -6.599 LINE",
"591.898 -31.7 LINE",
"610 27 LINE",
"653 62.25 LINE",
"610 97.5 LINE",
"664 126.875 LINE",
"610 156.25 LINE",
"590.195 204.922 LINE",
"547 175 LINE",
"517 213.5 LINE",
"487 175 LINE",
"465 214.9 LINE",
"443 175 LINE",
"413 207.2 LINE",
"383 175 LINE",
"349 210.7 LINE",
"315 175 LINE",
"305.828 210.256 LINE",
"275 190.846 LINE",
"327 216.596 LINE",
"275 242.346 LINE",
"316.741 255.743 LINE",
"278.973 278 LINE",
"318.707 243 LINE",
"358.44 278 LINE",
"388.24 248.6 LINE",
"418.04 278 LINE",
"439.893 245.1 LINE",
"461.747 278 LINE",
"501.48 242.3 LINE",
"541.213 278 LINE",
"565.704 253.256 LINE",
"580 285 LINE",
"628 304.697 LINE",
"580 324.394 LINE",
"625 365.758 LINE",
"580 407.121 LINE",
"569.662 446.294 LINE",
"537.24 422 LINE",
"501.48 454.9 LINE",
"465.72 422 LINE",
"435.92 457.7 LINE",
"406.12 422 LINE",
"366.387 450.7 LINE",
"326.653 422 LINE",
"315.458 465.68 LINE",
"275 445.769 LINE",
"328.934 482.763 LINE",
"279 525 LINE",
"313 495.6 LINE",
"347 525 LINE",
"369 495.6 LINE",
"391 525 LINE",
"413 490 LINE",
"435 525 LINE",
"473 488.6 LINE",
"511 525 LINE",
"531 487.9 LINE",
"551 525 LINE",
"587.175 480.588 LINE",
"602 535.917 LINE",
"656 571.167 LINE",
"602 606.417 LINE",
"649.921 651.176 LINE",
"591.023 680 LINE",
"551.256 729 LINE",
"511.488 680 LINE",
"473.709 726 LINE",
"435.93 680 LINE",
"412.07 738 LINE",
"388.209 680 LINE",
"360.372 726 LINE",
"332.535 680 LINE",
"312.651 730 LINE",
"292.767 680 LINE",
"251.012 727 LINE",
"209.256 680 LINE",
"177.442 722 LINE",
"145.628 680 LINE",
"109.624 736.975 LINE",
"77 678 LINE",
"34.042 657.432 LINE",
"75 633.123 LINE",
"26 593.247 LINE",
"75 553.37 LINE",
"23 527.451 LINE",
"75 501.531 LINE",
"26 475.611 LINE",
"75 449.691 LINE",
"23 427.759 LINE",
"75 405.827 LINE",
"18 383.895 LINE",
"75 361.963 LINE",
"21 338.037 LINE",
"75 314.111 LINE",
"33 272.241 LINE",
"75 230.37 LINE",
"25 196.475 LINE",
"75 162.58 LINE",
"21 122.704 LINE",
"75 82.827 LINE",
"17 62.889 LINE",
"75 42.951 LINE",
"57.18 2.324 LINE",
"97.87 20 LINE",
"137.543 -34 LINE",
"177.217 20 LINE",
"197.054 -38 LINE",
"216.891 20 LINE",
"236.728 -23 LINE",
"256.565 20 LINE",
"276.402 -39 LINE",
"296.239 20 LINE",
"325.995 -23 LINE",
"355.75 20 LINE",
"389.473 -24 LINE",
"423.196 20 LINE",
"391.859 -16.896 LINE",
"437.658 -32.573 LINE",
"380.158 -56.04 LINE",
"438.63 -76.966 LINE",
"401.5 -127.948 LINE",
"462.423 -144.264 LINE",
"444.874 -189.263 LINE",
"490.267 -172.763 LINE",
"500.182 -232.887 LINE",
"549.153 -196.623 LINE"
);
},
{
closed = 1;
nodes = (
"177.894 384.215 LINE",
"167.629 381.655 LINE",
"162.022 390.628 LINE",
"168.823 398.733 LINE",
"177.784 394.239 LINE"
);
},
{
closed = 1;
nodes = (
"407.67 589.925 LINE",
"362.335 555.491 LINE",
"329.008 609.127 LINE",
"368.582 640.257 LINE",
"420.529 641.294 LINE"
);
},
{
closed = 1;
nodes = (
"562.284 88.716 LINE",
"512.208 74.232 LINE",
"502.394 122.006 LINE",
"528.681 150.581 LINE",
"576.768 138.792 LINE"
);
},
{
closed = 1;
nodes = (
"219.984 302.093 LINE",
"205.025 264.55 LINE",
"156.693 277.836 LINE",
"168.784 322.701 LINE",
"202.893 327.432 LINE"
);
},
{
closed = 1;
nodes = (
"501.998 607.721 LINE",
"491.263 590.787 LINE",
"473.713 599.396 LINE",
"470.826 619.434 LINE",
"492.186 625.965 LINE"
);
},
{
closed = 1;
nodes = (
"185.339 472.869 LINE",
"160.666 446.758 LINE",
"124.766 438.94 LINE",
"129.155 475.72 LINE",
"154.022 498.754 LINE"
);
},
{
closed = 1;
nodes = (
"406.976 84.698 LINE",
"400.746 74.728 LINE",
"389.34 77.572 LINE",
"390.216 88.239 LINE",
"399.177 92.733 LINE"
);
},
{
closed = 1;
nodes = (
"488.728 312.643 LINE",
"470.596 320.632 LINE",
"468.01 337.5 LINE",
"483.703 342.716 LINE",
"496.912 331.672 LINE"
);
},
{
closed = 1;
nodes = (
"525.092 -0.541 LINE",
"515.948 -0.638 LINE",
"507.007 5.384 LINE",
"515.795 12.69 LINE",
"527.119 11.151 LINE"
);
},
{
closed = 1;
nodes = (
"338.927 332.093 LINE",
"317.241 309.602 LINE",
"289.083 313.288 LINE",
"286.103 344.308 LINE",
"316.016 358.139 LINE"
);
},
{
closed = 1;
nodes = (
"158.19 580.493 LINE",
"149.747 575.088 LINE",
"145.091 582.958 LINE",
"147.714 590.181 LINE",
"155.168 588.316 LINE"
);
},
{
closed = 1;
nodes = (
"335.669 130.732 LINE",
"312.959 103.53 LINE",
"280.42 105.16 LINE",
"278.16 138.676 LINE",
"307.209 155.544 LINE"
);
}
);
width = 667;
}
);
leftKerningGroup = I;
rightKerningGroup = E;
unicode = 0118;
userData = {
com.typemytype.robofont.guides = (
{
angle = 90;
isGlobal = 0;
magnetic = 5;
x = 355;
y = 0;
}
);
};
},
{
color = 1;
glyphname = F;
layers = (
{
hints = (
{
horizontal = 1;
place = "{-2147483648, 0}";
type = Tag;
name = hr00;
}
);
layerId = "EC64484B-0978-4CB1-9EE9-C40A2D8C4059";
paths = (
{
closed = 1;
nodes = (
"121.792 -33 LINE",
"161.583 20 LINE",
"197.396 -25 LINE",
"233.208 20 LINE",
"277.918 18.306 LINE",
"280 63 LINE",
"336 89 LINE",
"280 115 LINE",
"326 155 LINE",
"280 195 LINE",
"333.211 181.882 LINE",
"319.722 235 LINE",
"347.528 179 LINE",
"375.333 235 LINE",
"395.194 188 LINE",
"415.056 235 LINE",
"450.806 181 LINE",
"486.556 235 LINE",
"510.389 192 LINE",
"534.222 235 LINE",
"569.132 185.641 LINE",
"573 245.974 LINE",
"626 281.737 LINE",
"573 317.5 LINE",
"625.983 359.091 LINE",
"571 398 LINE",
"541.987 438.179 LINE",
"510.389 400 LINE",
"478.611 428 LINE",
"446.833 400 LINE",
"419.028 430.8 LINE",
"391.222 400 LINE",
"351.5 440.6 LINE",
"311.778 400 LINE",
"312.459 436.617 LINE",
"280 419.655 LINE",
"322 439.31 LINE",
"280 458.966 LINE",
"328 482.552 LINE",
"280 506.138 LINE",
"319.055 480.149 LINE",
"351.532 514 LINE",
"371.403 482.5 LINE",
"391.273 514 LINE",
"423.065 485.3 LINE",
"454.857 514 LINE",
"478.701 481.8 LINE",
"502.545 514 LINE",
"540.299 485.3 LINE",
"578.052 514 LINE",
"641.427 540.359 LINE",
"593 589 LINE",
"644 631 LINE",
"593 673 LINE",
"565.917 716.255 LINE",
"530 680 LINE",
"494 737 LINE",
"458 680 LINE",
"434 735 LINE",
"410 680 LINE",
"374 730 LINE",
"338 680 LINE",
"318 726 LINE",
"298 680 LINE",
"256 733 LINE",
"214 680 LINE",
"186 734 LINE",
"158 680 LINE",
"132 738 LINE",
"106 680 LINE",
"62.581 682.798 LINE",
"75 641.099 LINE",
"27 617.173 LINE",
"75 593.247 LINE",
"18 561.346 LINE",
"75 529.444 LINE",
"28 505.519 LINE",
"75 481.593 LINE",
"18 457.667 LINE",
"75 433.741 LINE",
"18 403.833 LINE",
"75 373.926 LINE",
"18 351.994 LINE",
"75 330.062 LINE",
"34 292.179 LINE",
"75 254.296 LINE",
"27 226.383 LINE",
"75 198.469 LINE",
"33 160.586 LINE",
"75 122.704 LINE",
"16 84.821 LINE",
"75 46.938 LINE"
);
},
{
closed = 1;
nodes = (
"262.879 222.639 LINE",
"221.423 177.764 LINE",
"169.582 175.164 LINE",
"144.09 238.47 LINE",
"207.753 249.709 LINE"
);
},
{
closed = 1;
nodes = (
"260.619 77.092 LINE",
"236.615 75.573 LINE",
"241.431 99.479 LINE",
"260.322 112.347 LINE",
"266.971 91.837 LINE"
);
},
{
closed = 1;
nodes = (
"405.694 255.21 LINE",
"391.082 259.97 LINE",
"389.608 274 LINE",
"402.703 280.716 LINE",
"414.918 269.568 LINE"
);
},
{
closed = 1;
nodes = (
"454.79 552.306 LINE",
"439.805 537.115 LINE",
"422.437 553.842 LINE",
"434.5 570.99 LINE",
"454.044 571.377 LINE"
);
},
{
closed = 1;
nodes = (
"258.12 461.143 LINE",
"247.439 460.453 LINE",
"245.715 471.517 LINE",
"254.697 475.97 LINE",
"261.795 469.8 LINE"
);
},
{
closed = 1;
nodes = (
"294.866 555.194 LINE",
"285.452 534.874 LINE",
"264.567 541.406 LINE",
"258.633 563.181 LINE",
"281.007 573.614 LINE"
);
},
{
closed = 1;
nodes = (
"171.284 535.435 LINE",
"162.437 512.388 LINE",
"133.379 508.24 LINE",
"123.926 540.393 LINE",
"152.099 550.971 LINE"
);
},
{
closed = 1;
nodes = (
"529.722 306.5 LINE",
"509.594 289.568 LINE",
"488.148 312.178 LINE",
"504.425 338.752 LINE",
"526.147 325.037 LINE"
);
},
{
closed = 1;
nodes = (
"194.61 334.84 LINE",
"148.592 344.646 LINE",
"152.014 388.487 LINE",
"194.515 429.218 LINE",
"212.92 373.302 LINE"
);
},
{
closed = 1;
nodes = (
"541.769 556.025 LINE",
"538.15 545.428 LINE",
"526.439 546.453 LINE",
"524.715 557.517 LINE",
"533.959 564.958 LINE"
);
},
{
closed = 1;
nodes = (
"386.045 611.034 LINE",
"349.204 599.872 LINE",
"338.486 640.941 LINE",
"370.18 677.993 LINE",
"406.93 643.372 LINE"
);
},
{
closed = 1;
nodes = (
"247.993 295.738 LINE",
"244.812 289.239 LINE",
"237.968 292.732 LINE",
"237.56 300.405 LINE",
"245.867 303.469 LINE"
);
},
{
closed = 1;
nodes = (
"127.021 646.82 LINE",
"108 633 LINE",
"86.126 645.893 LINE",
"99.183 665.135 LINE",
"122.107 672.416 LINE"
);
},
{
closed = 1;
nodes = (
"316.383 333.137 LINE",
"288.5 322.885 LINE",
"280.503 352.782 LINE",
"300.596 370.874 LINE",
"328.579 359.389 LINE"
);
}
);
width = 646;
}
);
leftKerningGroup = I;
unicode = 0046;
userData = {
com.typemytype.robofont.guides = (
{
angle = 0;
isGlobal = 0;
magnetic = 5;
x = 0;
y = 320;
},
{
angle = 0;
isGlobal = 0;
magnetic = 5;
x = 0;
y = 691;
},
{
angle = 0;
isGlobal = 0;
magnetic = 5;
x = 0;
y = 649;
},
{
angle = 0;
isGlobal = 0;
magnetic = 5;
x = 0;
y = 362;
},
{
angle = 0;
isGlobal = 0;
magnetic = 5;
x = 0;
y = 9;
},
{
angle = 90;
isGlobal = 0;
magnetic = 5;
x = 761;
y = 0;
},
{
angle = 90;
isGlobal = 0;
magnetic = 5;
x = 94;
y = 0;
},
{
angle = 90;
isGlobal = 0;
magnetic = 5;
x = 487;
y = 0;
},
{
angle = 90;
isGlobal = 0;
magnetic = 5;
x = 139;
y = 0;
}
);
};
},
{
color = 1;
glyphname = G;
layers = (
{
hints = (
{
horizontal = 1;
place = "{-2147483648, 0}";
type = Tag;
name = hr01;
}
);
layerId = "EC64484B-0978-4CB1-9EE9-C40A2D8C4059";
paths = (
{
closed = 1;
nodes = (
"413.343 -41.689 LINE",
"446.077 14.419 LINE",
"491.545 -26.028 LINE",
"516.68 29.393 LINE",
"574.056 -6.539 LINE",
"586.317 60.04 LINE",
"648.2 45.433 LINE",
"644.45 108.906 LINE",
"702.488 104.696 LINE",
"674.919 155.941 LINE",
"723.078 176.843 LINE",
"694.693 221.007 LINE",
"751.294 256.355 LINE",
"698 296.515 LINE",
"740 330 LINE",
"698 363.485 LINE",
"748.283 398.651 LINE",
"687.014 402 LINE",
"647.159 434.2 LINE",
"607.304 402 LINE",
"583.391 440.5 LINE",
"559.478 402 LINE",
"519.623 434.9 LINE",
"479.768 402 LINE",
"459.841 439.1 LINE",
"439.913 402 LINE",
"407.665 420.029 LINE",
"409 383.107 LINE",
"371.9 349.411 LINE",
"409 315.714 LINE",
"405.441 273.643 LINE",
"447.529 277 LINE",
"441.062 233.315 LINE",
"482.738 247.919 LINE",
"422.405 240.895 LINE",
"459.931 193.134 LINE",
"406.867 232.597 LINE",
"402.185 166.633 LINE",
"369.773 221.497 LINE",
"323.896 177.271 LINE",
"336.1 227.624 LINE",
"284.324 225.734 LINE",
"309.379 270.313 LINE",
"275.93 308.993 LINE",
"317.061 343.203 LINE",
"275.594 377.004 LINE",
"304.035 400.485 LINE",
"276.485 425.005 LINE",
"323.38 445.288 LINE",
"282.96 476.541 LINE",
"327.378 472.684 LINE",
"303.729 510.48 LINE",
"352.83 471.89 LINE",
"357.96 534.129 LINE",
"382.252 475.098 LINE",
"422.108 524.961 LINE",
"409.767 474.338 LINE",
"458.645 492.391 LINE",
"473.79 447.967 LINE",
"502.625 485 LINE",
"540.116 452.1 LINE",
"577.607 485 LINE",
"615.098 447.2 LINE",
"652.589 485 LINE",
"697.528 466.221 LINE",
"694.723 514.845 LINE",
"731.894 554.768 LINE",
"677.561 559.607 LINE",
"696.09 626.351 LINE",
"627.53 616.469 LINE",
"621.411 685.825 LINE",
"558.28 656.462 LINE",
"554.782 720.079 LINE",
"512.809 672.145 LINE",
"499.678 734.358 LINE",
"461.888 683.223 LINE",
"441.544 736.76 LINE",
"410.078 688.906 LINE",
"367.315 745.495 LINE",
"325.655 688.09 LINE",
"287.73 723.896 LINE",
"261.881 678.595 LINE",
"214.136 714.549 LINE",
"196.816 657.346 LINE",
"154.887 692.684 LINE",
"161.347 638.231 LINE",
"107.762 658.763 LINE",
"117.983 602.297 LINE",
"57.578 620.253 LINE",
"91.256 566.99 LINE",
"38.223 554.439 LINE",
"66.287 507.722 LINE",
"12.842 475.996 LINE",
"56.609 431.868 LINE",
"14.19 412.53 LINE",
"55.753 391.415 LINE",
"-3.171 348.825 LINE",
"55.905 306.447 LINE",
"9.172 274.282 LINE",
"58.359 246.014 LINE",
"22.14 194.492 LINE",
"77.451 164.376 LINE",
"43.178 121.84 LINE",
"97.694 125.308 LINE",
"90.041 72.655 LINE",
"143.195 75.016 LINE",
"158.955 17.097 LINE",
"216.438 34.38 LINE",
"240.173 -27.234 LINE",
"290.151 15.916 LINE",
"320.362 -30.79 LINE",
"357.972 10.193 LINE"
);
},
{
closed = 1;
nodes = (
"153.812 361.502 LINE",
"113.14 349.694 LINE",
"94.08 386.302 LINE",
"120.952 408.257 LINE",
"148.201 397.248 LINE"
);
},
{
closed = 1;
nodes = (
"657.943 260.307 LINE",
"650.815 240.59 LINE",
"629.415 247.191 LINE",
"628.428 267.756 LINE",
"646.149 272.641 LINE"
);
},
{
closed = 1;
nodes = (
"537.053 173 LINE",
"511.971 155.634 LINE",
"496.121 181.7 LINE",
"506.205 210.493 LINE",
"533.606 198.052 LINE"
);
},
{
closed = 1;
nodes = (
"149 162.483 LINE",
"118.603 165.678 LINE",
"114.075 194.762 LINE",
"139.136 214.836 LINE",
"175.126 193.316 LINE"
);
},
{
closed = 1;
nodes = (
"373.354 597.787 LINE",
"342.964 608.027 LINE",
"330.417 632.465 LINE",
"355.436 648.996 LINE",
"378.908 631.309 LINE"
);
},
{
closed = 1;
nodes = (
"261.432 585.199 LINE",
"249.227 576.002 LINE",
"236.708 584.768 LINE",
"235.158 607.369 LINE",
"257.03 600.468 LINE"
);
},
{
closed = 1;
nodes = (
"574.772 88.332 LINE",
"561.849 87.881 LINE",
"556.465 100.308 LINE",
"567.616 107.993 LINE",
"583.975 102.814 LINE"
);
},
{
closed = 1;
nodes = (
"230.271 483.366 LINE",
"194.566 465.811 LINE",
"164 501 LINE",
"192.094 543.798 LINE",
"237.552 523.924 LINE"
);
},
{
closed = 1;
nodes = (
"549.999 300.878 LINE",
"544.462 296.218 LINE",
"536.447 296.411 LINE",
"538.208 304.611 LINE",
"544.953 306.673 LINE"
);
},
{
closed = 1;
nodes = (
"300.853 157.474 LINE",
"294.097 150.067 LINE",
"284.843 155.196 LINE",
"287.544 164.851 LINE",
"299.303 170.37 LINE"
);
},
{
closed = 1;
nodes = (
"495.686 323.179 LINE",
"466.91 316.385 LINE",
"453.496 345.152 LINE",
"476.344 369.776 LINE",
"508.096 353.101 LINE"
);
},
{
closed = 1;
nodes = (
"466.891 96.822 LINE",
"448.21 102.58 LINE",
"445.756 120.042 LINE",
"463.515 138.605 LINE",
"484.747 116.619 LINE"
);
},
{
closed = 1;
nodes = (
"428.455 637.744 LINE",
"418.686 623.003 LINE",
"403.699 636.322 LINE",
"410.396 653.287 LINE",
"430.434 656.174 LINE"
);
},
{
closed = 1;
nodes = (
"513.973 532.324 LINE",
"473.974 532.8 LINE",
"460.524 573.618 LINE",
"497.256 583.967 LINE",
"523.046 567.247 LINE"
);
},
{
closed = 1;
nodes = (
"613.893 514.227 LINE",
"589.155 513.903 LINE",
"574.993 541.751 LINE",
"604.308 555.966 LINE",
"631.978 538.765 LINE"
);
},
{
closed = 1;
nodes = (
"267.525 106.871 LINE",
"257.829 93.671 LINE",
"243 92.275 LINE",
"241.801 107.121 LINE",
"253.046 117.963 LINE"
);
}
);
width = 753;
}
);
leftKerningGroup = O;
rightKerningGroup = G;
unicode = 0047;
userData = {
com.typemytype.robofont.guides = (
{
angle = 0;
isGlobal = 0;
magnetic = 5;
x = 0;
y = "-10";
},
{
angle = 0;
isGlobal = 0;
magnetic = 5;
x = 0;
y = 260;
},
{
angle = 0;
isGlobal = 0;
magnetic = 5;
x = 0;
y = 440;
},
{
angle = 90;
isGlobal = 0;
magnetic = 5;
x = 334;
y = 0;
},
{
angle = 90;
isGlobal = 0;
magnetic = 5;
x = 133;
y = 0;
},
{
angle = 90;
isGlobal = 0;
magnetic = 5;
x = 604;
y = 0;
},
{
angle = 90;
isGlobal = 0;
magnetic = 5;
x = 67;
y = 0;
}
);
};
},
{
color = 1;
glyphname = H;
layers = (
{
layerId = "EC64484B-0978-4CB1-9EE9-C40A2D8C4059";
paths = (
{
closed = 1;
nodes = (
"102 -33 LINE",
"122 20 LINE",
"152 -26 LINE",
"182 20 LINE",
"222 -33 LINE",
"262 20 LINE",
"299.663 33.701 LINE",
"285 71 LINE",
"337 107 LINE",
"285 143 LINE",
"330 165 LINE",
"285 187 LINE",
"342 213 LINE",
"285 239 LINE",
"329.499 209.938 LINE",
"332.529 263 LINE",
"370.157 204 LINE",
"407.784 263 LINE",
"441.451 223 LINE",
"475.118 263 LINE",
"424.516 224.08 LINE",
"487 211 LINE",
"437 191 LINE",
"487 171 LINE",
"437 139 LINE",
"487 107 LINE",
"438.014 63.324 LINE",
"489 22 LINE",
"524.076 -30.98 LINE",
"562 20 LINE",
"588 -30 LINE",
"614 20 LINE",
"650 -25 LINE",
"686 20 LINE",
"748.631 41.411 LINE",
"697 82.827 LINE",
"747 124.698 LINE",
"697 166.568 LINE",
"753 194.481 LINE",
"697 222.395 LINE",
"749 250.309 LINE",
"697 278.222 LINE",
"743 302.148 LINE",
"697 326.074 LINE",
"742 348.006 LINE",
"697 369.938 LINE",
"747 407.821 LINE",
"697 445.704 LINE",
"747 483.586 LINE",
"697 521.469 LINE",
"750 543.401 LINE",
"697 565.333 LINE",
"737 591.253 LINE",
"697 617.173 LINE",
"743.706 657.727 LINE",
"686 680 LINE",
"658 734 LINE",
"630 680 LINE",
"596 722 LINE",
"562 680 LINE",
"513.761 726.476 LINE",
"487 665.069 LINE",
"433 645.241 LINE",
"487 625.414 LINE",
"431 593.69 LINE",
"487 561.966 LINE",
"442 526.276 LINE",
"487 490.586 LINE",
"432.175 488.239 LINE",
"463.235 443 LINE",
"431.549 489 LINE",
"399.863 443 LINE",
"360.255 490 LINE",
"320.647 443 LINE",
"350.044 502.166 LINE",
"285 490.586 LINE",
"329 510.414 LINE",
"285 530.241 LINE",
"339 561.966 LINE",
"285 593.69 LINE",
"338 615.5 LINE",
"285 637.31 LINE",
"333.729 672.628 LINE",
"274 680 LINE",
"254 732 LINE",
"234 680 LINE",
"208 723 LINE",
"182 680 LINE",
"140 725 LINE",
"98 680 LINE",
"49.032 662.303 LINE",
"75 617.173 LINE",
"23 579.29 LINE",
"75 541.407 LINE",
"17 503.525 LINE",
"75 465.642 LINE",
"22 433.741 LINE",
"75 401.84 LINE",
"19 381.901 LINE",
"75 361.963 LINE",
"25 322.086 LINE",
"75 282.21 LINE",
"33 250.309 LINE",
"75 218.407 LINE",
"32 194.481 LINE",
"75 170.556 LINE",
"29 148.623 LINE",
"75 126.691 LINE",
"16 88.809 LINE",
"75 50.926 LINE"
);
},
{
closed = 1;
nodes = (
"123.563 302.752 LINE",
"117.372 296.022 LINE",
"111.208 303.307 LINE",
"114.291 310.936 LINE",
"121.214 308.83 LINE"
);
},
{
closed = 1;
nodes = (
"582.396 609.662 LINE",
"549.622 607.908 LINE",
"522.141 633.225 LINE",
"550.902 665.077 LINE",
"580.429 642.876 LINE"
);
},
{
closed = 1;
nodes = (
"244.476 497.99 LINE",
"233.5 471.349 LINE",
"207.617 478.137 LINE",
"202.729 501.135 LINE",
"223.195 513.885 LINE"
);
},
{
closed = 1;
nodes = (
"685.35 251.187 LINE",
"620.813 205.01 LINE",
"570.36 257.212 LINE",
"599.057 305.766 LINE",
"646.073 304.945 LINE"
);
},
{
closed = 1;
nodes = (
"417.933 314.903 LINE",
"410.908 306.184 LINE",
"402.878 312.606 LINE",
"401.686 322.82 LINE",
"411.113 320.532 LINE"
);
},
{
closed = 1;
nodes = (
"331.943 333.307 LINE",
"321.298 321.874 LINE",
"309.453 325.439 LINE",
"305 339.211 LINE",
"320.599 347.59 LINE"
);
},
{
closed = 1;
nodes = (
"232.48 159.786 LINE",
"170.868 172.647 LINE",
"186.711 224.427 LINE",
"225.822 259.426 LINE",
"249.91 210.581 LINE"
);
},
{
closed = 1;
nodes = (
"126.928 57.344 LINE",
"112.499 39.513 LINE",
"95.142 51.274 LINE",
"92.906 72.121 LINE",
"115.033 75.569 LINE"
);
},
{
closed = 1;
nodes = (
"213.962 51.732 LINE",
"211.474 40.951 LINE",
"201.055 45.647 LINE",
"197.474 56.5 LINE",
"208.871 59.803 LINE"
);
},
{
closed = 1;
nodes = (
"576.981 110.716 LINE",
"544.635 106.82 LINE",
"531.056 131.604 LINE",
"548.92 150.376 LINE",
"577.745 144.838 LINE"
);
},
{
closed = 1;
nodes = (
"574.967 491.744 LINE",
"557.988 466.92 LINE",
"519.131 472.304 LINE",
"522.246 516.285 LINE",
"559.601 515.406 LINE"
);
},
{
closed = 1;
nodes = (
"408.161 367.195 LINE",
"368.827 357.914 LINE",
"361.325 401.543 LINE",
"395.518 417.96 LINE",
"425.876 397.541 LINE"
);
},
{
closed = 1;
nodes = (
"533.845 336.28 LINE",
"508.247 307.291 LINE",
"484.533 340.467 LINE",
"502.334 365.242 LINE",
"536.188 370.866 LINE"
);
},
{
closed = 1;
nodes = (
"451.903 287.92 LINE",
"436.859 279.545 LINE",
"426.021 294.215 LINE",
"435.624 309.004 LINE",
"448.771 301.293 LINE"
);
},
{
closed = 1;
nodes = (
"263.495 378.182 LINE",
"250.138 369.276 LINE",
"245.06 383.025 LINE",
"249.619 391.25 LINE",
"263.239 393.548 LINE"
);
},
{
closed = 1;
nodes = (
"189.544 595.761 LINE",
"151.13 596.403 LINE",
"145.092 635.946 LINE",
"177.681 643.836 LINE",
"207.394 628.297 LINE"
);
}
);
width = 772;
}
);
leftKerningGroup = I;
rightKerningGroup = I;
unicode = 0048;
userData = {
com.typemytype.robofont.guides = (
{
angle = 0;
isGlobal = 0;
magnetic = 5;
x = 0;
y = 350;
},
{
angle = 0;
isGlobal = 0;
magnetic = 5;
x = 0;
y = 9;
},
{
angle = 0;
isGlobal = 0;
magnetic = 5;
x = 0;
y = 691;
},
{
angle = 90;
isGlobal = 0;
magnetic = 5;
x = 94;
y = 0;
},
{
angle = 90;
isGlobal = 0;
magnetic = 5;
x = 139;
y = 0;
},
{
angle = 90;
isGlobal = 0;
magnetic = 5;
x = 543;
y = 0;
},
{
angle = 90;
isGlobal = 0;
magnetic = 5;
x = 588;
y = 0;
}
);
};
},
{
color = 1;
glyphname = Hbar;
layers = (
{
components = (
{
name = H;
}
);
hints = (
{
horizontal = 1;
place = "{-2147483648, 0}";
type = Tag;
name = hr00;
}
);
layerId = "EC64484B-0978-4CB1-9EE9-C40A2D8C4059";
paths = (
{
closed = 1;
nodes = (
"113.913 483 LINE",
"139.826 541 LINE",
"163.745 497 LINE",
"187.664 541 LINE",
"219.557 483 LINE",
"251.45 541 LINE",
"283.342 491 LINE",
"315.235 541 LINE",
"351.114 500 LINE",
"386.993 541 LINE",
"422.872 498 LINE",
"458.752 541 LINE",
"500.611 488 LINE",
"542.47 541 LINE",
"566.389 486 LINE",
"590.309 541 LINE",
"618.215 491 LINE",
"646.121 541 LINE",
"690.937 524.165 LINE",
"689 572 LINE",
"707.721 614.498 LINE",
"662.067 623 LINE",
"628.181 667 LINE",
"594.295 623 LINE",
"564.396 681 LINE",
"534.497 623 LINE",
"506.591 668 LINE",
"478.685 623 LINE",
"454.765 663 LINE",
"430.846 623 LINE",
"400.946 680 LINE",
"371.047 623 LINE",
"335.168 666 LINE",
"299.289 623 LINE",
"271.383 673 LINE",
"243.477 623 LINE",
"213.577 676 LINE",
"183.678 623 LINE",
"147.799 666 LINE",
"111.919 623 LINE",
"73.97 621.33 LINE",
"81 584 LINE"
);
},
{
closed = 1;
nodes = (
"205.541 556.908 LINE",
"196.645 559.026 LINE",
"194.232 565.654 LINE",
"199.686 572.995 LINE",
"208.457 567.078 LINE"
);
}
);
width = 772;
}
);
leftKerningGroup = I;
rightKerningGroup = I;
unicode = 0126;
},
{
color = 1;
glyphname = I;
layers = (
{
anchors = (
{
name = bottom;
position = "{184, 0}";
},
{
name = ogonek;
position = "{331, 10}";
},
{
name = top;
position = "{184, 700}";
},
{
name = topleft;
position = "{20, 700}";
}
);
layerId = "EC64484B-0978-4CB1-9EE9-C40A2D8C4059";
paths = (
{
closed = 1;
nodes = (
"102 -22 LINE",
"122 20 LINE",
"148 -28 LINE",
"174 20 LINE",
"210 -32 LINE",
"246 20 LINE",
"266 -21 LINE",
"286 20 LINE",
"341.808 32.907 LINE",
"293 62.889 LINE",
"333 84.821 LINE",
"293 106.753 LINE",
"335 134.667 LINE",
"293 162.58 LINE",
"347 196.475 LINE",
"293 230.37 LINE",
"350 252.302 LINE",
"293 274.235 LINE",
"348 312.117 LINE",
"293 350 LINE",
"348 371.932 LINE",
"293 393.864 LINE",
"348 429.753 LINE",
"293 465.642 LINE",
"337 505.519 LINE",
"293 545.395 LINE",
"349 571.315 LINE",
"293 597.235 LINE",
"346.297 643.421 LINE",
"286 680 LINE",
"262 738 LINE",
"238 680 LINE",
"210 737 LINE",
"182 680 LINE",
"148 736 LINE",
"114 680 LINE",
"71.266 683.843 LINE",
"75 641.099 LINE",
"28 603.216 LINE",
"75 565.333 LINE",
"22 537.42 LINE",
"75 509.506 LINE",
"25 473.617 LINE",
"75 437.728 LINE",
"31 395.858 LINE",
"75 353.988 LINE",
"24 322.086 LINE",
"75 290.185 LINE",
"32 248.315 LINE",
"75 206.444 LINE",
"24 164.574 LINE",
"75 122.704 LINE",
"31 90.802 LINE",
"75 58.901 LINE"
);
},
{
closed = 1;
nodes = (
"282.857 36.404 LINE",
"273.701 32.52 LINE",
"270.267 43.177 LINE",
"278.581 46.985 LINE",
"289.199 45.121 LINE"
);
},
{
closed = 1;
nodes = (
"227.407 133.293 LINE",
"184.801 85.038 LINE",
"142.782 135.321 LINE",
"150.652 201.887 LINE",
"233.175 207.101 LINE"
);
},
{
closed = 1;
nodes = (
"209.611 436.208 LINE",
"200.264 432.808 LINE",
"201.218 442.462 LINE",
"205.913 446 LINE",
"213.564 443.605 LINE"
);
},
{
closed = 1;
nodes = (
"184.664 383.006 LINE",
"175.732 384.968 LINE",
"172.239 391.812 LINE",
"178.686 395.992 LINE",
"187.402 393.225 LINE"
);
},
{
closed = 1;
nodes = (
"135.364 244.983 LINE",
"123 230 LINE",
"111.587 245.292 LINE",
"112.42 263.562 LINE",
"134.168 264.371 LINE"
);
},
{
closed = 1;
nodes = (
"269.757 434.222 LINE",
"255.948 423.136 LINE",
"241.417 430.863 LINE",
"235.939 455.703 LINE",
"264.798 457.308 LINE"
);
},
{
closed = 1;
nodes = (
"157.557 578.635 LINE",
"145.471 573.012 LINE",
"137.531 579.133 LINE",
"138.077 590.549 LINE",
"149.902 589.548 LINE"
);
},
{
closed = 1;
nodes = (
"163.777 476.814 LINE",
"137.454 459.004 LINE",
"116.199 477.838 LINE",
"125.566 500.174 LINE",
"147.324 499.745 LINE"
);
},
{
closed = 1;
nodes = (
"102.519 46.784 LINE",
"92.14 42.001 LINE",
"82.545 46.744 LINE",
"84.176 60.382 LINE",
"96.589 56.553 LINE"
);
},
{
closed = 1;
nodes = (
"164.794 34.5 LINE",
"155.545 32.153 LINE",
"147.055 37.955 LINE",
"154.153 45.395 LINE",
"162.202 43.684 LINE"
);
},
{
closed = 1;
nodes = (
"167.18 335.912 LINE",
"159.5 335.638 LINE",
"154.728 344.746 LINE",
"164.419 346.985 LINE",
"171.762 342.935 LINE"
);
},
{
closed = 1;
nodes = (
"268.432 302.406 LINE",
"255.5 275.349 LINE",
"228.279 280.651 LINE",
"215.594 309.202 LINE",
"246.345 328.825 LINE"
);
},
{
closed = 1;
nodes = (
"107.254 361.692 LINE",
"95.825 361.64 LINE",
"95.34 374 LINE",
"105.871 377.803 LINE",
"114.94 370.15 LINE"
);
}
);
width = 368;
}
);
leftKerningGroup = I;
rightKerningGroup = I;
unicode = 0049;
userData = {
com.typemytype.robofont.guides = (
{
angle = 90;
isGlobal = 0;
magnetic = 5;
x = 85;
y = 0;
},
{
angle = 90;
isGlobal = 0;
magnetic = 5;
x = 148;
y = 0;
}
);
};
},
{
color = 1;
glyphname = IJ;
layers = (
{
hints = (
{
horizontal = 1;
place = "{-2147483648, 0}";
type = Tag;
name = hr01;
}
);
layerId = "EC64484B-0978-4CB1-9EE9-C40A2D8C4059";
paths = (
{
closed = 1;
nodes = (
"453.99 -41.897 LINE",
"484.449 12.148 LINE",
"515.975 -33.603 LINE",
"536.506 18.026 LINE",
"570.337 -23.733 LINE",
"583.748 28.311 LINE",
"638.005 -5.925 LINE",
"650.08 57.084 LINE",
"709.46 54.837 LINE",
"705.963 114.156 LINE",
"767.855 113.519 LINE",
"725.228 158.397 LINE",
"785.935 170.525 LINE",
"735 205.711 LINE",
"778.47 244.252 LINE",
"738 285.933 LINE",
"794 321.846 LINE",
"738 357.76 LINE",
"784 385.692 LINE",
"738 413.625 LINE",
"784 445.548 LINE",
"738 477.471 LINE",
"795 497.423 LINE",
"738 517.375 LINE",
"782 549.298 LINE",
"738 581.221 LINE",
"792 613.144 LINE",
"738 645.067 LINE",
"743.647 690.022 LINE",
"699.462 680 LINE",
"679.75 731 LINE",
"660.038 680 LINE",
"638.356 736 LINE",
"616.673 680 LINE",
"591.048 738 LINE",
"565.423 680 LINE",
"519.881 682.709 LINE",
"519 637.096 LINE",
"466 611.165 LINE",
"519 585.234 LINE",
"463 547.335 LINE",
"519 509.436 LINE",
"470 483.505 LINE",
"519 457.574 LINE",
"463 423.665 LINE",
"519 389.755 LINE",
"471 353.851 LINE",
"519 317.947 LINE",
"469.067 282.843 LINE",
"510.632 238.145 LINE",
"451.873 248.397 LINE",
"456.134 188.903 LINE",
"410.703 207.342 LINE",
"413 158.366 LINE",
"378.7 119.098 LINE",
"413 79.829 LINE",
"384.3 56.268 LINE",
"413 32.707 LINE"
);
},
{
closed = 1;
nodes = (
"110 -22 LINE",
"138 20 LINE",
"172 -29 LINE",
"206 20 LINE",
"226 -20 LINE",
"246 20 LINE",
"266 -22 LINE",
"286 20 LINE",
"327.136 53.873 LINE",
"293 94.79 LINE",
"327.3 120.71 LINE",
"293 146.63 LINE",
"334.3 172.549 LINE",
"293 198.469 LINE",
"348 236.352 LINE",
"293 274.235 LINE",
"348 302.148 LINE",
"293 330.062 LINE",
"348 353.988 LINE",
"293 377.914 LINE",
"336 405.827 LINE",
"293 433.741 LINE",
"350 461.654 LINE",
"293 489.568 LINE",
"341 527.451 LINE",
"293 565.333 LINE",
"338 603.216 LINE",
"293 641.099 LINE",
"304.803 678.111 LINE",
"266 680 LINE",
"226 738 LINE",
"186 680 LINE",
"166 738 LINE",
"146 680 LINE",
"118 725 LINE",
"90 680 LINE",
"38.477 653.925 LINE",
"75 609.198 LINE",
"27 567.327 LINE",
"75 525.457 LINE",
"32 493.556 LINE",
"75 461.654 LINE",
"28 437.728 LINE",
"75 413.802 LINE",
"29 385.889 LINE",
"75 357.975 LINE",
"24 320.093 LINE",
"75 282.21 LINE",
"17 244.327 LINE",
"75 206.444 LINE",
"16 170.556 LINE",
"75 134.667 LINE",
"34 100.772 LINE",
"75 66.877 LINE"
);
},
{
closed = 1;
nodes = (
"711.787 294.569 LINE",
"700.783 277.195 LINE",
"683.619 289.986 LINE",
"688.275 307.071 LINE",
"708.328 316.425 LINE"
);
},
{
closed = 1;
nodes = (
"209.996 561.581 LINE",
"194.479 534.267 LINE",
"170.436 551.102 LINE",
"167.631 575.842 LINE",
"193.162 582.801 LINE"
);
},
{
closed = 1;
nodes = (
"566.474 56.368 LINE",
"558.306 58.272 LINE",
"556.362 65.052 LINE",
"562.244 69.996 LINE",
"568.729 64.929 LINE"
);
},
{
closed = 1;
nodes = (
"595.931 284.202 LINE",
"571.832 286.629 LINE",
"553.517 311.58 LINE",
"583 324 LINE",
"610.581 310.961 LINE"
);
},
{
closed = 1;
nodes = (
"645.737 410.317 LINE",
"593.698 393.561 LINE",
"576.005 438.576 LINE",
"594.966 483.903 LINE",
"633.575 455.207 LINE"
);
},
{
closed = 1;
nodes = (
"506.598 35.039 LINE",
"483.144 36.679 LINE",
"481.165 57.994 LINE",
"496.907 64.968 LINE",
"511.525 55.871 LINE"
);
},
{
closed = 1;
nodes = (
"221.414 169.253 LINE",
"183.123 153.141 LINE",
"160.79 197.205 LINE",
"199.466 217.784 LINE",
"229.283 201.256 LINE"
);
},
{
closed = 1;
nodes = (
"277.62 393.341 LINE",
"267.084 362.512 LINE",
"232.855 368.139 LINE",
"221.542 404.343 LINE",
"256.479 413.757 LINE"
);
},
{
closed = 1;
nodes = (
"626.476 620.492 LINE",
"615.419 600.004 LINE",
"595.144 617.163 LINE",
"605.973 635.98 LINE",
"623.604 636.287 LINE"
);
},
{
closed = 1;
nodes = (
"233.16 455.547 LINE",
"203.489 454.09 LINE",
"175.005 473.611 LINE",
"200.936 502.645 LINE",
"238.67 493.075 LINE"
);
},
{
closed = 1;
nodes = (
"130.977 394.89 LINE",
"118.3 382.797 LINE",
"101.566 383.931 LINE",
"99.743 403.259 LINE",
"117.106 405.591 LINE"
);
},
{
closed = 1;
nodes = (
"117.566 300.815 LINE",
"99.967 293.431 LINE",
"87.076 311.743 LINE",
"101.826 332.411 LINE",
"122.429 319.271 LINE"
);
},
{
closed = 1;
nodes = (
"459.632 58.231 LINE",
"449.581 53.297 LINE",
"440.029 62.163 LINE",
"447.13 75.053 LINE",
"458.128 68.142 LINE"
);
},
{
closed = 1;
nodes = (
"542.178 360.763 LINE",
"533.343 361.343 LINE",
"530.09 371.54 LINE",
"539.939 372.926 LINE",
"549.865 368.721 LINE"
);
}
);
width = 807;
}
);
leftKerningGroup = I;
unicode = 0132;
userData = {
com.typemytype.robofont.guides = (
{
angle = 90;
isGlobal = 0;
magnetic = 5;
x = 642;
y = 0;
}
);
};
},
{
color = 1;
glyphname = Iogonek;
layers = (
{
hints = (
{
horizontal = 1;
place = "{-2147483648, 0}";
type = Tag;
name = hr01;
}
);
layerId = "EC64484B-0978-4CB1-9EE9-C40A2D8C4059";
paths = (
{
closed = 1;
nodes = (
"319.906 -180.224 LINE",
"293 -135 LINE",
"278.632 -83.841 LINE",
"229.844 -104.898 LINE",
"268.14 -52.85 LINE",
"209.555 -25.585 LINE",
"256.324 -34.101 LINE",
"233.13 7.395 LINE",
"282.129 -29.188 LINE",
"293 30.988 LINE",
"340 64.883 LINE",
"293 98.778 LINE",
"339 134.667 LINE",
"293 170.556 LINE",
"335 190.494 LINE",
"293 210.432 LINE",
"346 236.352 LINE",
"293 262.272 LINE",
"345 294.173 LINE",
"293 326.074 LINE",
"337 353.988 LINE",
"293 381.901 LINE",
"336 417.79 LINE",
"293 453.679 LINE",
"333 483.586 LINE",
"293 513.494 LINE",
"350 545.395 LINE",
"293 577.296 LINE",
"336 609.198 LINE",
"293 641.099 LINE",
"287.029 686.152 LINE",
"242 680 LINE",
"208 727 LINE",
"174 680 LINE",
"138 738 LINE",
"102 680 LINE",
"54.571 684.098 LINE",
"75 641.099 LINE",
"30 603.216 LINE",
"75 565.333 LINE",
"22 539.414 LINE",
"75 513.494 LINE",
"33 485.58 LINE",
"75 457.667 LINE",
"31 429.753 LINE",
"75 401.84 LINE",
"34 365.951 LINE",
"75 330.062 LINE",
"16 298.16 LINE",
"75 266.259 LINE",
"23 236.352 LINE",
"75 206.444 LINE",
"16 178.531 LINE",
"75 150.617 LINE",
"19 116.722 LINE",
"75 82.827 LINE",
"23 60.895 LINE",
"75 38.963 LINE",
"66.054 -9.303 LINE",
"107.5 17 LINE",
"62.557 -27.543 LINE",
"120.032 -54.012 LINE",
"79.999 -95.913 LINE",
"132.391 -120.679 LINE",
"97.16 -168.277 LINE",
"155.482 -158.013 LINE",
"139.724 -219.693 LINE",
"193.975 -186.384 LINE",
"208.34 -240.932 LINE",
"247.973 -200.794 LINE"
);
},
{
closed = 1;
nodes = (
"181.551 40.508 LINE",
"149.36 45.53 LINE",
"151.445 78.539 LINE",
"182.647 97.644 LINE",
"194.987 64.768 LINE"
);
},
{
closed = 1;
nodes = (
"245.08 573.18 LINE",
"226.808 581.808 LINE",
"216.398 600.988 LINE",
"238.816 608.778 LINE",
"252.791 593.659 LINE"
);
},
{
closed = 1;
nodes = (
"244.901 202.734 LINE",
"226.423 172.846 LINE",
"195 190.579 LINE",
"197.113 224.026 LINE",
"231.503 234.456 LINE"
);
},
{
closed = 1;
nodes = (
"174.185 339.22 LINE",
"123.324 332.545 LINE",
"112.153 372.927 LINE",
"129.189 420.864 LINE",
"174.641 390 LINE"
);
},
{
closed = 1;
nodes = (
"151.577 482.689 LINE",
"110.48 484.374 LINE",
"98.89 538.078 LINE",
"151.647 542.644 LINE",
"175.979 510.187 LINE"
);
},
{
closed = 1;
nodes = (
"157.927 156.093 LINE",
"133.994 139.165 LINE",
"114.977 143.073 LINE",
"110.191 165.128 LINE",
"134.774 181.168 LINE"
);
},
{
closed = 1;
nodes = (
"152.181 214.897 LINE",
"138.009 215.775 LINE",
"130.477 228.623 LINE",
"143.215 239.979 LINE",
"156.137 229.659 LINE"
);
},
{
closed = 1;
nodes = (
"171.761 581.188 LINE",
"165.314 577.008 LINE",
"157.531 580.133 LINE",
"160.595 588.44 LINE",
"168.268 588.032 LINE"
);
},
{
closed = 1;
nodes = (
"236.976 538.302 LINE",
"228.693 532.208 LINE",
"218.52 533.701 LINE",
"218.574 546.071 LINE",
"230.746 548.272 LINE"
);
}
);
width = 368;
}
);
leftKerningGroup = I;
rightKerningGroup = I;
unicode = 012E;
userData = {
com.typemytype.robofont.guides = (
{
angle = 90;
isGlobal = 0;
magnetic = 5;
x = 110;
y = 0;
}
);
};
},
{
color = 1;
glyphname = J;
layers = (
{
hints = (
{
horizontal = 1;
place = "{-2147483648, 0}";
type = Tag;
name = hr00;
}
);
layerId = "EC64484B-0978-4CB1-9EE9-C40A2D8C4059";
paths = (
{
closed = 1;
nodes = (
"350.993 -39.12 LINE",
"371.17 11.687 LINE",
"408.094 -33.522 LINE",
"430.8 20.253 LINE",
"487.633 -15.029 LINE",
"510.287 47.912 LINE",
"557.719 13.95 LINE",
"547.662 71.414 LINE",
"601.739 42.392 LINE",
"577.159 98.628 LINE",
"637.983 108.871 LINE",
"618.065 167.247 LINE",
"672.01 176.032 LINE",
"629.172 209.976 LINE",
"676.903 228.017 LINE",
"632.975 253.98 LINE",
"677.988 277.914 LINE",
"633 301.894 LINE",
"692 341.798 LINE",
"633 381.702 LINE",
"678 417.615 LINE",
"633 453.529 LINE",
"680 477.471 LINE",
"633 501.413 LINE",
"677 527.351 LINE",
"633 553.288 LINE",
"678 587.207 LINE",
"633 621.125 LINE",
"647.573 663.357 LINE",
"606.113 680 LINE",
"580.259 732 LINE",
"554.406 680 LINE",
"526.564 737 LINE",
"498.722 680 LINE",
"474.857 732 LINE",
"450.992 680 LINE",
"427.128 738 LINE",
"403.263 680 LINE",
"381.387 735 LINE",
"359.511 680 LINE",
"329.68 727 LINE",
"299.85 680 LINE",
"275.985 725 LINE",
"252.12 680 LINE",
"230.244 721 LINE",
"208.368 680 LINE",
"178.538 720 LINE",
"148.707 680 LINE",
"111.306 717.797 LINE",
"90 669.079 LINE",
"46 647.513 LINE",
"90 625.947 LINE",
"42 604.382 LINE",
"90 582.816 LINE",
"73.651 540.265 LINE",
"112.85 517 LINE",
"144.55 472 LINE",
"176.25 517 LINE",
"209.931 459 LINE",
"243.613 517 LINE",
"263.425 476 LINE",
"283.238 517 LINE",
"320.881 459 LINE",
"358.525 517 LINE",
"380.319 472 LINE",
"402.112 517 LINE",
"359.301 482.274 LINE",
"414 489.111 LINE",
"355 453.254 LINE",
"414 417.397 LINE",
"365 383.532 LINE",
"414 349.667 LINE",
"364 329.746 LINE",
"414 309.825 LINE",
"369 289.905 LINE",
"414 269.984 LINE",
"350.987 245.926 LINE",
"399.717 199.292 LINE",
"341.039 232.876 LINE",
"343.108 165.298 LINE",
"326.654 221.247 LINE",
"285.009 180.421 LINE",
"301.735 228.481 LINE",
"250.934 231.447 LINE",
"239.657 291.642 LINE",
"212 237 LINE",
"182 282 LINE",
"152 237 LINE",
"116 281 LINE",
"80 237 LINE",
"39.242 272.075 LINE",
"30.971 218.942 LINE",
"-2.887 186.798 LINE",
"41.368 171.927 LINE",
"5.938 124.667 LINE",
"64.998 125.447 LINE",
"45.158 76.503 LINE",
"96.475 88.983 LINE",
"99.57 34.196 LINE",
"152.207 49.705 LINE",
"157.722 -16.31 LINE",
"207.957 26.873 LINE",
"216.499 -22.595 LINE",
"246.999 17.277 LINE"
);
},
{
closed = 1;
nodes = (
"479.708 604.947 LINE",
"465.365 597.734 LINE",
"459 612 LINE",
"467.219 620.56 LINE",
"479.708 619.053 LINE"
);
},
{
closed = 1;
nodes = (
"161.344 197.237 LINE",
"148 163.287 LINE",
"115.272 172.421 LINE",
"102.767 204.016 LINE",
"135.449 223.819 LINE"
);
},
{
closed = 1;
nodes = (
"582.044 391.196 LINE",
"521.422 402.474 LINE",
"486.583 463.727 LINE",
"553.931 494.923 LINE",
"589.637 449.353 LINE"
);
},
{
closed = 1;
nodes = (
"241.489 83.351 LINE",
"195.92 51.403 LINE",
"167.007 103.215 LINE",
"200.605 137.093 LINE",
"248.737 131.683 LINE"
);
},
{
closed = 1;
nodes = (
"377.968 574.093 LINE",
"368.629 560.446 LINE",
"345.495 562.812 LINE",
"351.977 585.927 LINE",
"373.241 595.398 LINE"
);
},
{
closed = 1;
nodes = (
"267.461 609.954 LINE",
"234.42 597.517 LINE",
"217 627 LINE",
"237.511 646.972 LINE",
"263.416 641.107 LINE"
);
},
{
closed = 1;
nodes = (
"560.099 179.444 LINE",
"502.694 153.634 LINE",
"476.097 204.21 LINE",
"500.267 245.942 LINE",
"548.174 233.997 LINE"
);
},
{
closed = 1;
nodes = (
"429.968 130.907 LINE",
"420.371 121.655 LINE",
"411.638 125.5 LINE",
"410.216 134.239 LINE",
"419.903 141.644 LINE"
);
},
{
closed = 1;
nodes = (
"480.776 324.344 LINE",
"455.579 304.441 LINE",
"433.508 318.304 LINE",
"432.716 345.05 LINE",
"459.875 347.032 LINE"
);
},
{
closed = 1;
nodes = (
"335.496 26.417 LINE",
"323.558 14.01 LINE",
"310.784 25.554 LINE",
"314.996 40.244 LINE",
"327.474 36.632 LINE"
);
}
);
width = 702;
}
);
leftKerningGroup = J;
rightKerningGroup = U;
unicode = 004A;
userData = {
com.typemytype.robofont.guides = (
{
angle = 0;
isGlobal = 0;
magnetic = 5;
x = 0;
y = "-10";
},
{
angle = 0;
isGlobal = 0;
magnetic = 5;
x = 0;
y = 133;
},
{
angle = 0;
isGlobal = 0;
magnetic = 5;
x = 0;
y = 677;
},
{
angle = 90;
isGlobal = 0;
magnetic = 5;
x = 303;
y = 0;
},
{
angle = 90;
isGlobal = 0;
magnetic = 5;
x = 60;
y = 0;
},
{
angle = 90;
isGlobal = 0;
magnetic = 5;
x = 91;
y = 0;
}
);
};
},
{
color = 1;
glyphname = K;
layers = (
{
layerId = "EC64484B-0978-4CB1-9EE9-C40A2D8C4059";
paths = (
{
closed = 1;
nodes = (
"107.865 -25 LINE",
"133.729 20 LINE",
"155.615 -35 LINE",
"177.5 20 LINE",
"219.281 -38 LINE",
"261.062 20 LINE",
"308.555 31.064 LINE",
"280 70.593 LINE",
"317.8 94.37 LINE",
"280 118.148 LINE",
"320.6 143.907 LINE",
"280 169.667 LINE",
"320.6 195.426 LINE",
"280 221.185 LINE",
"315.972 180.048 LINE",
"326.762 233.619 LINE",
"305.763 196.675 LINE",
"348.238 195.381 LINE",
"331.876 147.323 LINE",
"381.429 136.286 LINE",
"373.488 86.098 LINE",
"420.476 66.762 LINE",
"427.231 19.47 LINE",
"475 20 LINE",
"515 -21 LINE",
"555 20 LINE",
"581 -22 LINE",
"607 20 LINE",
"631 -38 LINE",
"655 20 LINE",
"694.743 27.28 LINE",
"670.67 59.73 LINE",
"706.682 108.832 LINE",
"646.31 100.89 LINE",
"670.12 145.086 LINE",
"619.92 145.48 LINE",
"634.904 200.662 LINE",
"579.32 214.08 LINE",
"607.521 272.453 LINE",
"542.78 275.82 LINE",
"562.773 336.282 LINE",
"500.15 347.85 LINE",
"557.187 363.205 LINE",
"510.217 399.022 LINE",
"561.033 396.446 LINE",
"534.478 439.848 LINE",
"594.495 441.012 LINE",
"566.826 494.283 LINE",
"630.13 491.191 LINE",
"597.152 545.315 LINE",
"661.213 553.283 LINE",
"637.587 613.359 LINE",
"697.047 619.457 LINE",
"673.978 674.598 LINE",
"646.767 728.113 LINE",
"610.857 680 LINE",
"571.393 722 LINE",
"531.929 680 LINE",
"502.33 729 LINE",
"472.732 680 LINE",
"424.838 679.645 LINE",
"411.678 633.593 LINE",
"350.48 643.069 LINE",
"390.424 595.746 LINE",
"354.162 591.218 LINE",
"369.169 557.898 LINE",
"325.179 539.608 LINE",
"332.458 492.525 LINE",
"293.41 521.87 LINE",
"283.7 474 LINE",
"318.797 497.667 LINE",
"280 514.6 LINE",
"312.9 534.4 LINE",
"280 554.2 LINE",
"314.3 587.86 LINE",
"280 621.52 LINE",
"316.4 645.28 LINE",
"280 669.04 LINE",
"257.974 713.841 LINE",
"221.271 680 LINE",
"189.438 738 LINE",
"157.604 680 LINE",
"129.75 736 LINE",
"101.896 680 LINE",
"59.926 689.343 LINE",
"75 649.074 LINE",
"18 609.198 LINE",
"75 569.321 LINE",
"22 531.438 LINE",
"75 493.556 LINE",
"26 471.623 LINE",
"75 449.691 LINE",
"23 429.753 LINE",
"75 409.815 LINE",
"16 373.926 LINE",
"75 338.037 LINE",
"20 300.154 LINE",
"75 262.272 LINE",
"35 220.401 LINE",
"75 178.531 LINE",
"25 154.605 LINE",
"75 130.679 LINE",
"16 106.753 LINE",
"75 82.827 LINE"
);
},
{
closed = 1;
nodes = (
"171.998 46.262 LINE",
"164.488 24.253 LINE",
"147.416 38.778 LINE",
"146.351 53.456 LINE",
"163.432 67.039 LINE"
);
},
{
closed = 1;
nodes = (
"174.285 280.743 LINE",
"152.872 275.191 LINE",
"145.564 297.597 LINE",
"162.954 307.963 LINE",
"179.762 299.368 LINE"
);
},
{
closed = 1;
nodes = (
"545 146 LINE",
"536.944 130.783 LINE",
"517.438 135.42 LINE",
"521.483 153.641 LINE",
"536.635 160.266 LINE"
);
},
{
closed = 1;
nodes = (
"460.454 324.198 LINE",
"450.5 293.885 LINE",
"416.595 297.449 LINE",
"414.075 328.762 LINE",
"437.882 336.901 LINE"
);
},
{
closed = 1;
nodes = (
"445.507 496.81 LINE",
"431.929 494.275 LINE",
"434.053 508.225 LINE",
"443.389 511.878 LINE",
"450.912 505.253 LINE"
);
},
{
closed = 1;
nodes = (
"498.76 106.713 LINE",
"489.359 96.071 LINE",
"476.124 103.712 LINE",
"478.632 119.404 LINE",
"494 119.392 LINE"
);
},
{
closed = 1;
nodes = (
"185.303 406.961 LINE",
"178.625 386.248 LINE",
"149.53 378.36 LINE",
"145.447 410.208 LINE",
"168.593 418.99 LINE"
);
},
{
closed = 1;
nodes = (
"211.041 544.52 LINE",
"160.041 516.487 LINE",
"118.744 557.491 LINE",
"149.63 598.669 LINE",
"188.534 588.3 LINE"
);
},
{
closed = 1;
nodes = (
"316.36 343.825 LINE",
"305 345.072 LINE",
"300.197 353.871 LINE",
"308.164 359.956 LINE",
"318.135 356.067 LINE"
);
},
{
closed = 1;
nodes = (
"487.621 616.667 LINE",
"475.901 611.202 LINE",
"464.104 620.294 LINE",
"472.929 632.876 LINE",
"488.97 632.23 LINE"
);
},
{
closed = 1;
nodes = (
"498 250 LINE",
"491.635 235.734 LINE",
"478.91 244.122 LINE",
"471.629 261.168 LINE",
"490.399 260.462 LINE"
);
},
{
closed = 1;
nodes = (
"252.744 620.75 LINE",
"243.872 613.038 LINE",
"233.795 619.093 LINE",
"237.095 629.792 LINE",
"247.635 630.715 LINE"
);
},
{
closed = 1;
nodes = (
"185.242 177.528 LINE",
"157.571 183.267 LINE",
"154.356 213.705 LINE",
"183.212 222.182 LINE",
"192.978 199.837 LINE"
);
},
{
closed = 1;
nodes = (
"630.819 648.449 LINE",
"605.321 628.556 LINE",
"581.651 630.279 LINE",
"573.751 659 LINE",
"602.366 665.541 LINE"
);
},
{
closed = 1;
nodes = (
"530.331 501.795 LINE",
"508.56 482.107 LINE",
"490.538 505.276 LINE",
"502.244 524.572 LINE",
"520.841 521.321 LINE"
);
},
{
closed = 1;
nodes = (
"563.071 592.929 LINE",
"551.46 591.09 LINE",
"544.148 601.877 LINE",
"553.81 613.828 LINE",
"564.019 604.086 LINE"
);
},
{
closed = 1;
nodes = (
"192.847 669.455 LINE",
"188.5 663.67 LINE",
"180.647 662.055 LINE",
"180.519 670.44 LINE",
"186.523 672.973 LINE"
);
}
);
width = 715;
}
);
leftKerningGroup = I;
rightKerningGroup = K;
unicode = 004B;
userData = {
com.typemytype.robofont.guides = (
{
angle = 0;
isGlobal = 0;
magnetic = 5;
x = 0;
y = 365;
},
{
angle = 90;
isGlobal = 0;
magnetic = 5;
x = 547;
y = 0;
},
{
angle = 90;
isGlobal = 0;
magnetic = 5;
x = 94;
y = 0;
},
{
angle = 90;
isGlobal = 0;
magnetic = 5;
x = 139;
y = 0;
}
);
};
},
{
color = 1;
glyphname = L;
layers = (
{
anchors = (
{
name = bottom;
position = "{313, 0}";
},
{
name = center;
position = "{313, 350}";
},
{
name = top;
position = "{173, 700}";
},
{
name = topright;
position = "{606, 700}";
}
);
layerId = "EC64484B-0978-4CB1-9EE9-C40A2D8C4059";
paths = (
{
closed = 1;
nodes = (
"106 -22 LINE",
"130 20 LINE",
"156 -39 LINE",
"182 20 LINE",
"208 -33 LINE",
"234 20 LINE",
"260 -22 LINE",
"286 20 LINE",
"306 -27 LINE",
"326 20 LINE",
"356 -25 LINE",
"386 20 LINE",
"422 -27 LINE",
"458 20 LINE",
"488 -37 LINE",
"518 20 LINE",
"548 -26 LINE",
"578 20 LINE",
"642.661 34.712 LINE",
"593 78.658 LINE",
"647 104.487 LINE",
"593 130.316 LINE",
"649 152.171 LINE",
"593 174.026 LINE",
"567.464 225.884 LINE",
"526.6 185 LINE",
"490.96 230 LINE",
"455.32 185 LINE",
"431.56 241 LINE",
"407.8 185 LINE",
"380.08 237 LINE",
"352.36 185 LINE",
"328.682 233.249 LINE",
"289 197 LINE",
"334 235 LINE",
"289 273 LINE",
"335 297 LINE",
"289 321 LINE",
"331 361 LINE",
"289 401 LINE",
"337 427 LINE",
"289 453 LINE",
"337 491 LINE",
"289 529 LINE",
"337 569 LINE",
"289 609 LINE",
"337.979 644.949 LINE",
"287 678 LINE",
"254.151 735.976 LINE",
"218 680 LINE",
"184 734 LINE",
"150 680 LINE",
"128 724 LINE",
"106 680 LINE",
"72.173 693.279 LINE",
"75 657.049 LINE",
"22 623.154 LINE",
"75 589.259 LINE",
"34 565.333 LINE",
"75 541.407 LINE",
"24 501.531 LINE",
"75 461.654 LINE",
"25 429.753 LINE",
"75 397.852 LINE",
"18 377.914 LINE",
"75 357.975 LINE",
"21 332.056 LINE",
"75 306.136 LINE",
"29 284.204 LINE",
"75 262.272 LINE",
"16 240.34 LINE",
"75 218.407 LINE",
"17 188.5 LINE",
"75 158.593 LINE",
"22 128.685 LINE",
"75 98.778 LINE"
);
},
{
closed = 1;
nodes = (
"153.16 219.875 LINE",
"109.076 217.448 LINE",
"101.566 258.889 LINE",
"132 286 LINE",
"163.385 259.198 LINE"
);
},
{
closed = 1;
nodes = (
"211.571 567.889 LINE",
"144.186 543.363 LINE",
"123.023 600.674 LINE",
"147.661 638.648 LINE",
"213.797 643.249 LINE"
);
},
{
closed = 1;
nodes = (
"536.848 90.514 LINE",
"502.399 70.615 LINE",
"473 79.579 LINE",
"470.585 116.962 LINE",
"509.113 122.536 LINE"
);
},
{
closed = 1;
nodes = (
"192.257 85.931 LINE",
"161.613 68.137 LINE",
"127.026 78.764 LINE",
"137.588 116.781 LINE",
"175.5 121.579 LINE"
);
},
{
closed = 1;
nodes = (
"423.239 58.5 LINE",
"378.723 45.765 LINE",
"356.164 76.864 LINE",
"367.697 121.11 LINE",
"412.753 104.089 LINE"
);
},
{
closed = 1;
nodes = (
"254.716 306.703 LINE",
"247.5 294.474 LINE",
"229.956 290.623 LINE",
"228.297 310.101 LINE",
"243.672 319.912 LINE"
);
},
{
closed = 1;
nodes = (
"180.994 368.651 LINE",
"175.961 351.697 LINE",
"157.735 360.053 LINE",
"158.392 378.851 LINE",
"175.104 380.276 LINE"
);
},
{
closed = 1;
nodes = (
"236.521 460.429 LINE",
"193.63 450.74 LINE",
"201.277 495.145 LINE",
"233.467 524.347 LINE",
"259.669 486.732 LINE"
);
}
);
width = 626;
}
);
leftKerningGroup = I;
rightKerningGroup = L;
unicode = 004C;
},
{
color = 1;
glyphname = Lslash;
layers = (
{
hints = (
{
horizontal = 1;
place = "{-2147483648, 0}";
type = Tag;
name = hr00;
}
);
layerId = "EC64484B-0978-4CB1-9EE9-C40A2D8C4059";
paths = (
{
closed = 1;
nodes = (
"110 -34 LINE",
"130 20 LINE",
"154 -38 LINE",
"178 20 LINE",
"206 -36 LINE",
"234 20 LINE",
"260 -37 LINE",
"286 20 LINE",
"328 -32 LINE",
"370 20 LINE",
"394 -37 LINE",
"418 20 LINE",
"446 -20 LINE",
"474 20 LINE",
"504 -21 LINE",
"534 20 LINE",
"572.903 -28.218 LINE",
"601 27 LINE",
"641 62.763 LINE",
"601 98.526 LINE",
"645 120.382 LINE",
"601 142.237 LINE",
"649.804 172.18 LINE",
"594 185 LINE",
"558.36 238 LINE",
"522.72 185 LINE",
"502.92 242 LINE",
"483.12 185 LINE",
"447.48 243 LINE",
"411.84 185 LINE",
"386.1 225.6 LINE",
"360.36 185 LINE",
"332.576 220.207 LINE",
"297 192.897 LINE",
"339 224.487 LINE",
"297 256.077 LINE",
"344 287.667 LINE",
"297 319.256 LINE",
"344.948 308.518 LINE",
"344.478 357.652 LINE",
"387.599 312.277 LINE",
"388.304 374.87 LINE",
"439.82 345.685 LINE",
"457.696 402.13 LINE",
"513.37 422.621 LINE",
"474 467 LINE",
"532 489 LINE",
"474 511 LINE",
"450.68 556.654 LINE",
"428.745 510.319 LINE",
"388.624 542.984 LINE",
"381.17 491.787 LINE",
"335.733 505.64 LINE",
"311.638 464.702 LINE",
"352.983 502.662 LINE",
"297 498.63 LINE",
"343 536.278 LINE",
"297 573.926 LINE",
"355 607.611 LINE",
"297 641.296 LINE",
"333.845 667.945 LINE",
"290 680 LINE",
"250 724 LINE",
"210 680 LINE",
"174 721 LINE",
"138 680 LINE",
"104.061 727.092 LINE",
"83 673 LINE",
"30 643.1 LINE",
"83 613.2 LINE",
"39 573.333 LINE",
"83 533.467 LINE",
"35 507.553 LINE",
"83 481.64 LINE",
"33 461.707 LINE",
"83 441.773 LINE",
"18.171 416.062 LINE",
"69.333 368.667 LINE",
"25.828 356.58 LINE",
"33 312 LINE",
"-24 278 LINE",
"33 244 LINE",
"63.852 207.748 LINE",
"79.538 252.692 LINE",
"35.325 215.244 LINE",
"83 182.316 LINE",
"31 152.447 LINE",
"83 122.579 LINE",
"39 86.737 LINE",
"83 50.895 LINE"
);
},
{
closed = 1;
nodes = (
"231.414 86.213 LINE",
"179.951 85.199 LINE",
"141.296 124.645 LINE",
"184.604 167.907 LINE",
"244.363 147.5 LINE"
);
},
{
closed = 1;
nodes = (
"290.877 515.71 LINE",
"226.802 443.782 LINE",
"131.834 454.99 LINE",
"127.197 558.928 LINE",
"217.564 572.819 LINE"
);
},
{
closed = 1;
nodes = (
"176.641 224.785 LINE",
"146.342 228.343 LINE",
"125.01 255.225 LINE",
"156.465 268.946 LINE",
"185.816 258.238 LINE"
);
},
{
closed = 1;
nodes = (
"486 86 LINE",
"479.399 75.538 LINE",
"463.056 76.595 LINE",
"463.865 94.817 LINE",
"479.09 95.511 LINE"
);
},
{
closed = 1;
nodes = (
"221.243 261.757 LINE",
"212.006 256.199 LINE",
"211.074 266.939 LINE",
"215.592 274.889 LINE",
"222.346 268.724 LINE"
);
},
{
closed = 1;
nodes = (
"282.93 425.49 LINE",
"276.007 430.991 LINE",
"272.628 439.162 LINE",
"282.339 441.65 LINE",
"288.999 434.157 LINE"
);
},
{
closed = 1;
nodes = (
"268.476 213.508 LINE",
"265.604 197.713 LINE",
"246.769 196.423 LINE",
"241.872 215.209 LINE",
"257.262 224.998 LINE"
);
},
{
closed = 1;
nodes = (
"189.126 354.702 LINE",
"177.518 342.065 LINE",
"168.282 356.526 LINE",
"172.82 369.286 LINE",
"190.809 372.585 LINE"
);
},
{
closed = 1;
nodes = (
"449.508 128.134 LINE",
"433.661 123.405 LINE",
"427.097 138.584 LINE",
"437.329 150.743 LINE",
"447.872 141.363 LINE"
);
},
{
closed = 1;
nodes = (
"121.978 164.372 LINE",
"115.661 154.327 LINE",
"107.912 161.82 LINE",
"106.872 170.142 LINE",
"115.248 170.563 LINE"
);
},
{
closed = 1;
nodes = (
"402.5 56.349 LINE",
"371.933 57.935 LINE",
"376.297 84.101 LINE",
"392.613 102.863 LINE",
"412.497 82.782 LINE"
);
},
{
closed = 1;
nodes = (
"533.87 32.947 LINE",
"518.275 36 LINE",
"515.431 53.479 LINE",
"531.661 55.673 LINE",
"543.963 46.046 LINE"
);
}
);
width = 634;
}
);
leftKerningGroup = I;
rightKerningGroup = L;
unicode = 0141;
userData = {
com.typemytype.robofont.guides = (
{
angle = 0;
isGlobal = 0;
magnetic = 5;
x = 0;
y = 215;
},
{
angle = 0;
isGlobal = 0;
magnetic = 5;
x = 0;
y = 548;
},
{
angle = 0;
isGlobal = 0;
magnetic = 5;
x = 0;
y = 438;
},
{
angle = 0;
isGlobal = 0;
magnetic = 5;
x = 0;
y = 267;
},
{
angle = 0;
isGlobal = 0;
magnetic = 5;
x = 0;
y = 353;
},
{
angle = 90;
isGlobal = 0;
magnetic = 5;
x = 129;
y = 0;
},
{
angle = 90;
isGlobal = 0;
magnetic = 5;
x = 325;
y = 0;
},
{
angle = 90;
isGlobal = 0;
magnetic = 5;
x = "-5";
y = 0;
}
);
};
},
{
color = 1;
glyphname = M;
layers = (
{
hints = (
{
horizontal = 1;
place = "{-2147483648, 0}";
type = Tag;
name = hr00;
}
);
layerId = "EC64484B-0978-4CB1-9EE9-C40A2D8C4059";
paths = (
{
closed = 1;
nodes = (
"117.413 -38 LINE",
"152.826 20 LINE",
"188.239 -34 LINE",
"223.652 20 LINE",
"260.186 -30.955 LINE",
"270 30.971 LINE",
"321 68.696 LINE",
"270 106.42 LINE",
"314 148.116 LINE",
"270 189.812 LINE",
"302.2 231.507 LINE",
"270 273.203 LINE",
"309.135 276.497 LINE",
"281.1 304 LINE",
"293.194 260.671 LINE",
"313.188 300.969 LINE",
"291.924 264.773 LINE",
"333.812 267.531 LINE",
"310.166 229.866 LINE",
"354.438 234.094 LINE",
"353.008 190.182 LINE",
"396.889 188 LINE",
"429.944 148 LINE",
"463 188 LINE",
"505.738 188.467 LINE",
"499.5 230.75 LINE",
"551.426 240.264 LINE",
"536.625 290.938 LINE",
"567.067 264.345 LINE",
"574.9 304 LINE",
"542.623 267.537 LINE",
"586 245.406 LINE",
"554.5 223.565 LINE",
"586 201.725 LINE",
"538 177.899 LINE",
"586 154.072 LINE",
"544 126.275 LINE",
"586 98.478 LINE",
"539.016 58.984 LINE",
"588 22 LINE",
"628.797 -22.987 LINE",
"671.696 20 LINE",
"707.109 -23 LINE",
"742.522 20 LINE",
"780.629 6.518 LINE",
"781 46.938 LINE",
"829 76.846 LINE",
"781 106.753 LINE",
"829 128.685 LINE",
"781 150.617 LINE",
"830 188.5 LINE",
"781 226.383 LINE",
"833 256.29 LINE",
"781 286.198 LINE",
"821 328.068 LINE",
"781 369.938 LINE",
"830 411.809 LINE",
"781 453.679 LINE",
"828 489.568 LINE",
"781 525.457 LINE",
"833 553.37 LINE",
"781 581.284 LINE",
"840 615.179 LINE",
"781 649.074 LINE",
"775.582 691.349 LINE",
"734.5 680 LINE",
"696.975 727 LINE",
"659.45 680 LINE",
"629.035 737.643 LINE",
"604.129 677.415 LINE",
"542.917 671.241 LINE",
"559.241 611.924 LINE",
"504.961 616.773 LINE",
"534.633 571.063 LINE",
"481.898 572.662 LINE",
"507.975 526.797 LINE",
"451.476 526.023 LINE",
"477.215 475.722 LINE",
"431.505 473.09 LINE",
"450.557 431.456 LINE",
"411.588 433.701 LINE",
"425.949 397.405 LINE",
"443.628 435.892 LINE",
"401.342 438.266 LINE",
"420.316 486.813 LINE",
"368.532 492.747 LINE",
"391.532 543.719 LINE",
"335.722 547.228 LINE",
"357.866 597.684 LINE",
"302.911 601.709 LINE",
"324.199 651.649 LINE",
"270.101 656.19 LINE",
"257.365 700.101 LINE",
"216.3 680 LINE",
"188.65 723 LINE",
"161 680 LINE",
"125.45 725 LINE",
"89.9 680 LINE",
"39.796 661.381 LINE",
"75 621.16 LINE",
"22 579.29 LINE",
"75 537.42 LINE",
"25 515.488 LINE",
"75 493.556 LINE",
"34 469.63 LINE",
"75 445.704 LINE",
"21 407.821 LINE",
"75 369.938 LINE",
"32 346.012 LINE",
"75 322.086 LINE",
"20 288.191 LINE",
"75 254.296 LINE",
"26 234.358 LINE",
"75 214.42 LINE",
"31 194.481 LINE",
"75 174.543 LINE",
"23 150.617 LINE",
"75 126.691 LINE",
"20 88.809 LINE",
"75 50.926 LINE"
);
},
{
closed = 1;
nodes = (
"177.776 50.275 LINE",
"154 32 LINE",
"139.734 53.365 LINE",
"143.42 72.562 LINE",
"168.107 77.416 LINE"
);
},
{
closed = 1;
nodes = (
"234.834 180.575 LINE",
"179.267 175.058 LINE",
"151.107 217.069 LINE",
"188.226 241.168 LINE",
"217.897 228.308 LINE"
);
},
{
closed = 1;
nodes = (
"754.446 397.613 LINE",
"737.672 392.011 LINE",
"734.063 411.734 LINE",
"749.89 422.977 LINE",
"767.353 410.918 LINE"
);
},
{
closed = 1;
nodes = (
"138.981 295.99 LINE",
"119.191 298.771 LINE",
"116.619 318.014 LINE",
"133.783 330.805 LINE",
"147.742 313.952 LINE"
);
},
{
closed = 1;
nodes = (
"635.052 61.394 LINE",
"607.5 53.617 LINE",
"591.656 83.237 LINE",
"618.805 97.885 LINE",
"646.579 88.389 LINE"
);
},
{
closed = 1;
nodes = (
"769.977 114.291 LINE",
"743.603 83.87 LINE",
"714.876 98.84 LINE",
"708.958 129.217 LINE",
"743.199 148.567 LINE"
);
},
{
closed = 1;
nodes = (
"258.673 59.661 LINE",
"254.889 45.975 LINE",
"242.858 50.872 LINE",
"240.583 59.997 LINE",
"248.558 64.981 LINE"
);
},
{
closed = 1;
nodes = (
"634.167 212.328 LINE",
"613.789 220.302 LINE",
"613.581 239.714 LINE",
"629.847 241.625 LINE",
"638.984 231.628 LINE"
);
},
{
closed = 1;
nodes = (
"673.649 495.544 LINE",
"658.03 486.743 LINE",
"651.002 502.791 LINE",
"659.093 514.346 LINE",
"673.382 510.824 LINE"
);
},
{
closed = 1;
nodes = (
"613.483 417.904 LINE",
"589.859 393.458 LINE",
"557.771 388.981 LINE",
"557.53 422.959 LINE",
"584.175 441.708 LINE"
);
},
{
closed = 1;
nodes = (
"661.856 638.163 LINE",
"641.616 623.003 LINE",
"617.136 637.398 LINE",
"627.661 665.479 LINE",
"652.231 658.577 LINE"
);
},
{
closed = 1;
nodes = (
"225.482 506.916 LINE",
"197.67 437.6 LINE",
"140.836 460.632 LINE",
"129.171 501.313 LINE",
"165.268 553.96 LINE"
);
},
{
closed = 1;
nodes = (
"364.951 451.605 LINE",
"350.08 432.624 LINE",
"322.103 438.692 LINE",
"322.785 471.641 LINE",
"353.241 473.398 LINE"
);
},
{
closed = 1;
nodes = (
"313.651 519.006 LINE",
"293.923 502.204 LINE",
"278.417 516.863 LINE",
"279.191 535.229 LINE",
"301.328 542.425 LINE"
);
},
{
closed = 1;
nodes = (
"744.293 588.229 LINE",
"733.643 589.291 LINE",
"732.204 597.553 LINE",
"737.686 601.992 LINE",
"746.402 599.225 LINE"
);
},
{
closed = 1;
nodes = (
"263.48 543.701 LINE",
"253.065 541.238 LINE",
"244.027 548.233 LINE",
"252.378 555.49 LINE",
"263.426 556.071 LINE"
);
},
{
closed = 1;
nodes = (
"668.871 416.93 LINE",
"650.056 425.595 LINE",
"650.056 444.405 LINE",
"667.017 447.364 LINE",
"679 435 LINE"
);
},
{
closed = 1;
nodes = (
"431.277 276.263 LINE",
"351.786 265.616 LINE",
"328.215 342.823 LINE",
"388.593 371.937 LINE",
"461.952 353.236 LINE"
);
},
{
closed = 1;
nodes = (
"254.642 412.509 LINE",
"238.641 413.823 LINE",
"228.505 428.113 LINE",
"243.884 439.961 LINE",
"260.762 430.368 LINE"
);
},
{
closed = 1;
nodes = (
"582.909 544.752 LINE",
"576.59 546.343 LINE",
"575.468 552.113 LINE",
"580.853 556.948 LINE",
"584.908 550.954 LINE"
);
}
);
width = 856;
}
);
leftKerningGroup = I;
rightKerningGroup = I;
unicode = 004D;
userData = {
com.typemytype.robofont.guides = (
{
angle = 0;
isGlobal = 0;
magnetic = 5;
x = 0;
y = 168;
},
{
angle = 0;
isGlobal = 0;
magnetic = 5;
x = 0;
y = 9;
},
{
angle = 0;
isGlobal = 0;
magnetic = 5;
x = 0;
y = 691;
},
{
angle = 90;
isGlobal = 0;
magnetic = 5;
x = 126;
y = 0;
},
{
angle = 90;
isGlobal = 0;
magnetic = 5;
x = 636;
y = 0;
}
);
};
},
{
color = 1;
glyphname = N;
layers = (
{
anchors = (
{
name = bottom;
position = "{370, 0}";
},
{
name = top;
position = "{370, 700}";
}
);
layerId = "EC64484B-0978-4CB1-9EE9-C40A2D8C4059";
paths = (
{
closed = 1;
nodes = (
"123.315 -27 LINE",
"164.63 20 LINE",
"192.174 -25 LINE",
"219.717 20 LINE",
"268.406 8.977 LINE",
"270 58.873 LINE",
"311.3 90.746 LINE",
"270 122.619 LINE",
"300.8 158.476 LINE",
"270 194.333 LINE",
"307.8 214.254 LINE",
"270 234.175 LINE",
"299.4 256.087 LINE",
"270 278 LINE",
"290.145 220.944 LINE",
"315.779 275.753 LINE",
"302.621 236.052 LINE",
"344.312 232.701 LINE",
"324.222 190.789 LINE",
"370.649 192.961 LINE",
"357.658 139.071 LINE",
"412.351 130.039 LINE",
"385.952 64.881 LINE",
"456.247 63.805 LINE",
"426.487 8.652 LINE",
"487.664 22.247 LINE",
"527.847 -35.856 LINE",
"571.1 20 LINE",
"608.625 -27 LINE",
"646.15 20 LINE",
"679.484 20.89 LINE",
"665 50.926 LINE",
"710 70.864 LINE",
"665 90.802 LINE",
"710 120.71 LINE",
"665 150.617 LINE",
"719 192.488 LINE",
"665 234.358 LINE",
"720 270.247 LINE",
"665 306.136 LINE",
"713 332.056 LINE",
"665 357.975 LINE",
"714 379.907 LINE",
"665 401.84 LINE",
"710 423.772 LINE",
"665 445.704 LINE",
"722 479.599 LINE",
"665 513.494 LINE",
"715 545.395 LINE",
"665 577.296 LINE",
"712 601.222 LINE",
"665 625.148 LINE",
"704.971 653.124 LINE",
"663 678 LINE",
"630.346 723.981 LINE",
"595.043 680 LINE",
"575.37 722 LINE",
"555.696 680 LINE",
"516.348 720 LINE",
"477 680 LINE",
"420.761 650.099 LINE",
"470 609.696 LINE",
"439.2 585.957 LINE",
"470 562.217 LINE",
"432.2 520.674 LINE",
"470 479.13 LINE",
"430.8 451.435 LINE",
"470 423.739 LINE",
"422.028 460.197 LINE",
"426.817 400.134 LINE",
"441.732 450.953 LINE",
"389.72 460.939 LINE",
"411.848 499.935 LINE",
"367.049 498.098 LINE",
"370.939 546.826 LINE",
"325.829 565.659 LINE",
"342.457 615.205 LINE",
"290.793 623.085 LINE",
"321.964 669.916 LINE",
"266.061 663.622 LINE",
"248.433 711.251 LINE",
"208.4 680 LINE",
"180.75 737 LINE",
"153.1 680 LINE",
"117.55 724 LINE",
"82 680 LINE",
"26.783 652.011 LINE",
"75 613.185 LINE",
"35 589.259 LINE",
"75 565.333 LINE",
"27 525.457 LINE",
"75 485.58 LINE",
"30 461.654 LINE",
"75 437.728 LINE",
"34 405.827 LINE",
"75 373.926 LINE",
"28 338.037 LINE",
"75 302.148 LINE",
"33 278.222 LINE",
"75 254.296 LINE",
"31 228.377 LINE",
"75 202.457 LINE",
"16 170.556 LINE",
"75 138.654 LINE",
"33 104.759 LINE",
"75 70.864 LINE"
);
},
{
closed = 1;
nodes = (
"282.049 345.175 LINE",
"212.645 376.645 LINE",
"174.046 449.681 LINE",
"261.61 497.929 LINE",
"317.138 422.95 LINE"
);
},
{
closed = 1;
nodes = (
"513.419 286.127 LINE",
"497.644 288.041 LINE",
"497.655 301.371 LINE",
"507.116 313.961 LINE",
"516.673 300.661 LINE"
);
},
{
closed = 1;
nodes = (
"516.803 230.129 LINE",
"509.045 222.055 LINE",
"499.778 228.339 LINE",
"503.985 236.459 LINE",
"511 237.196 LINE"
);
},
{
closed = 1;
nodes = (
"608.995 519.372 LINE",
"582.064 490.355 LINE",
"540.234 497.057 LINE",
"537.86 546.48 LINE",
"588.627 565.385 LINE"
);
},
{
closed = 1;
nodes = (
"453.524 171.998 LINE",
"415.134 177.812 LINE",
"419.884 212.151 LINE",
"446.297 233.394 LINE",
"472.754 205.022 LINE"
);
},
{
closed = 1;
nodes = (
"263.567 583.801 LINE",
"229.117 562.019 LINE",
"189.473 579.977 LINE",
"212.608 613.7 LINE",
"244.217 618.042 LINE"
);
},
{
closed = 1;
nodes = (
"197.699 646.339 LINE",
"181.5 643.01 LINE",
"180.197 657.871 LINE",
"187.641 668.929 LINE",
"200.876 661.288 LINE"
);
},
{
closed = 1;
nodes = (
"244.816 143.908 LINE",
"240.818 131.505 LINE",
"228.862 135.418 LINE",
"219.593 149.185 LINE",
"236.219 151.925 LINE"
);
},
{
closed = 1;
nodes = (
"185.358 261.911 LINE",
"156.278 249.385 LINE",
"135.126 279.876 LINE",
"159.902 312.077 LINE",
"200.572 296.571 LINE"
);
},
{
closed = 1;
nodes = (
"607.928 248.968 LINE",
"572.149 253.638 LINE",
"552.125 288.697 LINE",
"589.436 300.996 LINE",
"610.995 282.725 LINE"
);
},
{
closed = 1;
nodes = (
"616.678 155.322 LINE",
"589.012 153.398 LINE",
"566.406 178.162 LINE",
"593.838 205.594 LINE",
"627.512 187.528 LINE"
);
}
);
width = 740;
}
);
leftKerningGroup = I;
rightKerningGroup = I;
unicode = 004E;
userData = {
com.typemytype.robofont.guides = (
{
angle = 0;
isGlobal = 0;
magnetic = 5;
x = 0;
y = 9;
},
{
angle = 0;
isGlobal = 0;
magnetic = 5;
x = 0;
y = 691;
},
{
angle = 90;
isGlobal = 0;
magnetic = 5;
x = 540;
y = 0;
},
{
angle = 90;
isGlobal = 0;
magnetic = 5;
x = 125;
y = 0;
}
);
};
},
{
color = 1;
glyphname = Eng;
layers = (
{
hints = (
{
horizontal = 1;
place = "{-2147483648, 0}";
type = Tag;
name = hr00;
}
);
layerId = "EC64484B-0978-4CB1-9EE9-C40A2D8C4059";
paths = (
{
closed = 1;
nodes = (
"367.797 -249.569 LINE",
"391.006 -204.153 LINE",
"424.777 -255.81 LINE",
"446.679 -198.111 LINE",
"491.778 -237.113 LINE",
"512.485 -181.2 LINE",
"554.41 -227.277 LINE",
"549.139 -165.205 LINE",
"616.493 -188.221 LINE",
"612.637 -117.147 LINE",
"676.797 -106.094 LINE",
"654.401 -44.962 LINE",
"704.3 -11.475 LINE",
"665 33.988 LINE",
"707 53.957 LINE",
"665 73.926 LINE",
"717 115.861 LINE",
"665 157.796 LINE",
"721 191.744 LINE",
"665 225.691 LINE",
"716 257.642 LINE",
"665 289.593 LINE",
"715 327.534 LINE",
"665 365.475 LINE",
"716 387.441 LINE",
"665 409.407 LINE",
"721 447.349 LINE",
"665 485.29 LINE",
"706 519.238 LINE",
"665 553.185 LINE",
"709 581.142 LINE",
"665 609.099 LINE",
"706.501 654.812 LINE",
"650.13 680 LINE",
"630.457 727 LINE",
"610.783 680 LINE",
"589.141 726 LINE",
"567.5 680 LINE",
"547.826 731 LINE",
"528.152 680 LINE",
"506.511 726 LINE",
"484.87 680 LINE",
"425.466 653.275 LINE",
"470 605.739 LINE",
"432.9 570.13 LINE",
"470 534.522 LINE",
"435 506.826 LINE",
"470 479.13 LINE",
"439.2 439.565 LINE",
"470 400 LINE",
"454.296 443.198 LINE",
"416.512 417.024 LINE",
"434.354 460.358 LINE",
"387.659 464.317 LINE",
"403.646 497.249 LINE",
"367.049 498.098 LINE",
"374.031 541.759 LINE",
"332.012 555.524 LINE",
"357.354 608.069 LINE",
"299.037 609.573 LINE",
"319.474 664.086 LINE",
"261.592 670.328 LINE",
"241.699 726.435 LINE",
"204.45 680 LINE",
"176.8 725 LINE",
"149.15 680 LINE",
"121.5 726 LINE",
"93.85 680 LINE",
"54.601 687.4 LINE",
"75 653.062 LINE",
"16 621.16 LINE",
"75 589.259 LINE",
"26 553.37 LINE",
"75 517.481 LINE",
"30 479.599 LINE",
"75 441.716 LINE",
"34 413.802 LINE",
"75 385.889 LINE",
"22 344.019 LINE",
"75 302.148 LINE",
"22 276.228 LINE",
"75 250.309 LINE",
"20 220.401 LINE",
"75 190.494 LINE",
"17 162.58 LINE",
"75 134.667 LINE",
"18 92.796 LINE",
"75 50.926 LINE",
"74.348 5.486 LINE",
"117.413 20 LINE",
"141.022 -20 LINE",
"164.63 20 LINE",
"202.011 -35 LINE",
"239.391 20 LINE",
"278.203 0.098 LINE",
"270 42.937 LINE",
"300.1 80.786 LINE",
"270 118.635 LINE",
"304.3 160.468 LINE",
"270 202.302 LINE",
"307.509 238.983 LINE",
"273.7 279.1 LINE",
"300.758 232.251 LINE",
"309.203 285.689 LINE",
"294.444 247.213 LINE",
"335.635 245.959 LINE",
"326.058 208.542 LINE",
"364.27 202.919 LINE",
"345.304 156.867 LINE",
"395.108 156.568 LINE",
"376.982 120.626 LINE",
"417.135 123.459 LINE",
"406.961 66.539 LINE",
"463.392 53.932 LINE",
"421.784 27.62 LINE",
"460.039 -3.367 LINE",
"413.458 11.395 LINE",
"415.423 -37.429 LINE",
"377.479 16.161 LINE",
"347 -42 LINE",
"285.296 -41.276 LINE",
"336 -76.447 LINE",
"279 -103.895 LINE",
"336 -131.342 LINE",
"280 -164.671 LINE",
"336 -198 LINE"
);
},
{
closed = 1;
nodes = (
"587.112 -84.232 LINE",
"531 -123 LINE",
"485.349 -80.833 LINE",
"507.489 -33.639 LINE",
"563.916 -20.695 LINE"
);
},
{
closed = 1;
nodes = (
"226.002 556.404 LINE",
"159.574 543.87 LINE",
"121.623 604.907 LINE",
"173.192 662.967 LINE",
"219.435 614.309 LINE"
);
},
{
closed = 1;
nodes = (
"601.902 539.036 LINE",
"554.906 525.329 LINE",
"517.066 560.488 LINE",
"550.307 601.277 LINE",
"596.086 588.173 LINE"
);
},
{
closed = 1;
nodes = (
"213.947 205.807 LINE",
"200.427 200.639 LINE",
"190.258 215.952 LINE",
"205.469 223.893 LINE",
"219.583 219.137 LINE"
);
},
{
closed = 1;
nodes = (
"564.444 136.77 LINE",
"496.472 153.293 LINE",
"486.998 224.447 LINE",
"558.771 268.975 LINE",
"630.658 199.844 LINE"
);
},
{
closed = 1;
nodes = (
"119.543 328.414 LINE",
"98.983 327.93 LINE",
"78.036 342.361 LINE",
"97.788 364.182 LINE",
"126.644 355.705 LINE"
);
},
{
closed = 1;
nodes = (
"202.042 308.783 LINE",
"170.007 297.123 LINE",
"152.016 324.093 LINE",
"166.029 357.889 LINE",
"195.336 338.545 LINE"
);
},
{
closed = 1;
nodes = (
"204.987 450.828 LINE",
"182.415 460.191 LINE",
"172 486.421 LINE",
"201.624 496.359 LINE",
"227.878 474.789 LINE"
);
},
{
closed = 1;
nodes = (
"380.24 -121.65 LINE",
"373.823 -127.733 LINE",
"371.012 -119.349 LINE",
"374.127 -114.364 LINE",
"381.362 -114.5 LINE"
);
},
{
closed = 1;
nodes = (
"540.695 396.775 LINE",
"513.069 399.202 LINE",
"510.783 421.944 LINE",
"526 433 LINE",
"550.727 425.034 LINE"
);
},
{
closed = 1;
nodes = (
"262.948 58.853 LINE",
"258.958 51.656 LINE",
"251.612 53.908 LINE",
"248.128 62.363 LINE",
"257.526 65.853 LINE"
);
},
{
closed = 1;
nodes = (
"534.48 -161.299 LINE",
"522.129 -171.525 LINE",
"516.024 -156.698 LINE",
"521.13 -143.947 LINE",
"534.426 -148.929 LINE"
);
},
{
closed = 1;
nodes = (
"426.333 239.379 LINE",
"416.908 244.612 LINE",
"411.937 253.226 LINE",
"422.219 258.925 LINE",
"430.816 250.908 LINE"
);
},
{
closed = 1;
nodes = (
"103.151 30.881 LINE",
"86.534 26.604 LINE",
"80.086 46.156 LINE",
"97.454 52.992 LINE",
"113.341 44.686 LINE"
);
},
{
closed = 1;
nodes = (
"594.254 -3.308 LINE",
"584.312 -2.022 LINE",
"584.072 8 LINE",
"593.079 13.781 LINE",
"600.945 5.045 LINE"
);
},
{
closed = 1;
nodes = (
"472.869 299.509 LINE",
"458.355 275.988 LINE",
"428.192 278.264 LINE",
"431.679 307 LINE",
"455.029 325.366 LINE"
);
},
{
closed = 1;
nodes = (
"437.992 133.314 LINE",
"434.509 126.465 LINE",
"426.56 128.595 LINE",
"424.452 137.902 LINE",
"434.847 143.625 LINE"
);
}
);
width = 740;
}
);
leftKerningGroup = I;
rightKerningGroup = I;
unicode = 014A;
},
{
color = 1;
glyphname = O;
layers = (
{
anchors = (
{
name = bottom;
position = "{371, 0}";
},
{
name = center;
position = "{371, 350}";
},
{
name = ogonek;
position = "{668, 10}";
},
{
name = top;
position = "{371, 700}";
},
{
name = topleft;
position = "{20, 700}";
},
{
name = topright;
position = "{722, 700}";
}
);
layerId = "EC64484B-0978-4CB1-9EE9-C40A2D8C4059";
paths = (
{
closed = 1;
nodes = (
"418.844 -36.344 LINE",
"458.742 16.995 LINE",
"500.954 -18.608 LINE",
"520.734 32.949 LINE",
"565.573 3.131 LINE",
"571.455 56.657 LINE",
"618.023 42.035 LINE",
"615.778 90.794 LINE",
"665.057 81.693 LINE",
"646.004 128.042 LINE",
"710.332 130.949 LINE",
"671.458 182.285 LINE",
"727.633 215.504 LINE",
"685.148 265.044 LINE",
"725.801 298.671 LINE",
"686.47 333.834 LINE",
"740.302 362.481 LINE",
"686.137 390.495 LINE",
"737.846 424.832 LINE",
"683.635 455.063 LINE",
"730.122 502.788 LINE",
"667.458 525.413 LINE",
"701.692 566.849 LINE",
"647.973 565.061 LINE",
"670.126 618.901 LINE",
"612.783 608.833 LINE",
"611.338 660.875 LINE",
"561.169 646.963 LINE",
"551.469 694.882 LINE",
"509.668 669.525 LINE",
"480.431 723.988 LINE",
"431.204 686.602 LINE",
"394.925 733.148 LINE",
"354.911 689.771 LINE",
"327.447 732.813 LINE",
"306.804 686.115 LINE",
"269.999 727.837 LINE",
"251.583 675.337 LINE",
"197.332 696.054 LINE",
"173.871 642.933 LINE",
"128.499 672 LINE",
"141.147 619.621 LINE",
"83.755 618.435 LINE",
"91.947 561.618 LINE",
"38.948 549.117 LINE",
"67.059 502.48 LINE",
"17.521 475.375 LINE",
"57 435 LINE",
"12.333 405.636 LINE",
"55.645 374.307 LINE",
"-0.324 343.894 LINE",
"55.708 313.598 LINE",
"3.744 279.644 LINE",
"57.728 249.003 LINE",
"8.869 202.585 LINE",
"71.805 178.482 LINE",
"36.34 135.846 LINE",
"91.789 134.859 LINE",
"71.854 92.82 LINE",
"117.904 99.464 LINE",
"103.978 43.949 LINE",
"157.072 65.324 LINE",
"170.185 6.366 LINE",
"225.048 31.627 LINE",
"247.713 -29.185 LINE",
"295.13 15.127 LINE",
"317.474 -27.038 LINE",
"346.969 10.476 LINE"
);
},
{
closed = 1;
nodes = (
"356.51 198.896 LINE",
"331.128 172.163 LINE",
"338.388 215.638 LINE",
"298.807 196.244 LINE",
"312.625 225.276 LINE",
"281.352 232.747 LINE",
"303.381 255.708 LINE",
"276.729 273.092 LINE",
"301.238 293.915 LINE",
"275.78 313.565 LINE",
"312.74 334.061 LINE",
"275.503 354.049 LINE",
"303.703 374.011 LINE",
"275.906 394.531 LINE",
"302.903 414.05 LINE",
"277 435 LINE",
"299.699 451.737 LINE",
"283.744 474.992 LINE",
"323.538 474.793 LINE",
"304.38 509.673 LINE",
"336.798 494.877 LINE",
"338.881 530.451 LINE",
"363.013 495.008 LINE",
"379.135 534.74 LINE",
"388.995 493.666 LINE",
"418.142 524.24 LINE",
"412.559 488.462 LINE",
"447.757 496.968 LINE",
"429.025 468.016 LINE",
"462.377 459.254 LINE",
"439.034 437.097 LINE",
"465.522 418.815 LINE",
"444.374 398.142 LINE",
"466.338 378.339 LINE",
"430.703 357.982 LINE",
"466.468 337.855 LINE",
"443.166 317.926 LINE",
"465.921 297.374 LINE",
"444.669 277.812 LINE",
"464.553 256.86 LINE",
"437.098 242.323 LINE",
"455.497 217.292 LINE",
"417.014 220.249 LINE",
"431.817 184.604 LINE",
"396.275 212.755 LINE",
"395.293 167.426 LINE"
);
},
{
closed = 1;
nodes = (
"655.801 285.418 LINE",
"619.378 307.942 LINE",
"602.142 347.147 LINE",
"645.749 354.231 LINE",
"677.852 328.399 LINE"
);
},
{
closed = 1;
nodes = (
"384.385 68.615 LINE",
"357.828 70.962 LINE",
"351.185 89.347 LINE",
"363.497 102.803 LINE",
"380.256 94.264 LINE"
);
},
{
closed = 1;
nodes = (
"179.618 198.83 LINE",
"135.914 192.57 LINE",
"118.974 234.548 LINE",
"153.124 258.874 LINE",
"187.297 239.285 LINE"
);
},
{
closed = 1;
nodes = (
"228.898 330.436 LINE",
"201.149 323.638 LINE",
"192.471 354.79 LINE",
"218.401 368.996 LINE",
"242.864 353.602 LINE"
);
},
{
closed = 1;
nodes = (
"233.147 495.529 LINE",
"181.815 460.378 LINE",
"166.005 519.628 LINE",
"189.136 561.077 LINE",
"229.851 538.502 LINE"
);
},
{
closed = 1;
nodes = (
"592.667 280.924 LINE",
"586.695 266.857 LINE",
"573.439 270.453 LINE",
"573.556 280.735 LINE",
"580.61 284.973 LINE"
);
},
{
closed = 1;
nodes = (
"531.873 463.581 LINE",
"516.855 458.386 LINE",
"507.032 470.093 LINE",
"514.756 483.981 LINE",
"534.555 483.213 LINE"
);
},
{
closed = 1;
nodes = (
"402.375 641.512 LINE",
"373.265 613.261 LINE",
"348.155 638.28 LINE",
"350.586 667.747 LINE",
"380.635 668.991 LINE"
);
},
{
closed = 1;
nodes = (
"542.187 206.5 LINE",
"518.178 189.612 LINE",
"503.115 214.805 LINE",
"515.052 237.098 LINE",
"542.579 233.728 LINE"
);
},
{
closed = 1;
nodes = (
"453 514.804 LINE",
"442.64 511.825 LINE",
"441.778 523.661 LINE",
"450.836 527.956 LINE",
"457.825 521.663 LINE"
);
},
{
closed = 1;
nodes = (
"570.456 359.497 LINE",
"538.908 348.091 LINE",
"513.718 365.701 LINE",
"524.519 399.429 LINE",
"552.153 384.83 LINE"
);
},
{
closed = 1;
nodes = (
"284.26 78.214 LINE",
"273.965 84.137 LINE",
"271.936 92.756 LINE",
"280.91 99.833 LINE",
"287.912 90.253 LINE"
);
},
{
closed = 1;
nodes = (
"133.336 406.416 LINE",
"123.529 401.012 LINE",
"116.273 407.929 LINE",
"117.464 420.064 LINE",
"129.664 416.994 LINE"
);
},
{
closed = 1;
nodes = (
"315.769 135.368 LINE",
"306.5 137.638 LINE",
"304.51 145.622 LINE",
"311.628 151.978 LINE",
"318.762 144.935 LINE"
);
},
{
closed = 1;
nodes = (
"652.119 409.849 LINE",
"639.141 402.542 LINE",
"626.01 415.407 LINE",
"638.212 429.156 LINE",
"651.668 422.772 LINE"
);
},
{
closed = 1;
nodes = (
"634.635 171.734 LINE",
"619.483 178.359 LINE",
"619.483 193.641 LINE",
"634.326 199.315 LINE",
"642 186 LINE"
);
}
);
width = 742;
}
);
leftKerningGroup = O;
rightKerningGroup = O;
unicode = 004F;
userData = {
com.typemytype.robofont.guides = (
{
angle = 0;
isGlobal = 0;
magnetic = 5;
x = 0;
y = "-10";
},
{
angle = 0;
isGlobal = 0;
magnetic = 5;
x = 0;
y = 710;
},
{
angle = 0;
isGlobal = 0;
magnetic = 5;
x = 0;
y = 335;
},
{
angle = 0;
isGlobal = 0;
magnetic = 5;
x = 0;
y = 434;
},
{
angle = 0;
isGlobal = 0;
magnetic = 5;
x = 0;
y = 266;
},
{
angle = 90;
isGlobal = 0;
magnetic = 5;
x = 496;
y = 0;
}
);
};
},
{
color = 1;
glyphname = Oslash;
layers = (
{
anchors = (
{
name = bottom;
position = "{390, 0}";
},
{
name = top;
position = "{390, 700}";
}
);
layerId = "EC64484B-0978-4CB1-9EE9-C40A2D8C4059";
paths = (
{
closed = 1;
nodes = (
"425.588 -38.37 LINE",
"452.975 13.124 LINE",
"479.738 -29.31 LINE",
"492.556 19.193 LINE",
"546.129 -24.809 LINE",
"565.036 41.889 LINE",
"605.999 17.825 LINE",
"606.928 65.324 LINE",
"659.617 40.66 LINE",
"643.376 96.523 LINE",
"703.113 90.835 LINE",
"678.053 145.359 LINE",
"744.156 163.151 LINE",
"702.189 217.233 LINE",
"758.614 244.792 LINE",
"707.396 281.122 LINE",
"754.857 314.695 LINE",
"708.326 349.547 LINE",
"768.144 380.566 LINE",
"719 426.667 LINE",
"769.981 391.194 LINE",
"750 450 LINE",
"796 486 LINE",
"750 522 LINE",
"755.271 567.281 LINE",
"715.5 545 LINE",
"712.698 600.791 LINE",
"664.989 571.734 LINE",
"689.33 623.588 LINE",
"634.065 608.519 LINE",
"639.193 669.365 LINE",
"582.559 646.537 LINE",
"579.436 692.103 LINE",
"542.578 665.13 LINE",
"528.368 725.274 LINE",
"484.741 681.503 LINE",
"448.399 740.445 LINE",
"401.026 689.942 LINE",
"375.746 729.217 LINE",
"352.813 688.527 LINE",
"326.743 737.807 LINE",
"312.883 683.806 LINE",
"267.28 715.279 LINE",
"242.961 665.493 LINE",
"179.506 693.202 LINE",
"169.381 624.705 LINE",
"112.146 622.218 LINE",
"116.027 565.061 LINE",
"49.127 548.83 LINE",
"86.124 490.776 LINE",
"32.656 478.699 LINE",
"79.992 451.059 LINE",
"27.852 423.039 LINE",
"77.633 391.014 LINE",
"20.372 369.7 LINE",
"77.102 347.01 LINE",
"21.584 328.615 LINE",
"66.2 290.8 LINE",
"24.678 291.886 LINE",
"32 251 LINE",
"-9 227 LINE",
"32 203 LINE",
"24.079 164.374 LINE",
"63.133 169.8 LINE",
"83.789 130.809 LINE",
"95.557 173.335 LINE",
"68.773 128.456 LINE",
"120.736 122.856 LINE",
"96.63 73.755 LINE",
"149.208 88.839 LINE",
"150.15 27.106 LINE",
"208.515 47.242 LINE",
"215.285 -7.036 LINE",
"257.307 27.98 LINE",
"273.82 -27.938 LINE",
"312.474 15.713 LINE"
);
},
{
closed = 1;
nodes = (
"376.892 190.354 LINE",
"352.867 172.324 LINE",
"353.452 206.845 LINE",
"320.437 196.741 LINE",
"337.691 227.419 LINE",
"303.039 233.592 LINE",
"329.542 245.06 LINE",
"310.045 266.364 LINE",
"336.376 253.584 LINE",
"346.864 280.909 LINE",
"374.995 263.573 LINE",
"383.682 295.455 LINE",
"412.353 276.751 LINE",
"420.5 310 LINE",
"447.551 295.398 LINE",
"457.318 324.545 LINE",
"461.227 295.781 LINE",
"488 307 LINE",
"462.432 285.102 LINE",
"486.826 261.903 LINE",
"459.873 246.288 LINE",
"479.113 221.791 LINE",
"448.344 217.428 LINE",
"457.142 187.623 LINE",
"426.743 201.313 LINE",
"421.419 168.402 LINE"
);
},
{
closed = 1;
nodes = (
"325.547 419.945 LINE",
"298.007 415.172 LINE",
"323.05 433.787 LINE",
"301.196 456.061 LINE",
"331.466 466.624 LINE",
"314.638 493.913 LINE",
"343.321 493.693 LINE",
"342.696 522.371 LINE",
"369.018 505.493 LINE",
"380.902 534.415 LINE",
"399.152 508.014 LINE",
"421.07 531.459 LINE",
"425.539 497.761 LINE",
"456.297 512.236 LINE",
"448.353 483.112 LINE",
"478.197 478.571 LINE",
"448.397 471.583 LINE",
"469.209 449.14 LINE",
"442.779 461.858 LINE",
"432.233 434.488 LINE",
"405.802 447.207 LINE",
"395.256 419.837 LINE",
"367.201 436.655 LINE",
"358.279 405.186 LINE"
);
},
{
closed = 1;
nodes = (
"218.521 227.429 LINE",
"175.63 217.74 LINE",
"177.097 265.432 LINE",
"212.862 276.575 LINE",
"231.766 252.34 LINE"
);
},
{
closed = 1;
nodes = (
"677.91 411.546 LINE",
"626.753 359.942 LINE",
"560.841 381.777 LINE",
"573.92 445.837 LINE",
"631.352 465.413 LINE"
);
},
{
closed = 1;
nodes = (
"306.997 585.686 LINE",
"296.017 563.049 LINE",
"276.713 577.396 LINE",
"272.229 598.638 LINE",
"294.209 601.128 LINE"
);
},
{
closed = 1;
nodes = (
"430.402 627.775 LINE",
"421.738 626.007 LINE",
"414.273 628.929 LINE",
"417.098 638.548 LINE",
"427.664 637.994 LINE"
);
},
{
closed = 1;
nodes = (
"285.554 438.629 LINE",
"278.949 422.279 LINE",
"262.644 425.041 LINE",
"262.655 438.371 LINE",
"272.046 449.963 LINE"
);
},
{
closed = 1;
nodes = (
"594.377 171.106 LINE",
"561.211 152.122 LINE",
"523.076 174.552 LINE",
"543.398 218.287 LINE",
"595.491 220.226 LINE"
);
},
{
closed = 1;
nodes = (
"116.08 391.033 LINE",
"104.208 397.095 LINE",
"100.714 409.18 LINE",
"114.374 417.616 LINE",
"121.958 403.959 LINE"
);
},
{
closed = 1;
nodes = (
"388.659 74.863 LINE",
"371.566 76.931 LINE",
"373.097 94.08 LINE",
"389.694 108.25 LINE",
"403.973 88.047 LINE"
);
},
{
closed = 1;
nodes = (
"264.144 334.883 LINE",
"219.777 316.051 LINE",
"199.114 353.385 LINE",
"210.245 400.184 LINE",
"261.453 384.211 LINE"
);
},
{
closed = 1;
nodes = (
"334.34 141.11 LINE",
"312.339 109.521 LINE",
"276.936 102.048 LINE",
"263.961 141.72 LINE",
"298.663 167.994 LINE"
);
},
{
closed = 1;
nodes = (
"213.535 560.491 LINE",
"206.634 556.01 LINE",
"196.375 560.153 LINE",
"201.009 572.225 LINE",
"213.293 570.771 LINE"
);
},
{
closed = 1;
nodes = (
"145.816 452.092 LINE",
"137.341 443.082 LINE",
"126.031 449.351 LINE",
"126.452 464.239 LINE",
"142.787 466.245 LINE"
);
},
{
closed = 1;
nodes = (
"563.876 534.931 LINE",
"520.889 527.549 LINE",
"493.1 562.86 LINE",
"524.565 597.842 LINE",
"563.682 578.547 LINE"
);
},
{
closed = 1;
nodes = (
"298.944 194.595 LINE",
"278.584 181.175 LINE",
"267 204 LINE",
"281.365 218.266 LINE",
"300.562 214.58 LINE"
);
}
);
width = 780;
}
);
leftKerningGroup = O;
rightKerningGroup = O;
unicode = 00D8;
userData = {
com.typemytype.robofont.guides = (
{
angle = 0;
isGlobal = 0;
magnetic = 5;
x = 0;
y = 145;
},
{
angle = 90;
isGlobal = 0;
magnetic = 5;
x = 351;
y = 0;
},
{
angle = 90;
isGlobal = 0;
magnetic = 5;
x = 679;
y = 0;
},
{
angle = 90;
isGlobal = 0;
magnetic = 5;
x = 85;
y = 0;
},
{
angle = 90;
isGlobal = 0;
magnetic = 5;
x = 20;
y = 0;
}
);
};
},
{
color = 1;
glyphname = OE;
layers = (
{
hints = (
{
horizontal = 1;
place = "{-2147483648, 0}";
type = Tag;
name = hr00;
}
);
layerId = "EC64484B-0978-4CB1-9EE9-C40A2D8C4059";
paths = (
{
closed = 1;
nodes = (
"391.854 -38 LINE",
"419.708 20 LINE",
"451.542 -37 LINE",
"483.375 20 LINE",
"505.26 -29 LINE",
"527.146 20 LINE",
"558.979 -30 LINE",
"590.812 20 LINE",
"628.615 -27 LINE",
"666.417 20 LINE",
"708.198 -33 LINE",
"749.979 20 LINE",
"771.865 -35 LINE",
"793.75 20 LINE",
"817.625 -21 LINE",
"841.5 20 LINE",
"873.333 -29 LINE",
"905.167 20 LINE",
"942.425 -19.292 LINE",
"944 34.833 LINE",
"998 66.167 LINE",
"944 97.5 LINE",
"999 124.917 LINE",
"944 152.333 LINE",
"928.307 199.606 LINE",
"885 175 LINE",
"851 213.5 LINE",
"817 175 LINE",
"789 210.7 LINE",
"761 175 LINE",
"741 207.9 LINE",
"721 175 LINE",
"701 208.6 LINE",
"681 175 LINE",
"657.446 209.088 LINE",
"629 178.962 LINE",
"679 200.75 LINE",
"629 222.538 LINE",
"685 242.346 LINE",
"629 262.154 LINE",
"666.393 236.417 LINE",
"684.6 278 LINE",
"704.457 237.4 LINE",
"724.314 278 LINE",
"752.114 246.5 LINE",
"779.914 278 LINE",
"805.729 236.7 LINE",
"831.543 278 LINE",
"857.357 243.7 LINE",
"883.171 278 LINE",
"927.322 269.666 LINE",
"914 312.576 LINE",
"964 348.03 LINE",
"914 383.485 LINE",
"920.761 429.063 LINE",
"875.229 422 LINE",
"845.443 454.2 LINE",
"815.657 422 LINE",
"773.957 451.4 LINE",
"732.257 422 LINE",
"702.471 450.7 LINE",
"672.686 422 LINE",
"667.03 467.605 LINE",
"629 441.808 LINE",
"681 465.577 LINE",
"629 489.346 LINE",
"670.151 483.797 LINE",
"665 525 LINE",
"689 483.7 LINE",
"713 525 LINE",
"749 494.2 LINE",
"785 525 LINE",
"805 490.7 LINE",
"825 525 LINE",
"859 492.1 LINE",
"893 525 LINE",
"935.059 516.523 LINE",
"936 559.417 LINE",
"984 580.958 LINE",
"936 602.5 LINE",
"980 627.958 LINE",
"936 653.417 LINE",
"935.481 700.647 LINE",
"893 680 LINE",
"851 737 LINE",
"809 680 LINE",
"783 727 LINE",
"757 680 LINE",
"735 730 LINE",
"713 680 LINE",
"671 733 LINE",
"629 680 LINE",
"591 739 LINE",
"553 680 LINE",
"519 734 LINE",
"485 680 LINE",
"447 723 LINE",
"409 680 LINE",
"378.663 725.81 LINE",
"348.905 679.622 LINE",
"309.696 723.574 LINE",
"281.053 672.109 LINE",
"231.145 713.693 LINE",
"211.779 651.685 LINE",
"150.993 671.076 LINE",
"139.792 608.263 LINE",
"71.94 612.818 LINE",
"88.521 546.866 LINE",
"41.422 539.014 LINE",
"67.614 499.09 LINE",
"7.432 485.137 LINE",
"56.833 448.043 LINE",
"-1.739 409.709 LINE",
"53.598 366.836 LINE",
"-1.044 331.562 LINE",
"54.307 297.411 LINE",
"4.399 274.595 LINE",
"56.36 256.947 LINE",
"18.481 223.851 LINE",
"65.325 205.525 LINE",
"25.832 160.383 LINE",
"85.363 153.06 LINE",
"51.296 101.409 LINE",
"112.073 113.009 LINE",
"85.632 57.622 LINE",
"140.65 84.822 LINE",
"129.573 33.041 LINE",
"173.796 62.165 LINE",
"187.061 11 LINE",
"232.943 37.242 LINE",
"240.955 -25.248 LINE",
"275.961 27.134 LINE",
"295.087 -34.488 LINE",
"327.841 21.101 LINE"
);
},
{
closed = 1;
nodes = (
"353.794 206.006 LINE",
"329.149 181.814 LINE",
"334.566 226.18 LINE",
"295.655 204.189 LINE",
"304.204 232.45 LINE",
"275.438 239.102 LINE",
"296.284 263.108 LINE",
"268.792 279.078 LINE",
"293.938 300.502 LINE",
"267.184 319.88 LINE",
"288.055 340.499 LINE",
"266.787 360.709 LINE",
"289.347 380.56 LINE",
"267.822 401.528 LINE",
"290.299 420.269 LINE",
"270.745 442.042 LINE",
"303.875 451.254 LINE",
"284.564 479.707 LINE",
"314.322 478.631 LINE",
"312.519 508.354 LINE",
"345.649 478.411 LINE",
"349.91 522.864 LINE",
"371.855 488.282 LINE",
"390 525 LINE",
"410 484.4 LINE",
"430 525 LINE",
"403.54 505.114 LINE",
"430 485.227 LINE",
"402.56 465.341 LINE",
"430 445.455 LINE",
"403.05 425.568 LINE",
"430 405.682 LINE",
"402.56 385.795 LINE",
"430 365.909 LINE",
"405.5 346.023 LINE",
"430 326.136 LINE",
"406.48 306.25 LINE",
"430 286.364 LINE",
"408.93 266.477 LINE",
"430 246.591 LINE",
"404.03 226.705 LINE",
"430 206.818 LINE",
"404.745 196.048 LINE",
"422.375 175 LINE",
"403.312 203.7 LINE",
"384.25 175 LINE"
);
},
{
closed = 1;
nodes = (
"602.659 115.754 LINE",
"552.586 97.505 LINE",
"509.616 130.178 LINE",
"533.577 187.896 LINE",
"585.163 164.163 LINE"
);
},
{
closed = 1;
nodes = (
"532.963 567.046 LINE",
"525.492 547.456 LINE",
"508.041 557.644 LINE",
"501.039 576.598 LINE",
"521.629 580.554 LINE"
);
},
{
closed = 1;
nodes = (
"249.159 149.067 LINE",
"228.434 163.815 LINE",
"224.428 181.756 LINE",
"243.949 194.436 LINE",
"257.928 174.656 LINE"
);
},
{
closed = 1;
nodes = (
"805.113 335.464 LINE",
"769.604 343.662 LINE",
"777.571 373.271 LINE",
"796.824 380.564 LINE",
"812.924 365.743 LINE"
);
},
{
closed = 1;
nodes = (
"208.524 354.327 LINE",
"187.604 364.534 LINE",
"182.761 387.302 LINE",
"206.513 394.225 LINE",
"224.985 375.838 LINE"
);
},
{
closed = 1;
nodes = (
"593.937 341.407 LINE",
"560.901 305.391 LINE",
"513.028 310.681 LINE",
"505.228 366.777 LINE",
"556.8 371.841 LINE"
);
},
{
closed = 1;
nodes = (
"396.644 590.227 LINE",
"371.894 595.412 LINE",
"359.629 624.554 LINE",
"390.473 629.696 LINE",
"421.659 614.871 LINE"
);
},
{
closed = 1;
nodes = (
"214.196 483.104 LINE",
"166.369 428.4 LINE",
"93.792 483.951 LINE",
"137.5 564.22 LINE",
"210.802 541.873 LINE"
);
},
{
closed = 1;
nodes = (
"623.865 389.721 LINE",
"619.356 375.526 LINE",
"607.343 382.343 LINE",
"601.417 393.902 LINE",
"614.877 399.852 LINE"
);
},
{
closed = 1;
nodes = (
"102.983 356.488 LINE",
"99.371 347.655 LINE",
"88.34 349.572 LINE",
"88.368 360.769 LINE",
"98.177 364.733 LINE"
);
},
{
closed = 1;
nodes = (
"923.893 51.227 LINE",
"900.414 52.457 LINE",
"891.528 76.242 LINE",
"914.099 88.971 LINE",
"927.489 71.882 LINE"
);
},
{
closed = 1;
nodes = (
"237.389 220.421 LINE",
"208.908 230.61 LINE",
"204.349 258.5 LINE",
"232.237 275.344 LINE",
"257.825 249.345 LINE"
);
},
{
closed = 1;
nodes = (
"150.689 146.257 LINE",
"132.047 125.068 LINE",
"107.802 146.468 LINE",
"122.342 171.657 LINE",
"152.641 175.215 LINE"
);
},
{
closed = 1;
nodes = (
"240.667 98.924 LINE",
"234.695 84.857 LINE",
"222.095 89.208 LINE",
"217.874 100.298 LINE",
"229.133 108.951 LINE"
);
},
{
closed = 1;
nodes = (
"444.705 89.246 LINE",
"424.598 70.283 LINE",
"387.142 75.748 LINE",
"399.787 114.213 LINE",
"435.074 120.621 LINE"
);
},
{
closed = 1;
nodes = (
"120.929 223.641 LINE",
"110.495 213.262 LINE",
"98.474 219.5 LINE",
"98.339 233.699 LINE",
"112.474 235.049 LINE"
);
},
{
closed = 1;
nodes = (
"157.738 91.246 LINE",
"152.105 87 LINE",
"144.436 90.395 LINE",
"147.787 98.59 LINE",
"157.162 100.372 LINE"
);
},
{
closed = 1;
nodes = (
"694.698 563.446 LINE",
"645.808 550.498 LINE",
"606.217 595.968 LINE",
"655.577 623.154 LINE",
"705.001 616.237 LINE"
);
}
);
width = 1002;
}
);
leftKerningGroup = O;
rightKerningGroup = E;
unicode = 0152;
userData = {
com.typemytype.robofont.guides = (
{
angle = 90;
isGlobal = 0;
magnetic = 5;
x = 842;
y = 0;
},
{
angle = 90;
isGlobal = 0;
magnetic = 5;
x = 66;
y = 0;
},
{
angle = 90;
isGlobal = 0;
magnetic = 5;
x = 439;
y = 0;
},
{
angle = 90;
isGlobal = 0;
magnetic = 5;
x = 502;
y = 0;
}
);
};
},
{
color = 1;
glyphname = P;
layers = (
{
hints = (
{
horizontal = 1;
place = "{-2147483648, 0}";
type = Tag;
name = hr00;
}
);
layerId = "EC64484B-0978-4CB1-9EE9-C40A2D8C4059";
paths = (
{
closed = 1;
nodes = (
"107.75 -32 LINE",
"133.5 20 LINE",
"159.25 -23 LINE",
"185 20 LINE",
"226.596 -27 LINE",
"268.192 20 LINE",
"313.033 32 LINE",
"295 74.774 LINE",
"347 100.651 LINE",
"295 126.528 LINE",
"349 146.434 LINE",
"295 166.34 LINE",
"338 198.189 LINE",
"295 230.038 LINE",
"321.43 195.004 LINE",
"330.217 238 LINE",
"357.609 189 LINE",
"385 238 LINE",
"424.274 184.215 LINE",
"456.966 242.236 LINE",
"487.146 198.893 LINE",
"500.335 250.035 LINE",
"540.675 210.67 LINE",
"549.761 266.297 LINE",
"603.948 234.897 LINE",
"600.929 297.452 LINE",
"655.593 283.846 LINE",
"635.252 336.378 LINE",
"695.2 348.835 LINE",
"660.48 399.268 LINE",
"705.682 413.636 LINE",
"665.588 438.976 LINE",
"713.915 464.339 LINE",
"664.28 487.035 LINE",
"694.317 537.413 LINE",
"641.83 563.591 LINE",
"677.993 611.985 LINE",
"619.511 596.832 LINE",
"629.971 655.053 LINE",
"574.019 635.856 LINE",
"564.154 703.4 LINE",
"508.011 664.575 LINE",
"494.205 725.708 LINE",
"457.006 675.268 LINE",
"422.614 735.522 LINE",
"381.013 680 LINE",
"343.138 736 LINE",
"305.263 680 LINE",
"265.395 735 LINE",
"225.526 680 LINE",
"201.605 727 LINE",
"177.684 680 LINE",
"145.789 739 LINE",
"113.895 680 LINE",
"77.882 704.495 LINE",
"75 661.037 LINE",
"26 633.123 LINE",
"75 605.21 LINE",
"31 569.321 LINE",
"75 533.432 LINE",
"30 503.525 LINE",
"75 473.617 LINE",
"24 433.741 LINE",
"75 393.864 LINE",
"24 357.975 LINE",
"75 322.086 LINE",
"29 286.198 LINE",
"75 250.309 LINE",
"20 218.407 LINE",
"75 186.506 LINE",
"30 164.574 LINE",
"75 142.642 LINE",
"21 110.741 LINE",
"75 78.84 LINE",
"25 58.901 LINE",
"75 38.963 LINE"
);
},
{
closed = 1;
nodes = (
"318.42 402.868 LINE",
"290 422.737 LINE",
"312.54 442.605 LINE",
"290 462.474 LINE",
"314.01 482.342 LINE",
"290 502.211 LINE",
"316.275 512.6 LINE",
"297.826 534 LINE",
"317.391 509.99 LINE",
"336.957 534 LINE",
"356.522 507.05 LINE",
"376.087 534 LINE",
"390.459 509.185 LINE",
"414.83 524.297 LINE",
"409.221 494.295 LINE",
"439.711 492.901 LINE",
"422.477 469.74 LINE",
"445.917 452.886 LINE",
"421.039 438.771 LINE",
"434.821 413.708 LINE",
"405.772 416.562 LINE",
"404.144 387.418 LINE",
"382.029 405.176 LINE",
"364.348 383 LINE",
"344.783 411.91 LINE",
"325.217 383 LINE"
);
},
{
closed = 1;
nodes = (
"200.633 241.184 LINE",
"183.437 225.149 LINE",
"167.405 238.661 LINE",
"162.586 264.747 LINE",
"194.575 269.489 LINE"
);
},
{
closed = 1;
nodes = (
"237.774 361.881 LINE",
"230.091 361.752 LINE",
"226.129 368.336 LINE",
"232.269 372.955 LINE",
"239.344 369.958 LINE"
);
},
{
closed = 1;
nodes = (
"195.673 367.661 LINE",
"188.709 359.064 LINE",
"179.215 358.106 LINE",
"175.728 368.746 LINE",
"185.419 370.985 LINE"
);
},
{
closed = 1;
nodes = (
"599.436 385.949 LINE",
"587.786 364.714 LINE",
"562.255 362.887 LINE",
"561.431 388.033 LINE",
"579.656 399.928 LINE"
);
},
{
closed = 1;
nodes = (
"616.76 495.287 LINE",
"614 479.144 LINE",
"593.956 479.623 LINE",
"590.47 499.915 LINE",
"607.254 504.934 LINE"
);
},
{
closed = 1;
nodes = (
"249.478 581.531 LINE",
"200.708 528.591 LINE",
"136.85 532.762 LINE",
"139.767 595.301 LINE",
"189.159 620.118 LINE"
);
},
{
closed = 1;
nodes = (
"492.579 357.611 LINE",
"463.76 338.17 LINE",
"444.503 364.218 LINE",
"455.5 388.919 LINE",
"487.743 392.037 LINE"
);
},
{
closed = 1;
nodes = (
"317.414 605.253 LINE",
"285.91 601.385 LINE",
"283.294 628.053 LINE",
"295.953 649.814 LINE",
"319.845 634.72 LINE"
);
},
{
closed = 1;
nodes = (
"229.843 58.122 LINE",
"171.811 68.646 LINE",
"173.582 127.598 LINE",
"226.459 152.228 LINE",
"275.914 105.297 LINE"
);
},
{
closed = 1;
nodes = (
"122.794 264.5 LINE",
"112.297 256.284 LINE",
"101.077 267.537 LINE",
"111.339 277.222 LINE",
"123.918 277.03 LINE"
);
},
{
closed = 1;
nodes = (
"536.761 626.481 LINE",
"532.727 608.257 LINE",
"513.77 613.03 LINE",
"512.218 629.494 LINE",
"525.219 633.925 LINE"
);
},
{
closed = 1;
nodes = (
"225.988 418.302 LINE",
"211.513 399.775 LINE",
"192.735 410.053 LINE",
"192.604 429.466 LINE",
"211.472 434.035 LINE"
);
}
);
width = 705;
}
);
leftKerningGroup = I;
unicode = 0050;
userData = {
com.typemytype.robofont.guides = (
{
angle = 0;
isGlobal = 0;
magnetic = 5;
x = 0;
y = 493;
},
{
angle = 0;
isGlobal = 0;
magnetic = 5;
x = 0;
y = 403;
},
{
angle = 0;
isGlobal = 0;
magnetic = 5;
x = 0;
y = 218;
},
{
angle = 0;
isGlobal = 0;
magnetic = 5;
x = 0;
y = 310;
},
{
angle = 0;
isGlobal = 0;
magnetic = 5;
x = 0;
y = 9;
},
{
angle = 0;
isGlobal = 0;
magnetic = 5;
x = 0;
y = 691;
},
{
angle = 90;
isGlobal = 0;
magnetic = 5;
x = 345;
y = 0;
},
{
angle = 90;
isGlobal = 0;
magnetic = 5;
x = 94;
y = 0;
},
{
angle = 90;
isGlobal = 0;
magnetic = 5;
x = 139;
y = 0;
}
);
};
},
{
color = 1;
glyphname = Thorn;
layers = (
{
hints = (
{
horizontal = 1;
place = "{-2147483648, 0}";
type = Tag;
name = hr00;
}
);
layerId = "EC64484B-0978-4CB1-9EE9-C40A2D8C4059";
paths = (
{
closed = 1;
nodes = (
"101.808 -30 LINE",
"121.615 20 LINE",
"159.25 -32 LINE",
"196.885 20 LINE",
"228.577 -27 LINE",
"260.269 20 LINE",
"308.598 20.62 LINE",
"295 67 LINE",
"353 89 LINE",
"295 111 LINE",
"338.942 98.216 LINE",
"318.182 139 LINE",
"339.432 90 LINE",
"360.682 139 LINE",
"386.962 99.376 LINE",
"412.084 139.745 LINE",
"446.499 99.055 LINE",
"471.901 145.904 LINE",
"511.449 111.436 LINE",
"530.223 160.422 LINE",
"587.995 127.392 LINE",
"593.981 193.67 LINE",
"654.599 177.971 LINE",
"634.87 237.4 LINE",
"693.031 250.36 LINE",
"660.407 300.225 LINE",
"710.731 316.257 LINE",
"665.767 343.966 LINE",
"710.512 383.985 LINE",
"659.608 415.803 LINE",
"685.988 471.52 LINE",
"626.725 488.493 LINE",
"645.306 547.356 LINE",
"586.766 527.782 LINE",
"579.753 578.131 LINE",
"533.851 556.288 LINE",
"523.501 605.37 LINE",
"487.732 570.203 LINE",
"474.205 623.165 LINE",
"444.161 577.5 LINE",
"414.804 629.176 LINE",
"380 581 LINE",
"352.955 634 LINE",
"325.909 581 LINE",
"344.979 630.348 LINE",
"295 613 LINE",
"343 643 LINE",
"295 673 LINE",
"274.86 732.044 LINE",
"240.462 680 LINE",
"202.827 726 LINE",
"165.192 680 LINE",
"123.596 734 LINE",
"82 680 LINE",
"33.92 660.703 LINE",
"75 629.136 LINE",
"16 595.241 LINE",
"75 561.346 LINE",
"24 539.414 LINE",
"75 517.481 LINE",
"22 481.593 LINE",
"75 445.704 LINE",
"25 415.796 LINE",
"75 385.889 LINE",
"17 350 LINE",
"75 314.111 LINE",
"19 288.191 LINE",
"75 262.272 LINE",
"35 238.346 LINE",
"75 214.42 LINE",
"34 192.488 LINE",
"75 170.556 LINE",
"16 134.667 LINE",
"75 98.778 LINE",
"29 72.858 LINE",
"75 46.938 LINE"
);
},
{
closed = 1;
nodes = (
"317.93 303.868 LINE",
"290 323.737 LINE",
"314.01 343.605 LINE",
"290 363.474 LINE",
"314.01 383.342 LINE",
"290 403.211 LINE",
"320.557 412.546 LINE",
"297.826 435 LINE",
"317.391 406.58 LINE",
"336.957 435 LINE",
"356.522 412.46 LINE",
"376.087 435 LINE",
"389.744 407.333 LINE",
"414.83 425.297 LINE",
"411.525 397.121 LINE",
"439.711 393.901 LINE",
"418.603 370.139 LINE",
"445.917 353.886 LINE",
"417.267 340.839 LINE",
"434.821 314.708 LINE",
"403.859 319.794 LINE",
"404.144 288.418 LINE",
"381.056 314.942 LINE",
"364.348 284 LINE",
"344.783 311.93 LINE",
"325.217 284 LINE"
);
},
{
closed = 1;
nodes = (
"232.962 282.836 LINE",
"186.987 229.247 LINE",
"132.864 259.277 LINE",
"130.023 317.014 LINE",
"185.365 324.467 LINE"
);
},
{
closed = 1;
nodes = (
"417.178 186.763 LINE",
"409.05 188.05 LINE",
"405.981 197.086 LINE",
"415.408 201.889 LINE",
"421.902 194.251 LINE"
);
},
{
closed = 1;
nodes = (
"239.959 445.644 LINE",
"225.505 442.874 LINE",
"217.032 454.907 LINE",
"227.339 464.673 LINE",
"240.177 460.359 LINE"
);
},
{
closed = 1;
nodes = (
"222.519 605.426 LINE",
"204.24 579.17 LINE",
"179.075 600.238 LINE",
"180.257 633.037 LINE",
"211.5 628.187 LINE"
);
},
{
closed = 1;
nodes = (
"96.756 439.936 LINE",
"87.443 441.245 LINE",
"84.911 450.945 LINE",
"94.253 455.912 LINE",
"100.878 448.389 LINE"
);
},
{
closed = 1;
nodes = (
"92.316 313.832 LINE",
"84.055 309.911 LINE",
"81.068 318.974 LINE",
"86.264 327.848 LINE",
"93.298 320.817 LINE"
);
},
{
closed = 1;
nodes = (
"498.012 458.645 LINE",
"474.387 443.137 LINE",
"456.459 463.634 LINE",
"466.5 486.187 LINE",
"487.706 479.89 LINE"
);
},
{
closed = 1;
nodes = (
"271.07 75.129 LINE",
"253 66 LINE",
"234.93 75.129 LINE",
"237.718 102.034 LINE",
"266.519 99.607 LINE"
);
},
{
closed = 1;
nodes = (
"132.54 582.09 LINE",
"115.979 578.979 LINE",
"115.526 597.356 LINE",
"130.503 606.803 LINE",
"144.791 593.659 LINE"
);
},
{
closed = 1;
nodes = (
"156.996 468.244 LINE",
"152.736 460.482 LINE",
"142.908 462.459 LINE",
"145.026 471.355 LINE",
"152.756 477.613 LINE"
);
},
{
closed = 1;
nodes = (
"298.873 528.943 LINE",
"284.305 526.857 LINE",
"281.256 540.25 LINE",
"289.606 553.939 LINE",
"303.887 543.47 LINE"
);
},
{
closed = 1;
nodes = (
"584.745 431.887 LINE",
"557.669 431.142 LINE",
"541.718 456.299 LINE",
"567.257 469.924 LINE",
"594.774 460.94 LINE"
);
},
{
closed = 1;
nodes = (
"645.053 294.292 LINE",
"632.122 295.91 LINE",
"621.832 309.253 LINE",
"638 322 LINE",
"652.266 308.635 LINE"
);
},
{
closed = 1;
nodes = (
"505.286 344.609 LINE",
"479.626 343.384 LINE",
"465.068 356.431 LINE",
"471.669 384.695 LINE",
"504.887 377.026 LINE"
);
},
{
closed = 1;
nodes = (
"272.084 154.512 LINE",
"245.496 168.052 LINE",
"232.834 193.274 LINE",
"260.227 196.844 LINE",
"283.605 185.515 LINE"
);
}
);
width = 705;
}
);
leftKerningGroup = I;
unicode = 00DE;
userData = {
com.typemytype.robofont.guides = (
{
angle = 0;
isGlobal = 0;
magnetic = 5;
x = 0;
y = 119;
},
{
angle = 0;
isGlobal = 0;
magnetic = 5;
x = 0;
y = 601;
},
{
angle = 0;
isGlobal = 0;
magnetic = 5;
x = 0;
y = 570;
},
{
angle = 0;
isGlobal = 0;
magnetic = 5;
x = 0;
y = 350;
}
);
};
},
{
color = 1;
glyphname = Q;
layers = (
{
hints = (
{
horizontal = 1;
place = "{-2147483648, 0}";
type = Tag;
name = hr01;
}
);
layerId = "EC64484B-0978-4CB1-9EE9-C40A2D8C4059";
paths = (
{
closed = 1;
nodes = (
"526 -100 LINE",
"554 -45 LINE",
"596 -103 LINE",
"638 -45 LINE",
"658 -101 LINE",
"678 -45 LINE",
"719.935 -39.723 LINE",
"680.462 -24.615 LINE",
"708.833 36.056 LINE",
"642.103 30.308 LINE",
"662.381 78.117 LINE",
"610.513 75.538 LINE",
"667.954 85.05 LINE",
"653.263 141.389 LINE",
"716.317 162.201 LINE",
"679.011 217.131 LINE",
"725.898 253.981 LINE",
"685.03 297.411 LINE",
"743.228 331.477 LINE",
"685.427 366.212 LINE",
"728.118 387.094 LINE",
"684.818 406.681 LINE",
"736.064 451.603 LINE",
"677.737 486.848 LINE",
"710.621 534.694 LINE",
"654.925 551.079 LINE",
"684.088 602.45 LINE",
"625.593 594.222 LINE",
"638.284 661.16 LINE",
"573.965 638.692 LINE",
"566.14 690.599 LINE",
"520.039 665.493 LINE",
"517.363 724.93 LINE",
"481.632 677.357 LINE",
"452.159 737.461 LINE",
"406.176 688.812 LINE",
"365.584 742.509 LINE",
"325.803 688.208 LINE",
"285.572 723.262 LINE",
"258.368 677.357 LINE",
"224.049 712.667 LINE",
"216.205 664.055 LINE",
"168.366 701.711 LINE",
"169.436 640.839 LINE",
"117.637 661.087 LINE",
"125.353 606.009 LINE",
"60.054 611.658 LINE",
"85.075 551.079 LINE",
"19.858 527.859 LINE",
"59.379 471.022 LINE",
"5.244 435.799 LINE",
"54.933 394.541 LINE",
"4.72 372.766 LINE",
"54.502 350.023 LINE",
"10.634 329.504 LINE",
"54.763 309.551 LINE",
"4.899 266.655 LINE",
"58.898 229.097 LINE",
"11.657 181.292 LINE",
"76.467 163.497 LINE",
"45.181 101.93 LINE",
"114.239 102.455 LINE",
"98.689 39.055 LINE",
"159.387 63.076 LINE",
"174.222 11.38 LINE",
"224.048 31.627 LINE",
"237.029 -21.404 LINE",
"274.375 18.423 LINE",
"302.46 -35.136 LINE",
"341.967 10.651 LINE",
"370.645 -35.368 LINE",
"399.381 10.614 LINE",
"410.387 -47.461 LINE",
"455.667 -9.467 LINE",
"432.121 -59.771 LINE",
"484.868 -42.374 LINE"
);
},
{
closed = 1;
nodes = (
"357.243 208.542 LINE",
"330.128 172.163 LINE",
"336.552 214.515 LINE",
"297.807 196.244 LINE",
"312.509 225.699 LINE",
"280.352 232.747 LINE",
"304.329 255.932 LINE",
"275.729 273.092 LINE",
"304.157 294.007 LINE",
"274.78 313.565 LINE",
"308.24 334.037 LINE",
"274.503 354.049 LINE",
"312.502 373.913 LINE",
"274.906 394.531 LINE",
"298.964 414.13 LINE",
"276 435 LINE",
"305.463 450.596 LINE",
"282.744 474.992 LINE",
"326.749 472.287 LINE",
"303.38 509.673 LINE",
"339.409 488.88 LINE",
"337.881 530.451 LINE",
"361.197 502.665 LINE",
"378.135 534.74 LINE",
"389.632 499.749 LINE",
"417.142 524.24 LINE",
"410.137 486.918 LINE",
"446.757 496.968 LINE",
"428.025 468.016 LINE",
"461.377 459.254 LINE",
"434.615 436.831 LINE",
"464.522 418.815 LINE",
"444.844 398.172 LINE",
"465.338 378.339 LINE",
"437.403 358.007 LINE",
"465.468 337.855 LINE",
"441.186 317.939 LINE",
"464.921 297.374 LINE",
"435.343 278.093 LINE",
"463.553 256.86 LINE",
"432.754 243.088 LINE",
"454.497 217.292 LINE",
"417.714 219.017 LINE",
"430.817 184.604 LINE",
"395.573 212.121 LINE",
"394.293 167.426 LINE"
);
},
{
closed = 1;
nodes = (
"382.544 639.854 LINE",
"360.436 587.294 LINE",
"313.145 601.954 LINE",
"307.184 639.238 LINE",
"337.86 668.9 LINE"
);
},
{
closed = 1;
nodes = (
"244.09 329.857 LINE",
"234.439 327.453 LINE",
"233.636 338.126 LINE",
"241.697 342.97 LINE",
"247.821 336.575 LINE"
);
},
{
closed = 1;
nodes = (
"112.99 209.5 LINE",
"94.802 192.546 LINE",
"78.121 214.7 LINE",
"92.272 234.357 LINE",
"117.835 233.059 LINE"
);
},
{
closed = 1;
nodes = (
"207.437 200.388 LINE",
"182.784 201.68 LINE",
"173.594 226.601 LINE",
"197.622 248.958 LINE",
"219.182 224.212 LINE"
);
},
{
closed = 1;
nodes = (
"609.881 272.05 LINE",
"599.724 244.551 LINE",
"571.26 261.395 LINE",
"571.328 295.142 LINE",
"606.679 301.189 LINE"
);
},
{
closed = 1;
nodes = (
"310.488 75.916 LINE",
"276.533 47.653 LINE",
"255.282 85.964 LINE",
"273.041 112.47 LINE",
"305.58 110.84 LINE"
);
},
{
closed = 1;
nodes = (
"654.43 391.914 LINE",
"612.452 374.974 LINE",
"598.088 409.995 LINE",
"604.589 450.661 LINE",
"651.188 438.242 LINE"
);
},
{
closed = 1;
nodes = (
"563.768 528.804 LINE",
"505.218 510.937 LINE",
"486.02 557.848 LINE",
"501.899 605.985 LINE",
"558.401 589.783 LINE"
);
},
{
closed = 1;
nodes = (
"529.547 345.439 LINE",
"517.702 341.874 LINE",
"510.046 353.046 LINE",
"519.975 360.769 LINE",
"531.429 357.665 LINE"
);
},
{
closed = 1;
nodes = (
"133.835 562.283 LINE",
"126.219 554.075 LINE",
"113.218 558.506 LINE",
"118.18 571.314 LINE",
"130.333 573.621 LINE"
);
},
{
closed = 1;
nodes = (
"256.137 527.774 LINE",
"223.144 544.679 LINE",
"215.602 568.241 LINE",
"237.395 579.951 LINE",
"260.257 566.048 LINE"
);
},
{
closed = 1;
nodes = (
"541.709 276.643 LINE",
"531.635 268.443 LINE",
"522.018 280.32 LINE",
"531.058 291.269 LINE",
"543.549 287.923 LINE"
);
},
{
closed = 1;
nodes = (
"189.649 371.955 LINE",
"141.321 351.782 LINE",
"121.02 394.848 LINE",
"137.925 440.166 LINE",
"194.189 427.399 LINE"
);
}
);
width = 742;
}
);
leftKerningGroup = O;
rightKerningGroup = O;
unicode = 0051;
userData = {
com.typemytype.robofont.guides = (
{
angle = 0;
isGlobal = 0;
magnetic = 5;
x = 0;
y = 710;
},
{
angle = 0;
isGlobal = 0;
magnetic = 5;
x = 0;
y = "-10";
},
{
angle = 0;
isGlobal = 0;
magnetic = 5;
x = 0;
y = "-56";
},
{
angle = 90;
isGlobal = 0;
magnetic = 5;
x = 82;
y = 0;
},
{
angle = 90;
isGlobal = 0;
magnetic = 5;
x = 750;
y = 0;
},
{
angle = 90;
isGlobal = 0;
magnetic = 5;
x = 580;
y = 0;
}
);
};
},
{
color = 1;
glyphname = R;
layers = (
{
anchors = (
{
name = bottom;
position = "{361, 0}";
},
{
name = top;
position = "{341, 700}";
}
);
layerId = "EC64484B-0978-4CB1-9EE9-C40A2D8C4059";
paths = (
{
closed = 1;
nodes = (
"108 -26 LINE",
"134 20 LINE",
"172 -33 LINE",
"210 20 LINE",
"248.034 -34.979 LINE",
"283 22 LINE",
"325.259 42.564 LINE",
"285 66.811 LINE",
"316.5 90.698 LINE",
"285 114.585 LINE",
"325.6 136.481 LINE",
"285 158.377 LINE",
"314.4 194.208 LINE",
"285 230.038 LINE",
"322.115 187.398 LINE",
"347.316 238 LINE",
"328.28 197.537 LINE",
"370.375 212.625 LINE",
"352.423 165.397 LINE",
"399.625 147.375 LINE",
"383.298 96.522 LINE",
"432.125 74.875 LINE",
"404.855 32.548 LINE",
"454.975 27.726 LINE",
"464.728 -28.163 LINE",
"494.712 20 LINE",
"528.221 -26 LINE",
"561.731 20 LINE",
"581.442 -34 LINE",
"601.154 20 LINE",
"620.865 -36 LINE",
"640.577 20 LINE",
"672.955 -21.456 LINE",
"677.229 30.971 LINE",
"710.264 93.902 LINE",
"639.514 100.686 LINE",
"673.936 146.343 LINE",
"616.886 142.514 LINE",
"653.756 196.255 LINE",
"588.6 194.8 LINE",
"627.483 240.617 LINE",
"567.857 233.143 LINE",
"615.124 251.111 LINE",
"585.848 292.341 LINE",
"643.739 295.196 LINE",
"637.985 352.871 LINE",
"696.286 363.064 LINE",
"659.094 409.104 LINE",
"717.069 439.675 LINE",
"663.253 477.086 LINE",
"704.07 516.348 LINE",
"650.926 535.926 LINE",
"673.734 597.371 LINE",
"608.479 603.49 LINE",
"605.104 668.997 LINE",
"542.664 648.903 LINE",
"528.602 715.585 LINE",
"477.835 670.121 LINE",
"451.422 714.11 LINE",
"414.16 678.837 LINE",
"395.411 725.399 LINE",
"374 680 LINE",
"340 725 LINE",
"306 680 LINE",
"276 734 LINE",
"246 680 LINE",
"208 730 LINE",
"170 680 LINE",
"146 721 LINE",
"122 680 LINE",
"85.446 713.483 LINE",
"75 665.025 LINE",
"28 623.154 LINE",
"75 581.284 LINE",
"21 549.383 LINE",
"75 517.481 LINE",
"18 485.58 LINE",
"75 453.679 LINE",
"23 415.796 LINE",
"75 377.914 LINE",
"28 344.019 LINE",
"75 310.123 LINE",
"31 272.241 LINE",
"75 234.358 LINE",
"17 198.469 LINE",
"75 162.58 LINE",
"21 136.66 LINE",
"75 110.741 LINE",
"29 84.821 LINE",
"75 58.901 LINE"
);
},
{
closed = 1;
nodes = (
"305.58 407.73 LINE",
"285 427.459 LINE",
"312.44 447.189 LINE",
"285 466.919 LINE",
"306.56 486.649 LINE",
"285 506.378 LINE",
"308.878 512.586 LINE",
"296.625 534 LINE",
"316 512.93 LINE",
"335.375 534 LINE",
"354.75 506.07 LINE",
"374.125 534 LINE",
"387.91 506.594 LINE",
"413.34 523.752 LINE",
"405.723 492.011 LINE",
"438.361 491.519 LINE",
"412.344 467.49 LINE",
"443.659 450.948 LINE",
"410.212 441.72 LINE",
"430.318 413.442 LINE",
"402.588 418.556 LINE",
"397.896 390.752 LINE",
"376.788 410.394 LINE",
"358.625 388 LINE",
"339.25 413.97 LINE",
"319.875 388 LINE"
);
},
{
closed = 1;
nodes = (
"638.356 378.041 LINE",
"626.291 382.064 LINE",
"619.327 390.661 LINE",
"629.093 400.968 LINE",
"638.345 391.371 LINE"
);
},
{
closed = 1;
nodes = (
"486.966 623.308 LINE",
"468.451 605.196 LINE",
"448.011 610.672 LINE",
"440.195 636.161 LINE",
"466.659 639.387 LINE"
);
},
{
closed = 1;
nodes = (
"621.92 491.302 LINE",
"605.483 448.204 LINE",
"562.954 467.145 LINE",
"548.294 514.436 LINE",
"597.225 521.99 LINE"
);
},
{
closed = 1;
nodes = (
"217.992 661.314 LINE",
"215.942 650.731 LINE",
"204.229 654.707 LINE",
"206.129 664.812 LINE",
"214.847 671.625 LINE"
);
},
{
closed = 1;
nodes = (
"551.776 158.129 LINE",
"514.068 156.208 LINE",
"511.508 191.551 LINE",
"535.907 208.984 LINE",
"572.489 193.75 LINE"
);
},
{
closed = 1;
nodes = (
"285.772 312.332 LINE",
"275.645 316.026 LINE",
"273.232 322.654 LINE",
"278.756 327.996 LINE",
"288.397 324.42 LINE"
);
},
{
closed = 1;
nodes = (
"236.488 513.993 LINE",
"209.844 513.086 LINE",
"183.02 531.152 LINE",
"210.763 548.264 LINE",
"240.871 546.776 LINE"
);
},
{
closed = 1;
nodes = (
"205.997 76.651 LINE",
"189.508 65.524 LINE",
"169.617 65.528 LINE",
"167.631 90.842 LINE",
"192.511 95.91 LINE"
);
},
{
closed = 1;
nodes = (
"461.942 82.165 LINE",
"457.736 73.152 LINE",
"447.171 78.305 LINE",
"451.684 87.168 LINE",
"458.63 88.393 LINE"
);
},
{
closed = 1;
nodes = (
"188.932 150.208 LINE",
"151.783 152.958 LINE",
"119.937 190.782 LINE",
"166.569 217.975 LINE",
"220.623 196.153 LINE"
);
},
{
closed = 1;
nodes = (
"490.547 535.439 LINE",
"479.874 534.636 LINE",
"473.038 542.872 LINE",
"481.425 548.821 LINE",
"491.572 547.15 LINE"
);
},
{
closed = 1;
nodes = (
"175.276 408.377 LINE",
"144.081 397.749 LINE",
"117.023 426.291 LINE",
"143.526 461.528 LINE",
"173.068 437.861 LINE"
);
},
{
closed = 1;
nodes = (
"415.937 357.266 LINE",
"400.11 346.023 LINE",
"385.545 358.859 LINE",
"395.554 371.387 LINE",
"409.81 373.88 LINE"
);
},
{
closed = 1;
nodes = (
"624.035 58.783 LINE",
"613.554 56.613 LINE",
"612.239 66.812 LINE",
"618.634 71.99 LINE",
"626.469 67.867 LINE"
);
},
{
closed = 1;
nodes = (
"482.949 196.535 LINE",
"466.355 180.535 LINE",
"446.735 188.461 LINE",
"444.381 212.784 LINE",
"469.118 215.616 LINE"
);
},
{
closed = 1;
nodes = (
"370.322 592.603 LINE",
"340.425 586.248 LINE",
"327.131 612.509 LINE",
"345.594 635.432 LINE",
"378.713 626 LINE"
);
},
{
closed = 1;
nodes = (
"573.217 70.698 LINE",
"561.88 72.143 LINE",
"557.231 81.025 LINE",
"565.041 89.958 LINE",
"577.046 83.689 LINE"
);
},
{
closed = 1;
nodes = (
"154.994 323.337 LINE",
"123.725 302.005 LINE",
"85.872 302.204 LINE",
"99.43 337.24 LINE",
"124.814 346.692 LINE"
);
}
);
width = 722;
}
);
leftKerningGroup = I;
rightKerningGroup = R;
unicode = 0052;
userData = {
com.typemytype.robofont.guides = (
{
angle = 0;
isGlobal = 0;
magnetic = 5;
x = 0;
y = 691;
},
{
angle = 0;
isGlobal = 0;
magnetic = 5;
x = 0;
y = 9;
},
{
angle = 90;
isGlobal = 0;
magnetic = 5;
x = 616;
y = 0;
},
{
angle = 90;
isGlobal = 0;
magnetic = 5;
x = 574;
y = 0;
},
{
angle = 90;
isGlobal = 0;
magnetic = 5;
x = 94;
y = 0;
},
{
angle = 90;
isGlobal = 0;
magnetic = 5;
x = 139;
y = 0;
}
);
};
},
{
color = 1;
glyphname = S;
layers = (
{
anchors = (
{
name = bottom;
position = "{349, 0}";
},
{
name = top;
position = "{349, 700}";
}
);
layerId = "EC64484B-0978-4CB1-9EE9-C40A2D8C4059";
paths = (
{
closed = 1;
nodes = (
"372.758 -26.943 LINE",
"395.301 12.045 LINE",
"419.878 -4.89 LINE",
"439.232 17.832 LINE",
"483.873 -8.396 LINE",
"509.14 36.796 LINE",
"541.345 19.643 LINE",
"549.412 55.229 LINE",
"588.52 44.497 LINE",
"592.503 84.854 LINE",
"631.842 102.152 LINE",
"639.889 144.366 LINE",
"671.635 175.418 LINE",
"658.834 217.941 LINE",
"684.379 263.993 LINE",
"646.61 300.692 LINE",
"659.936 345.502 LINE",
"613.43 350.259 LINE",
"610.732 395.754 LINE",
"567.325 381.864 LINE",
"538.526 420.799 LINE",
"491.773 408.17 LINE",
"475.681 439.349 LINE",
"448.593 417.046 LINE",
"420.962 437.231 LINE",
"388.805 425.536 LINE",
"369.322 445.787 LINE",
"344.356 432.888 LINE",
"326.019 460.789 LINE",
"294.303 450.358 LINE",
"315.264 487.92 LINE",
"286.169 519.601 LINE",
"326.192 511.079 LINE",
"360.821 532.881 LINE",
"376.086 502.78 LINE",
"409.234 509.127 LINE",
"440.367 482.128 LINE",
"477 501 LINE",
"511 483.5 LINE",
"545 501 LINE",
"569 474.4 LINE",
"593 501 LINE",
"623.736 491.938 LINE",
"631.581 523.007 LINE",
"636.972 571.436 LINE",
"593.252 592.953 LINE",
"594.886 631.446 LINE",
"556.927 624.856 LINE",
"543.669 671.251 LINE",
"497.182 658.317 LINE",
"477.276 700.74 LINE",
"435.964 678.621 LINE",
"396.683 704.045 LINE",
"352.107 689.821 LINE",
"331.355 726.504 LINE",
"311.751 689.196 LINE",
"266.52 704.325 LINE",
"228.153 675.994 LINE",
"187.558 698.156 LINE",
"171.532 654.771 LINE",
"141.927 665.078 LINE",
"136.875 634.14 LINE",
"81.702 631.272 LINE",
"81.596 576.024 LINE",
"38.746 571.18 LINE",
"63.259 535.702 LINE",
"21.157 523.281 LINE",
"55.652 496.134 LINE",
"20.678 463.611 LINE",
"59.55 435.863 LINE",
"42.587 382.652 LINE",
"95.362 364.379 LINE",
"110.892 321.484 LINE",
"156.42 318.591 LINE",
"176.31 291.965 LINE",
"209.01 297.91 LINE",
"231.534 270.287 LINE",
"264.043 284.901 LINE",
"285.286 262.663 LINE",
"312.045 277.822 LINE",
"332.804 253.93 LINE",
"359.997 270.124 LINE",
"391.237 238.424 LINE",
"435.683 236.092 LINE",
"395.013 216.595 LINE",
"414.786 176.059 LINE",
"388.827 189.458 LINE",
"371.38 166.027 LINE",
"343.157 183.151 LINE",
"313.779 168.095 LINE",
"297.114 197.42 LINE",
"264.332 189.481 LINE",
"246.076 219.309 LINE",
"214.167 205 LINE",
"188.437 232.3 LINE",
"162.708 205 LINE",
"135 219.7 LINE",
"107.292 205 LINE",
"69.679 236.85 LINE",
"38.153 198.966 LINE",
"17.084 147.94 LINE",
"64.388 119.482 LINE",
"61.206 74.906 LINE",
"105.886 75.774 LINE",
"122.708 40.588 LINE",
"161.602 43.464 LINE",
"184.164 8.727 LINE",
"222.895 23.413 LINE",
"241.172 -11.411 LINE",
"270.523 14.767 LINE",
"290.215 -14.105 LINE",
"314.726 10.807 LINE"
);
},
{
closed = 1;
nodes = (
"586.821 564.314 LINE",
"559.435 557.342 LINE",
"549.157 582.559 LINE",
"565.23 604.541 LINE",
"587.492 589.696 LINE"
);
},
{
closed = 1;
nodes = (
"249.515 519.886 LINE",
"203.787 546.787 LINE",
"195.597 582.982 LINE",
"230.788 604.544 LINE",
"254.631 572.693 LINE"
);
},
{
closed = 1;
nodes = (
"579.902 278.251 LINE",
"574.724 271.654 LINE",
"564.929 269.929 LINE",
"563.981 281.086 LINE",
"573.408 285.889 LINE"
);
},
{
closed = 1;
nodes = (
"405.606 590.275 LINE",
"353.558 576.717 LINE",
"325.268 610.613 LINE",
"342.827 653.971 LINE",
"393.911 645.69 LINE"
);
},
{
closed = 1;
nodes = (
"532.996 222.581 LINE",
"514.263 205.787 LINE",
"489.34 209.234 LINE",
"495.423 233.231 LINE",
"516.162 243.801 LINE"
);
},
{
closed = 1;
nodes = (
"198.856 442.116 LINE",
"163.226 380.515 LINE",
"103.996 407.789 LINE",
"83.181 473.505 LINE",
"152.096 486.515 LINE"
);
},
{
closed = 1;
nodes = (
"297.956 143.675 LINE",
"276.393 114.926 LINE",
"245.794 125.638 LINE",
"239.163 159.428 LINE",
"275.317 176.773 LINE"
);
},
{
closed = 1;
nodes = (
"488.767 267.024 LINE",
"462.736 268.328 LINE",
"459.692 295.798 LINE",
"482.605 299.772 LINE",
"499.805 287.783 LINE"
);
},
{
closed = 1;
nodes = (
"450.557 93.632 LINE",
"437.7 43.45 LINE",
"382.473 55.473 LINE",
"388.27 101.62 LINE",
"421.101 126.52 LINE"
);
},
{
closed = 1;
nodes = (
"94.256 556.545 LINE",
"84.611 561.185 LINE",
"81.17 572.883 LINE",
"93.047 572.694 LINE",
"103.998 566.227 LINE"
);
},
{
closed = 1;
nodes = (
"388.14 310.257 LINE",
"352 288 LINE",
"328.224 314.275 LINE",
"337.305 342.225 LINE",
"372.572 350.316 LINE"
);
},
{
closed = 1;
nodes = (
"268.692 345.699 LINE",
"264.726 330.142 LINE",
"249.127 333.943 LINE",
"245.954 347.689 LINE",
"258.394 358.939 LINE"
);
},
{
closed = 1;
nodes = (
"540.371 354.832 LINE",
"518.82 346.979 LINE",
"511 366 LINE",
"518.82 385.021 LINE",
"535.517 373.641 LINE"
);
},
{
closed = 1;
nodes = (
"576.715 343.365 LINE",
"565.626 333.384 LINE",
"559.038 347.128 LINE",
"564.702 358.126 LINE",
"579.566 357.185 LINE"
);
}
);
width = 697;
},
{
anchors = (
{
name = bottom;
position = "{349, 0}";
},
{
name = top;
position = "{349, 700}";
}
);
associatedMasterId = "EC64484B-0978-4CB1-9EE9-C40A2D8C4059";
layerId = "C2B87453-9BC8-4E83-A31D-28C27CBD78B7";
name = "Nov 9 20, 14:34";
paths = (
{
closed = 1;
nodes = (
"391.443 -45.917 LINE",
"427.307 15.854 LINE",
"456.804 -29.264 LINE",
"466.819 23.702 LINE",
"507.31 -24.342 LINE",
"512.901 38.24 LINE",
"577.639 9.347 LINE",
"586.301 79.708 LINE",
"633.07 67.112 LINE",
"620.388 113.858 LINE",
"685.707 112.368 LINE",
"649.297 166.618 LINE",
"700.625 193.692 LINE",
"658.893 234.016 LINE",
"704.171 269.121 LINE",
"650.564 289.34 LINE",
"661.572 346.598 LINE",
"604.439 358.24 LINE",
"603.633 406.772 LINE",
"560.092 385.321 LINE",
"540.263 432.719 LINE",
"495.664 407.21 LINE",
"480.055 439.857 LINE",
"452.541 416.352 LINE",
"435.392 450.123 LINE",
"408.956 422.998 LINE",
"379.321 458.117 LINE",
"340.354 433.763 LINE",
"331.565 477.461 LINE",
"297.848 448.307 LINE",
"320.36 490.377 LINE",
"273.455 499.126 LINE",
"320.794 483.74 LINE",
"319.668 533.504 LINE",
"342.832 503.561 LINE",
"368.976 530.94 LINE",
"389.17 484.577 LINE",
"437 501 LINE",
"463 465.3 LINE",
"489 501 LINE",
"509 468.8 LINE",
"529 501 LINE",
"569 465.3 LINE",
"609 501 LINE",
"653.99 521.808 LINE",
"619.059 556.977 LINE",
"639.224 607.909 LINE",
"584.808 601.625 LINE",
"582.77 656.537 LINE",
"529.721 642.213 LINE",
"523.492 707.403 LINE",
"470.828 668.478 LINE",
"464.604 720.171 LINE",
"432.036 679.548 LINE",
"414.996 724.004 LINE",
"384.309 687.603 LINE",
"342.424 737.969 LINE",
"299.669 688.339 LINE",
"274.325 726.365 LINE",
"259.653 683.087 LINE",
"204.676 726.088 LINE",
"182.5 659.909 LINE",
"126.949 680.744 LINE",
"120.973 621.716 LINE",
"64.166 630.859 LINE",
"81.596 576.024 LINE",
"21.838 556.592 LINE",
"56.479 504.166 LINE",
"5.068 467.635 LINE",
"59.55 435.863 LINE",
"21.079 398.286 LINE",
"74.702 394.215 LINE",
"55.949 336.936 LINE",
"115.709 344.769 LINE",
"118.152 308.016 LINE",
"152.827 320.442 LINE",
"158.432 282.85 LINE",
"189.83 304.268 LINE",
"219.689 266.814 LINE",
"264.043 284.901 LINE",
"299.513 248.476 LINE",
"344.061 272.978 LINE",
"369.756 229.022 LINE",
"414.136 253.977 LINE",
"394.857 212.856 LINE",
"434.3 190.342 LINE",
"385.789 205.735 LINE",
"355.136 165.106 LINE",
"320.066 204.252 LINE",
"271.244 184.79 LINE",
"250.594 232.995 LINE",
"206.25 205 LINE",
"166.667 240 LINE",
"127.083 205 LINE",
"101.354 246.3 LINE",
"75.625 205 LINE",
"39.974 231.062 LINE",
"39.199 186.908 LINE",
"2.607 156.66 LINE",
"49.276 147.947 LINE",
"30.133 84.38 LINE",
"96.514 83.435 LINE",
"95.926 27.579 LINE",
"146.968 50.275 LINE",
"161.612 -8.533 LINE",
"211.153 26.373 LINE",
"239.371 -33.514 LINE",
"286.558 12.92 LINE",
"303.587 -36.284 LINE",
"326.823 10.311 LINE"
);
},
{
closed = 1;
nodes = (
"423.338 75.123 LINE",
"368.766 83.766 LINE",
"366.36 135.16 LINE",
"407.006 148.606 LINE",
"437.557 122.632 LINE"
);
},
{
closed = 1;
nodes = (
"159.776 413.129 LINE",
"118.374 406.48 LINE",
"108.231 450.655 LINE",
"144.675 485.971 LINE",
"198.753 453.987 LINE"
);
},
{
closed = 1;
nodes = (
"408.659 533.588 LINE",
"404.446 522.613 LINE",
"394.595 525.56 LINE",
"389.664 534.584 LINE",
"399.523 540.986 LINE"
);
},
{
closed = 1;
nodes = (
"486.615 339.278 LINE",
"456.908 327.091 LINE",
"431.718 344.701 LINE",
"444.064 375.858 LINE",
"483.93 379.679 LINE"
);
},
{
closed = 1;
nodes = (
"482.575 522.511 LINE",
"458.088 535.298 LINE",
"448.155 556.72 LINE",
"471.072 563.873 LINE",
"488.633 550.816 LINE"
);
},
{
closed = 1;
nodes = (
"371.846 578.838 LINE",
"322.288 586.358 LINE",
"299.786 636.48 LINE",
"351 659.895 LINE",
"398.455 629.58 LINE"
);
},
{
closed = 1;
nodes = (
"558.545 577.664 LINE",
"535.494 580.906 LINE",
"525.775 600.513 LINE",
"544.546 607.992 LINE",
"558.156 599.788 LINE"
);
},
{
closed = 1;
nodes = (
"505.923 145.202 LINE",
"485 131 LINE",
"456.468 142.729 LINE",
"467.954 175.461 LINE",
"493.817 164.135 LINE"
);
},
{
closed = 1;
nodes = (
"208.62 72.215 LINE",
"196.838 73.628 LINE",
"195.306 83.047 LINE",
"201.843 89.999 LINE",
"208.619 83.279 LINE"
);
},
{
closed = 1;
nodes = (
"378.181 350.575 LINE",
"363.093 347.654 LINE",
"347.003 359.349 LINE",
"362.322 374.301 LINE",
"379.287 367.604 LINE"
);
},
{
closed = 1;
nodes = (
"159.996 164.209 LINE",
"155.71 159.302 LINE",
"149.272 160.306 LINE",
"148.197 167.914 LINE",
"155.378 168.806 LINE"
);
},
{
closed = 1;
nodes = (
"169.037 338.853 LINE",
"152.5 338.742 LINE",
"148.24 352.287 LINE",
"157.746 361.934 LINE",
"171.79 355.694 LINE"
);
},
{
closed = 1;
nodes = (
"623.353 133.055 LINE",
"615 133.804 LINE",
"611.153 140.455 LINE",
"616.955 148.945 LINE",
"626.222 142.661 LINE"
);
},
{
closed = 1;
nodes = (
"539.279 537.381 LINE",
"526.618 536.176 LINE",
"528.808 549.736 LINE",
"541.093 557.388 LINE",
"549.998 544.227 LINE"
);
}
);
width = 697;
}
);
leftKerningGroup = S;
rightKerningGroup = S;
unicode = 0053;
userData = {
com.typemytype.robofont.guides = (
{
angle = 0;
isGlobal = 0;
magnetic = 5;
x = 0;
y = 355;
},
{
angle = 90;
isGlobal = 0;
magnetic = 5;
x = 306;
y = 0;
}
);
};
},
{
color = 1;
glyphname = Scedilla;
layers = (
{
hints = (
{
horizontal = 1;
place = "{-2147483648, 0}";
type = Tag;
name = hr01;
}
);
layerId = "EC64484B-0978-4CB1-9EE9-C40A2D8C4059";
paths = (
{
closed = 1;
nodes = (
"389.934 -230.676 LINE",
"405.273 -178.477 LINE",
"440.94 -145.782 LINE",
"420.282 -102.028 LINE",
"452.361 -55.42 LINE",
"397.576 -69.562 LINE",
"371.383 -23.132 LINE",
"322.5 -44.4 LINE",
"367.335 -34.205 LINE",
"329.769 -7.692 LINE",
"370.046 -27.992 LINE",
"391.325 11.776 LINE",
"421.163 -30.762 LINE",
"439.253 17.947 LINE",
"485.661 -23.527 LINE",
"505.362 35.512 LINE",
"547.32 -10.593 LINE",
"542.293 51.543 LINE",
"589.371 22.111 LINE",
"583.133 77.281 LINE",
"631.491 58.315 LINE",
"615.282 107.666 LINE",
"672.83 92.554 LINE",
"638.033 140.817 LINE",
"696.336 150.467 LINE",
"656.288 193.925 LINE",
"702.133 230.123 LINE",
"655.979 265.927 LINE",
"700.008 310.384 LINE",
"638.003 318.772 LINE",
"643.844 370.789 LINE",
"591.585 367.811 LINE",
"580.888 418.938 LINE",
"534.066 395.785 LINE",
"521.829 440.109 LINE",
"487.875 409.102 LINE",
"469.681 441.213 LINE",
"440.688 418.376 LINE",
"409.553 458.775 LINE",
"368.533 428.462 LINE",
"342.801 466.519 LINE",
"301.488 446.427 LINE",
"315.133 487.554 LINE",
"273.699 474.872 LINE",
"313.295 488.698 LINE",
"303.849 529.56 LINE",
"344.09 497.2 LINE",
"388.535 523.489 LINE",
"385.854 479.074 LINE",
"424.361 501.369 LINE",
"454.442 461.985 LINE",
"485 501 LINE",
"509 464.6 LINE",
"533 501 LINE",
"567 460.4 LINE",
"601 501 LINE",
"634.697 467.75 LINE",
"632.976 515.058 LINE",
"666.081 572.103 LINE",
"601.171 583.794 LINE",
"598.624 642.585 LINE",
"540.142 636.051 LINE",
"526.598 702.857 LINE",
"467.004 669.766 LINE",
"438.879 729.233 LINE",
"388.319 687.148 LINE",
"349.291 745.033 LINE",
"307.721 688.945 LINE",
"269.171 730.947 LINE",
"243.826 679.88 LINE",
"205.768 722.792 LINE",
"197.438 666.044 LINE",
"157.045 694.377 LINE",
"153.793 645.145 LINE",
"103.494 660.324 LINE",
"106.303 607.86 LINE",
"52.555 617.648 LINE",
"77.52 569.054 LINE",
"24.194 550.49 LINE",
"56.479 504.166 LINE",
"10.298 457.898 LINE",
"63.744 420.257 LINE",
"38.4 377.769 LINE",
"87.712 373.781 LINE",
"84.93 311.76 LINE",
"145.732 324.312 LINE",
"165.795 271.68 LINE",
"216.769 295.645 LINE",
"245.225 253.386 LINE",
"287.988 281.079 LINE",
"309.075 242.709 LINE",
"340.066 273.636 LINE",
"356.592 233.753 LINE",
"387.604 263.786 LINE",
"395.921 222.643 LINE",
"435.683 236.092 LINE",
"380.438 218.614 LINE",
"425.394 182.056 LINE",
"395.58 204.654 LINE",
"387.513 168.124 LINE",
"360.678 206.478 LINE",
"338.647 165.176 LINE",
"314.116 200.91 LINE",
"274.817 182.626 LINE",
"264.915 218.865 LINE",
"230 205 LINE",
"190.417 237.2 LINE",
"150.833 205 LINE",
"123.125 243.5 LINE",
"95.417 205 LINE",
"62.164 245.743 LINE",
"38.123 198.97 LINE",
"-11.7 170.03 LINE",
"44.921 159.358 LINE",
"17.909 110.553 LINE",
"73.545 106.528 LINE",
"70.153 46.57 LINE",
"128.695 59.962 LINE",
"139.017 -6.763 LINE",
"195.014 30.962 LINE",
"204.068 -23.901 LINE",
"237.989 20.158 LINE",
"267.313 -38.824 LINE",
"309.948 11.386 LINE",
"248.599 3.177 LINE",
"297.2 -35.15 LINE",
"264.916 -62.608 LINE",
"299.75 -86.75 LINE",
"326.593 -127.236 LINE",
"353.089 -86.522 LINE",
"335.924 -137.621 LINE",
"388.499 -149.525 LINE",
"351.13 -133.097 LINE",
"349.041 -173.864 LINE",
"328.217 -131.539 LINE",
"299 -168.571 LINE"
);
},
{
closed = 1;
nodes = (
"358.761 625.519 LINE",
"347.219 618.075 LINE",
"337.843 624.196 LINE",
"340.544 633.851 LINE",
"351.333 637.621 LINE"
);
},
{
closed = 1;
nodes = (
"233.704 131.645 LINE",
"194.643 93.112 LINE",
"153.99 102.58 LINE",
"152.287 142 LINE",
"186.861 158.279 LINE"
);
},
{
closed = 1;
nodes = (
"442.45 304.594 LINE",
"399.542 318.348 LINE",
"391.273 349.034 LINE",
"416 388 LINE",
"448.336 351.507 LINE"
);
},
{
closed = 1;
nodes = (
"240.718 377.474 LINE",
"237.726 362.142 LINE",
"216.879 359.906 LINE",
"217.113 380.47 LINE",
"231.307 389.943 LINE"
);
},
{
closed = 1;
nodes = (
"160.506 558.906 LINE",
"139.302 558.028 LINE",
"133.146 579.498 LINE",
"151.698 592.988 LINE",
"167.341 577.686 LINE"
);
},
{
closed = 1;
nodes = (
"238.513 548.274 LINE",
"236.996 515.713 LINE",
"197.694 518.34 LINE",
"194.226 554.94 LINE",
"222.615 573.886 LINE"
);
},
{
closed = 1;
nodes = (
"316.991 351.523 LINE",
"305.762 340.663 LINE",
"294.12 344.843 LINE",
"292.881 357.151 LINE",
"307.237 369.264 LINE"
);
},
{
closed = 1;
nodes = (
"426.962 56.477 LINE",
"379.324 53.782 LINE",
"357.137 89.138 LINE",
"385.802 117.18 LINE",
"426.43 106.086 LINE"
);
},
{
closed = 1;
nodes = (
"630.553 253.792 LINE",
"607.023 234.017 LINE",
"589.736 256.763 LINE",
"595.139 281.068 LINE",
"627.086 286.428 LINE"
);
},
{
closed = 1;
nodes = (
"458.942 137.731 LINE",
"448.783 142.965 LINE",
"447.452 152.902 LINE",
"456.553 153.796 LINE",
"461.99 148.366 LINE"
);
},
{
closed = 1;
nodes = (
"106.988 568.529 LINE",
"100.071 561.273 LINE",
"91.291 564.643 LINE",
"91.006 574.664 LINE",
"101.225 577.402 LINE"
);
},
{
closed = 1;
nodes = (
"269.94 35.15 LINE",
"263.881 23.037 LINE",
"250.825 26.64 LINE",
"246.876 41 LINE",
"261.079 43.781 LINE"
);
},
{
closed = 1;
nodes = (
"557.251 553.081 LINE",
"529.093 537.016 LINE",
"501.162 554.731 LINE",
"516.02 583.726 LINE",
"547.239 585.064 LINE"
);
},
{
closed = 1;
nodes = (
"299.186 647.788 LINE",
"291.861 622.932 LINE",
"270.381 630.968 LINE",
"257.387 649.866 LINE",
"279.942 668.984 LINE"
);
},
{
closed = 1;
nodes = (
"131.873 417.072 LINE",
"120.494 403.218 LINE",
"106.955 407.498 LINE",
"101.006 422.757 LINE",
"118.053 430.706 LINE"
);
}
);
width = 697;
}
);
leftKerningGroup = S;
rightKerningGroup = S;
unicode = 015E;
userData = {
com.typemytype.robofont.guides = (
{
angle = 90;
isGlobal = 0;
magnetic = 5;
x = 306;
y = 0;
}
);
};
},
{
color = 1;
glyphname = T;
layers = (
{
hints = (
{
horizontal = 1;
place = "{-2147483648, 0}";
type = Tag;
name = hr00;
}
);
layerId = "EC64484B-0978-4CB1-9EE9-C40A2D8C4059";
paths = (
{
closed = 1;
nodes = (
"269 -23 LINE",
"301 20 LINE",
"337 -36 LINE",
"373 20 LINE",
"408.949 -28.979 LINE",
"442 22 LINE",
"486.976 50.936 LINE",
"444 82.767 LINE",
"496 110.65 LINE",
"444 138.533 LINE",
"495 168.408 LINE",
"444 198.283 LINE",
"496 236.125 LINE",
"444 273.967 LINE",
"493 293.883 LINE",
"444 313.8 LINE",
"493 349.65 LINE",
"444 385.5 LINE",
"485 421.35 LINE",
"444 457.2 LINE",
"501 479.108 LINE",
"444 501.017 LINE",
"467.81 449.343 LINE",
"479.617 505 LINE",
"515.234 461 LINE",
"550.851 505 LINE",
"582.511 448 LINE",
"614.17 505 LINE",
"652.062 508.472 LINE",
"637 543.415 LINE",
"682 566.976 LINE",
"637 590.537 LINE",
"680 623.915 LINE",
"637 657.293 LINE",
"649.162 692.529 LINE",
"614.054 680 LINE",
"578.177 726 LINE",
"542.299 680 LINE",
"514.395 731 LINE",
"486.49 680 LINE",
"460.578 722 LINE",
"434.667 680 LINE",
"392.81 736 LINE",
"350.952 680 LINE",
"325.041 720 LINE",
"299.129 680 LINE",
"277.204 738 LINE",
"255.279 680 LINE",
"227.374 728 LINE",
"199.469 680 LINE",
"175.551 733 LINE",
"151.633 680 LINE",
"123.728 725 LINE",
"95.823 680 LINE",
"65.336 737.963 LINE",
"39 678 LINE",
"-2.984 643.264 LINE",
"37 606.244 LINE",
"-17 570.902 LINE",
"37 535.561 LINE",
"-8.565 494.404 LINE",
"51.915 505 LINE",
"89.511 464 LINE",
"127.106 505 LINE",
"158.766 453 LINE",
"190.426 505 LINE",
"210.213 450 LINE",
"230 505 LINE",
"189 481.1 LINE",
"230 457.2 LINE",
"175 437.283 LINE",
"230 417.367 LINE",
"172 393.467 LINE",
"230 369.567 LINE",
"190 335.708 LINE",
"230 301.85 LINE",
"189 266 LINE",
"230 230.15 LINE",
"181 208.242 LINE",
"230 186.333 LINE",
"190 162.433 LINE",
"230 138.533 LINE",
"190 100.692 LINE",
"230 62.85 LINE"
);
},
{
closed = 1;
nodes = (
"537.584 620.778 LINE",
"523.768 615.708 LINE",
"515.002 628.227 LINE",
"523.03 644.257 LINE",
"537.83 634.883 LINE"
);
},
{
closed = 1;
nodes = (
"405.2 257.168 LINE",
"363.246 203.341 LINE",
"295.745 201.745 LINE",
"298.232 268.792 LINE",
"350.386 306.261 LINE"
);
},
{
closed = 1;
nodes = (
"270.894 457.215 LINE",
"261.752 457.437 LINE",
"254.024 463.698 LINE",
"261.823 471.733 LINE",
"269.936 466.709 LINE"
);
},
{
closed = 1;
nodes = (
"442.467 583.533 LINE",
"425.151 557.884 LINE",
"395.586 558.253 LINE",
"394.968 586.875 LINE",
"416.803 600.829 LINE"
);
},
{
closed = 1;
nodes = (
"228.011 544.873 LINE",
"183.54 514.064 LINE",
"149.295 551.165 LINE",
"160.402 600.418 LINE",
"208.656 588.977 LINE"
);
},
{
closed = 1;
nodes = (
"86.244 617.958 LINE",
"71.264 615.152 LINE",
"58.146 622.912 LINE",
"67.301 636.684 LINE",
"83.071 634.725 LINE"
);
},
{
closed = 1;
nodes = (
"332.367 634.819 LINE",
"310.375 626.349 LINE",
"297.127 642.928 LINE",
"306.815 660.407 LINE",
"327.164 657.276 LINE"
);
},
{
closed = 1;
nodes = (
"124.633 580.816 LINE",
"116.635 556.009 LINE",
"89.996 560.91 LINE",
"86.874 585.452 LINE",
"106.95 592.881 LINE"
);
},
{
closed = 1;
nodes = (
"275 535 LINE",
"271.472 527.392 LINE",
"264.146 531.473 LINE",
"264.146 538.527 LINE",
"270.545 539.755 LINE"
);
},
{
closed = 1;
nodes = (
"390.105 364.714 LINE",
"337.294 383.717 LINE",
"333.686 435.316 LINE",
"379.225 444.99 LINE",
"424.868 415.767 LINE"
);
},
{
closed = 1;
nodes = (
"396.337 34.238 LINE",
"385.616 27.007 LINE",
"377.349 35.519 LINE",
"382.086 43.803 LINE",
"390.925 44.304 LINE"
);
},
{
closed = 1;
nodes = (
"305.954 90.558 LINE",
"280.593 81.01 LINE",
"251.809 87.739 LINE",
"259.068 124.792 LINE",
"297.894 124.529 LINE"
);
}
);
width = 674;
}
);
leftKerningGroup = T;
rightKerningGroup = T;
unicode = 0054;
userData = {
com.typemytype.robofont.guides = (
{
angle = 0;
isGlobal = 0;
magnetic = 5;
x = 0;
y = 495;
},
{
angle = 0;
isGlobal = 0;
magnetic = 5;
x = 0;
y = 9;
},
{
angle = 0;
isGlobal = 0;
magnetic = 5;
x = 0;
y = 691;
},
{
angle = 0;
isGlobal = 0;
magnetic = 5;
x = 0;
y = 649;
},
{
angle = 90;
isGlobal = 0;
magnetic = 5;
x = 279;
y = 0;
},
{
angle = 90;
isGlobal = 0;
magnetic = 5;
x = 324;
y = 0;
},
{
angle = 90;
isGlobal = 0;
magnetic = 5;
x = 59;
y = 0;
},
{
angle = 90;
isGlobal = 0;
magnetic = 5;
x = 544;
y = 0;
}
);
};
},
{
color = 1;
glyphname = Tbar;
layers = (
{
hints = (
{
horizontal = 1;
place = "{-2147483648, 0}";
type = Tag;
name = hr00;
}
);
layerId = "EC64484B-0978-4CB1-9EE9-C40A2D8C4059";
paths = (
{
closed = 1;
nodes = (
"265 -23 LINE",
"289 20 LINE",
"313 -25 LINE",
"337 20 LINE",
"369 -31 LINE",
"401 20 LINE",
"447.611 16.084 LINE",
"448 62.857 LINE",
"505 88.754 LINE",
"448 114.651 LINE",
"491 136.563 LINE",
"448 158.476 LINE",
"506 198.317 LINE",
"448 238.159 LINE",
"503.757 243.329 LINE",
"459.786 278 LINE",
"491.214 231 LINE",
"522.643 278 LINE",
"544.9 237.051 LINE",
"563 280 LINE",
"619.943 299.705 LINE",
"565 324.444 LINE",
"559.503 369.262 LINE",
"514.786 363 LINE",
"490.245 408.357 LINE",
"448 378.778 LINE",
"488 402.444 LINE",
"448 426.111 LINE",
"493 455.694 LINE",
"448 485.278 LINE",
"487.003 460.497 LINE",
"499.447 505 LINE",
"529.128 465.1 LINE",
"558.809 505 LINE",
"584.532 454 LINE",
"610.255 505 LINE",
"650.699 514.742 LINE",
"641 555.195 LINE",
"698 594.463 LINE",
"641 633.732 LINE",
"640.612 676.374 LINE",
"598.122 680 LINE",
"562.245 739 LINE",
"526.367 680 LINE",
"498.463 725 LINE",
"470.558 680 LINE",
"436.673 726 LINE",
"402.789 680 LINE",
"372.891 727 LINE",
"342.993 680 LINE",
"309.109 734 LINE",
"275.224 680 LINE",
"245.327 734 LINE",
"215.429 680 LINE",
"189.517 728 LINE",
"163.605 680 LINE",
"127.728 721 LINE",
"91.85 680 LINE",
"50.442 704.44 LINE",
"41 657.293 LINE",
"-2 618.024 LINE",
"41 578.756 LINE",
"-11 559.122 LINE",
"41 539.488 LINE",
"22.803 507.123 LINE",
"59.872 505 LINE",
"97.468 457 LINE",
"135.064 505 LINE",
"154.851 465.8 LINE",
"174.638 505 LINE",
"196.404 472.8 LINE",
"218.17 505 LINE",
"187.65 469.941 LINE",
"234 473.444 LINE",
"184 437.944 LINE",
"234 402.444 LINE",
"175.27 416.996 LINE",
"202.571 363 LINE",
"160.099 390.692 LINE",
"119 361 LINE",
"71.03 334.53 LINE",
"117 304.722 LINE",
"124.349 257.992 LINE",
"167.214 278 LINE",
"188.821 225 LINE",
"210.429 278 LINE",
"170.12 227.572 LINE",
"234 218.238 LINE",
"194 186.365 LINE",
"234 154.492 LINE",
"181 118.635 LINE",
"234 82.778 LINE"
);
},
{
closed = 1;
nodes = (
"420.239 601.216 LINE",
"409.572 600.34 LINE",
"407.655 611.371 LINE",
"416.349 612.988 LINE",
"423.762 609.935 LINE"
);
},
{
closed = 1;
nodes = (
"359.146 218.895 LINE",
"298.491 227.917 LINE",
"307.428 283.571 LINE",
"347.198 295.18 LINE",
"380.844 267.573 LINE"
);
},
{
closed = 1;
nodes = (
"372.676 412.916 LINE",
"300.257 420.86 LINE",
"253 457 LINE",
"299.639 495.042 LINE",
"360.541 492.267 LINE"
);
},
{
closed = 1;
nodes = (
"553.733 540.874 LINE",
"508.27 529.501 LINE",
"478.35 556.99 LINE",
"494.712 601.547 LINE",
"538.458 585.618 LINE"
);
},
{
closed = 1;
nodes = (
"341.217 81.958 LINE",
"291.139 62.659 LINE",
"293.99 117.287 LINE",
"326.57 150.973 LINE",
"371.141 119.231 LINE"
);
},
{
closed = 1;
nodes = (
"244.976 306.302 LINE",
"238.871 291.475 LINE",
"226.52 301.701 LINE",
"226.574 314.071 LINE",
"240.619 320.908 LINE"
);
},
{
closed = 1;
nodes = (
"280.875 591.776 LINE",
"232.827 595.914 LINE",
"234.66 635.959 LINE",
"260.093 666.945 LINE",
"288.91 635.282 LINE"
);
}
);
width = 682;
}
);
leftKerningGroup = T;
rightKerningGroup = T;
unicode = 0166;
userData = {
com.typemytype.robofont.guides = (
{
angle = 0;
isGlobal = 0;
magnetic = 5;
x = 0;
y = 380;
},
{
angle = 90;
isGlobal = 0;
magnetic = 5;
x = 301;
y = 0;
},
{
angle = 90;
isGlobal = 0;
magnetic = 5;
x = 50;
y = 0;
}
);
};
},
{
color = 1;
glyphname = U;
layers = (
{
anchors = (
{
name = bottom;
position = "{373, 0}";
},
{
name = ogonek;
position = "{671, 10}";
},
{
name = top;
position = "{373, 700}";
},
{
name = topright;
position = "{726, 700}";
}
);
layerId = "EC64484B-0978-4CB1-9EE9-C40A2D8C4059";
paths = (
{
closed = 1;
nodes = (
"404.431 -37.599 LINE",
"430.173 12.69 LINE",
"463.334 -29.629 LINE",
"481.739 20.887 LINE",
"528.984 -20.514 LINE",
"542.772 40.773 LINE",
"605.363 18.631 LINE",
"609.47 84.896 LINE",
"667.24 68.578 LINE",
"640.004 122.074 LINE",
"704.197 128.522 LINE",
"666.102 180.591 LINE",
"728.811 207.665 LINE",
"676.803 251.944 LINE",
"730.901 287.605 LINE",
"677 323.563 LINE",
"725 363.272 LINE",
"677 402.981 LINE",
"719 432.762 LINE",
"677 462.544 LINE",
"719 500.267 LINE",
"677 537.99 LINE",
"721 561.816 LINE",
"677 585.641 LINE",
"723 623.364 LINE",
"677 661.087 LINE",
"665.52 700.416 LINE",
"630 680 LINE",
"594 721 LINE",
"558 680 LINE",
"516 727 LINE",
"474 680 LINE",
"426.674 644.674 LINE",
"467 601.529 LINE",
"434.1 575.721 LINE",
"467 549.912 LINE",
"434.8 518.147 LINE",
"467 486.382 LINE",
"433.4 456.603 LINE",
"467 426.824 LINE",
"426.4 401.015 LINE",
"467 375.206 LINE",
"431.3 351.382 LINE",
"467 327.559 LINE",
"434.829 288.243 LINE",
"465.649 247.86 LINE",
"423.281 232.699 LINE",
"433.904 188.973 LINE",
"388.734 229.86 LINE",
"373 171 LINE",
"358.309 230.927 LINE",
"315.375 186.613 LINE",
"349.08 246.524 LINE",
"280.351 247.86 LINE",
"312.571 290.226 LINE",
"279 331.529 LINE",
"309.1 369.25 LINE",
"279 406.971 LINE",
"308.4 428.809 LINE",
"279 450.647 LINE",
"314 476.456 LINE",
"279 502.265 LINE",
"309.1 539.985 LINE",
"279 577.706 LINE",
"309.8 601.529 LINE",
"279 625.353 LINE",
"316.472 653.138 LINE",
"277 678 LINE",
"239.642 722.985 LINE",
"200 680 LINE",
"174 735 LINE",
"148 680 LINE",
"103.557 732.281 LINE",
"69 673 LINE",
"14 645.204 LINE",
"69 617.408 LINE",
"13 591.597 LINE",
"69 565.786 LINE",
"23 530.049 LINE",
"69 494.311 LINE",
"18 466.515 LINE",
"69 438.718 LINE",
"29 406.951 LINE",
"69 375.184 LINE",
"14 355.33 LINE",
"69 335.476 LINE",
"23 305.694 LINE",
"69 275.913 LINE",
"17.759 252.118 LINE",
"70.462 231.764 LINE",
"18.419 202.887 LINE",
"76.927 191.969 LINE",
"43.689 136.703 LINE",
"106.385 121.596 LINE",
"88.151 58.597 LINE",
"152.502 71.253 LINE",
"147.708 8.746 LINE",
"200.761 42.144 LINE",
"214.793 -10.211 LINE",
"257.942 22.594 LINE",
"278.734 -36.626 LINE",
"317.596 12.659 LINE"
);
},
{
closed = 1;
nodes = (
"209.405 652.56 LINE",
"200.098 650.452 LINE",
"194.375 660.847 LINE",
"204.372 669.984 LINE",
"215.269 661.942 LINE"
);
},
{
closed = 1;
nodes = (
"358.11 65.697 LINE",
"312.296 39.247 LINE",
"266.136 73.189 LINE",
"289.5 131.631 LINE",
"355.14 126.359 LINE"
);
},
{
closed = 1;
nodes = (
"116.214 611.17 LINE",
"108.231 607.368 LINE",
"106.208 616.693 LINE",
"112.442 622.981 LINE",
"118.563 617.248 LINE"
);
},
{
closed = 1;
nodes = (
"163.148 364.53 LINE",
"140.884 335.049 LINE",
"105.391 358.099 LINE",
"118.232 396.646 LINE",
"153.161 392.805 LINE"
);
},
{
closed = 1;
nodes = (
"234.168 546.684 LINE",
"227.653 546.585 LINE",
"224.091 552.042 LINE",
"229.026 557.932 LINE",
"238.988 555.384 LINE"
);
},
{
closed = 1;
nodes = (
"615.189 231.646 LINE",
"558.59 224.856 LINE",
"519.075 267.878 LINE",
"561.318 312.33 LINE",
"622.643 296.589 LINE"
);
},
{
closed = 1;
nodes = (
"254.761 345.519 LINE",
"243.341 337.082 LINE",
"232.031 343.351 LINE",
"232.452 358.239 LINE",
"245.878 354.997 LINE"
);
},
{
closed = 1;
nodes = (
"107.184 287.224 LINE",
"94.637 288.128 LINE",
"84.276 298.862 LINE",
"97.05 311.881 LINE",
"106.25 299.381 LINE"
);
},
{
closed = 1;
nodes = (
"228.614 244.007 LINE",
"217.696 222.508 LINE",
"184.812 215.134 LINE",
"190.78 248.03 LINE",
"210.925 263.821 LINE"
);
},
{
closed = 1;
nodes = (
"542.411 549.826 LINE",
"523.225 518.141 LINE",
"487.782 541.324 LINE",
"506.223 570.849 LINE",
"530.301 572.143 LINE"
);
},
{
closed = 1;
nodes = (
"559.643 396.463 LINE",
"534.754 377.295 LINE",
"502.488 386.472 LINE",
"501.302 430.698 LINE",
"547.798 433.967 LINE"
);
},
{
closed = 1;
nodes = (
"162.751 519.993 LINE",
"129.463 529.75 LINE",
"132.711 560.527 LINE",
"160.541 579.876 LINE",
"181.959 549.57 LINE"
);
},
{
closed = 1;
nodes = (
"471.825 112.337 LINE",
"464.732 107.038 LINE",
"456.692 110.746 LINE",
"459.985 118.459 LINE",
"468.5 121.794 LINE"
);
},
{
closed = 1;
nodes = (
"228.738 177.505 LINE",
"218.359 167.071 LINE",
"205.124 174.712 LINE",
"211.647 185.945 LINE",
"222 188.66 LINE"
);
}
);
width = 746;
}
);
leftKerningGroup = U;
rightKerningGroup = U;
unicode = 0055;
userData = {
com.typemytype.robofont.guides = (
{
angle = 0;
isGlobal = 0;
magnetic = 5;
x = 0;
y = 267;
},
{
angle = 90;
isGlobal = 0;
magnetic = 5;
x = 333;
y = 0;
},
{
angle = 90;
isGlobal = 0;
magnetic = 5;
x = 535;
y = 0;
},
{
angle = 90;
isGlobal = 0;
magnetic = 5;
x = 580;
y = 0;
},
{
angle = 90;
isGlobal = 0;
magnetic = 5;
x = 84;
y = 0;
},
{
angle = 90;
isGlobal = 0;
magnetic = 5;
x = 129;
y = 0;
}
);
};
},
{
color = 1;
glyphname = Uogonek;
layers = (
{
hints = (
{
horizontal = 1;
place = "{-2147483648, 0}";
type = Tag;
name = hr01;
},
{
horizontal = 1;
place = "{-2147483648, 0}";
type = Tag;
name = hr02;
}
);
layerId = "EC64484B-0978-4CB1-9EE9-C40A2D8C4059";
paths = (
{
closed = 1;
nodes = (
"495.712 -199.427 LINE",
"478 -165 LINE",
"531 -145 LINE",
"478 -125 LINE",
"466.705 -83.123 LINE",
"436.771 -114.512 LINE",
"451.712 -56.052 LINE",
"391.384 -57.178 LINE",
"452.547 -46.512 LINE",
"424.191 8.72 LINE",
"455.571 -31.781 LINE",
"463.725 18.802 LINE",
"505.667 -26.534 LINE",
"517.823 34.02 LINE",
"563.074 3.202 LINE",
"568.765 57.654 LINE",
"620.003 24.332 LINE",
"604.55 83.467 LINE",
"656.327 65.991 LINE",
"634.316 116.008 LINE",
"694.881 129.179 LINE",
"666.987 184.529 LINE",
"723.352 210.747 LINE",
"676.802 251.949 LINE",
"718.901 271.664 LINE",
"677 291.796 LINE",
"731 317.607 LINE",
"677 343.417 LINE",
"731 369.228 LINE",
"677 395.039 LINE",
"731 420.85 LINE",
"677 446.66 LINE",
"732 486.369 LINE",
"677 526.078 LINE",
"726 565.786 LINE",
"677 605.495 LINE",
"713.615 651.629 LINE",
"662 680 LINE",
"638 726 LINE",
"614 680 LINE",
"584 722 LINE",
"554 680 LINE",
"524 735 LINE",
"494 680 LINE",
"457.871 695.26 LINE",
"467 657.118 LINE",
"439 619.397 LINE",
"467 581.676 LINE",
"433.4 543.956 LINE",
"467 506.235 LINE",
"428.5 486.382 LINE",
"467 466.529 LINE",
"436.9 428.809 LINE",
"467 391.088 LINE",
"429.2 369.25 LINE",
"467 347.412 LINE",
"429.2 319.618 LINE",
"467 291.824 LINE",
"430.641 270.938 LINE",
"465.649 247.86 LINE",
"416.84 238.207 LINE",
"440.059 194.203 LINE",
"385.049 236.692 LINE",
"360.894 171.516 LINE",
"350.822 233.583 LINE",
"291.276 213.381 LINE",
"325.941 258.988 LINE",
"279 291.824 LINE",
"318.2 333.515 LINE",
"279 375.206 LINE",
"319.6 395.059 LINE",
"279 414.912 LINE",
"308.4 454.618 LINE",
"279 494.324 LINE",
"320.3 516.162 LINE",
"279 538 LINE",
"308.4 577.706 LINE",
"279 617.412 LINE",
"299.695 660.537 LINE",
"256 680 LINE",
"216 733 LINE",
"176 680 LINE",
"134 725 LINE",
"92 680 LINE",
"52.852 696.347 LINE",
"69 657.117 LINE",
"21 619.393 LINE",
"69 581.67 LINE",
"19 539.976 LINE",
"69 498.282 LINE",
"18 462.544 LINE",
"69 426.806 LINE",
"25 402.981 LINE",
"69 379.155 LINE",
"28 353.345 LINE",
"69 327.534 LINE",
"14.011 293.743 LINE",
"69.021 259.986 LINE",
"13.336 224.165 LINE",
"75.055 200.193 LINE",
"32.39 154.307 LINE",
"94.063 143.255 LINE",
"69.202 98.715 LINE",
"120.043 102.849 LINE",
"111.748 55.862 LINE",
"158.061 67.338 LINE",
"170.687 13.486 LINE",
"221.97 34.21 LINE",
"229.453 -11.726 LINE",
"260.467 22.975 LINE",
"259.047 -32.876 LINE",
"306.875 -4 LINE",
"254.753 -40.308 LINE",
"306.63 -76.966 LINE",
"275.208 -131.526 LINE",
"335.176 -150.708 LINE",
"322.383 -199.088 LINE",
"368.344 -179.293 LINE",
"386.374 -227.955 LINE",
"429.032 -198.403 LINE"
);
},
{
closed = 1;
nodes = (
"245.258 525.5 LINE",
"231.297 519.284 LINE",
"217.093 530.223 LINE",
"227.492 546.617 LINE",
"246.633 543.375 LINE"
);
},
{
closed = 1;
nodes = (
"143.997 428.384 LINE",
"129.814 405.308 LINE",
"95.645 408.14 LINE",
"101.521 442.339 LINE",
"131.356 458.602 LINE"
);
},
{
closed = 1;
nodes = (
"89.746 613.152 LINE",
"79.664 611.129 LINE",
"74.052 617.147 LINE",
"77.619 625.25 LINE",
"88.314 624.82 LINE"
);
},
{
closed = 1;
nodes = (
"548.382 232.176 LINE",
"531.489 221.09 LINE",
"520.003 240.314 LINE",
"533.614 254.345 LINE",
"547.83 246.883 LINE"
);
},
{
closed = 1;
nodes = (
"228.779 294.844 LINE",
"190.343 300.787 LINE",
"166.588 335.301 LINE",
"205.058 350.984 LINE",
"244.527 338.023 LINE"
);
},
{
closed = 1;
nodes = (
"198.984 226.372 LINE",
"190.106 215.409 LINE",
"170.227 216.107 LINE",
"173.789 237.698 LINE",
"190.942 237.269 LINE"
);
},
{
closed = 1;
nodes = (
"611.873 142.364 LINE",
"605.404 143.143 LINE",
"602.368 151.769 LINE",
"611.21 151.851 LINE",
"615.985 147.419 LINE"
);
},
{
closed = 1;
nodes = (
"525.247 106.177 LINE",
"491.459 61.395 LINE",
"455.092 100.054 LINE",
"445.444 156.419 LINE",
"504.392 148.985 LINE"
);
},
{
closed = 1;
nodes = (
"659.791 536.206 LINE",
"616.023 493.256 LINE",
"572.428 521.429 LINE",
"572.547 569.211 LINE",
"618.285 572.297 LINE"
);
},
{
closed = 1;
nodes = (
"401.997 112.384 LINE",
"386.837 92.144 LINE",
"366.423 101.769 LINE",
"363.617 123.472 LINE",
"385.263 129.213 LINE"
);
},
{
closed = 1;
nodes = (
"174.64 180.149 LINE",
"151.151 148.036 LINE",
"122.175 159.718 LINE",
"115.043 187.206 LINE",
"143.904 208.483 LINE"
);
},
{
closed = 1;
nodes = (
"267.725 244.929 LINE",
"252.366 244.405 LINE",
"239.289 258.299 LINE",
"255.912 269.854 LINE",
"273.279 262.452 LINE"
);
}
);
width = 746;
}
);
leftKerningGroup = U;
rightKerningGroup = U;
unicode = 0172;
userData = {
com.typemytype.robofont.guides = (
{
angle = 0;
isGlobal = 0;
magnetic = 5;
x = 0;
y = "-187";
},
{
angle = 90;
isGlobal = 0;
magnetic = 5;
x = 332;
y = 0;
}
);
};
},
{
color = 1;
glyphname = V;
layers = (
{
hints = (
{
horizontal = 1;
place = "{-2147483648, 0}";
type = Tag;
name = hr00;
}
);
layerId = "EC64484B-0978-4CB1-9EE9-C40A2D8C4059";
paths = (
{
closed = 1;
nodes = (
"271 -34 LINE",
"293 20 LINE",
"329 -22 LINE",
"365 20 LINE",
"401 -29 LINE",
"437 20 LINE",
"457 -24 LINE",
"477 20 LINE",
"518.967 32.631 LINE",
"514.257 76.204 LINE",
"563.884 103.101 LINE",
"536.772 152.611 LINE",
"599.328 163.242 LINE",
"552.533 206.096 LINE",
"614.066 227.409 LINE",
"573.922 278.683 LINE",
"634.663 304.381 LINE",
"597.563 358.91 LINE",
"664.289 376.617 LINE",
"617.826 427.677 LINE",
"674.564 450.403 LINE",
"639.216 500.263 LINE",
"704.253 512.24 LINE",
"656.102 557.569 LINE",
"717.802 582.985 LINE",
"679.743 637.796 LINE",
"723.442 650.328 LINE",
"689 680 LINE",
"661.298 733 LINE",
"633.596 680 LINE",
"603.915 720 LINE",
"574.234 680 LINE",
"544.553 735 LINE",
"514.872 680 LINE",
"477.6 688.419 LINE",
"474.031 650.375 LINE",
"417.731 644.114 LINE",
"464.135 611.625 LINE",
"402.001 602.726 LINE",
"452.26 565.125 LINE",
"418.699 546.866 LINE",
"439.396 514.75 LINE",
"394.432 505.594 LINE",
"429.5 476 LINE",
"391.302 442.414 LINE",
"408.719 394.625 LINE",
"364.05 366.819 LINE",
"389.917 321 LINE",
"347.891 339.554 LINE",
"343.01 293.875 LINE",
"365.486 338.828 LINE",
"324.208 367.5 LINE",
"353.228 403.805 LINE",
"310.354 421.75 LINE",
"333.197 470.925 LINE",
"289.573 503.125 LINE",
"320.994 544.171 LINE",
"273.74 565.125 LINE",
"317.628 615.546 LINE",
"254.938 638.75 LINE",
"295.79 677.986 LINE",
"239.202 675.495 LINE",
"213.321 730.597 LINE",
"179.468 680 LINE",
"139.894 723 LINE",
"100.319 680 LINE",
"72.617 735 LINE",
"44.915 680 LINE",
"2.826 651.913 LINE",
"48.509 630.156 LINE",
"17.457 594.017 LINE",
"63.144 580.491 LINE",
"17.308 537.92 LINE",
"78.904 527.006 LINE",
"28.502 489.317 LINE",
"91.287 484.982 LINE",
"45.784 434.205 LINE",
"111.551 416.216 LINE",
"81.792 372.154 LINE",
"130.689 351.269 LINE",
"93.152 319.448 LINE",
"141.946 313.066 LINE",
"104.68 262.64 LINE",
"163.335 240.479 LINE",
"118.791 189.984 LINE",
"183.599 171.713 LINE",
"138.325 127.231 LINE",
"200.485 114.407 LINE",
"163.219 63.981 LINE",
"221.874 41.82 LINE"
);
},
{
closed = 1;
nodes = (
"256.847 248.073 LINE",
"236.693 214.809 LINE",
"206.483 238 LINE",
"198.531 278.434 LINE",
"243.236 282.974 LINE"
);
},
{
closed = 1;
nodes = (
"635.297 550.129 LINE",
"575.59 545.856 LINE",
"547.06 588.303 LINE",
"582.977 615.944 LINE",
"633.772 613.777 LINE"
);
},
{
closed = 1;
nodes = (
"290.893 63.613 LINE",
"267.141 59.458 LINE",
"253.365 82.168 LINE",
"274.217 97.805 LINE",
"297.672 88.083 LINE"
);
},
{
closed = 1;
nodes = (
"554.972 272.511 LINE",
"535 253 LINE",
"518.832 273.747 LINE",
"527.359 289.517 LINE",
"546.168 294.371 LINE"
);
},
{
closed = 1;
nodes = (
"505.699 526.339 LINE",
"493.5 529.938 LINE",
"484.284 538.703 LINE",
"495.746 547.934 LINE",
"506.135 540.067 LINE"
);
},
{
closed = 1;
nodes = (
"412.998 162.175 LINE",
"406.256 152.545 LINE",
"391.02 152.973 LINE",
"393.17 168.883 LINE",
"406.508 173.476 LINE"
);
},
{
closed = 1;
nodes = (
"583.356 447.526 LINE",
"568.515 451.515 LINE",
"568.09 464.54 LINE",
"579.19 473.828 LINE",
"585.889 461.408 LINE"
);
},
{
closed = 1;
nodes = (
"470.034 216.273 LINE",
"432.875 219.84 LINE",
"444.202 253.931 LINE",
"472.816 274.287 LINE",
"488 241 LINE"
);
},
{
closed = 1;
nodes = (
"556.281 481.71 LINE",
"547.455 482.245 LINE",
"543 487 LINE",
"547.146 492.706 LINE",
"554.663 491.114 LINE"
);
},
{
closed = 1;
nodes = (
"298.951 402.395 LINE",
"286.867 381.529 LINE",
"260.615 385.573 LINE",
"260.343 412.658 LINE",
"284.322 422.347 LINE"
);
},
{
closed = 1;
nodes = (
"210.358 617.547 LINE",
"176.385 612.93 LINE",
"157.016 635.093 LINE",
"169.319 673.588 LINE",
"201.124 650.16 LINE"
);
},
{
closed = 1;
nodes = (
"115.872 564.637 LINE",
"105.901 558.202 LINE",
"98.075 567.781 LINE",
"105.464 574.438 LINE",
"113.851 574.456 LINE"
);
},
{
closed = 1;
nodes = (
"227.918 464.659 LINE",
"218.717 457.165 LINE",
"208.254 461.152 LINE",
"210.418 472.138 LINE",
"222.917 478.688 LINE"
);
},
{
closed = 1;
nodes = (
"352.284 145.435 LINE",
"351.062 110.647 LINE",
"305.569 107.36 LINE",
"293.723 154.693 LINE",
"333.675 171.956 LINE"
);
},
{
closed = 1;
nodes = (
"678.566 646.815 LINE",
"662.92 644.033 LINE",
"658.038 656.872 LINE",
"664.851 669.641 LINE",
"674.857 660.12 LINE"
);
},
{
closed = 1;
nodes = (
"256.816 168.092 LINE",
"247.975 162.06 LINE",
"240.656 167.042 LINE",
"238.816 178.776 LINE",
"251.848 178.746 LINE"
);
},
{
closed = 1;
nodes = (
"393.042 213.958 LINE",
"359.012 218.398 LINE",
"333.443 243.632 LINE",
"365.402 260.717 LINE",
"393.948 250.712 LINE"
);
}
);
width = 726;
}
);
unicode = 0056;
userData = {
com.typemytype.robofont.guides = (
{
angle = 0;
isGlobal = 0;
magnetic = 5;
x = 0;
y = 24;
}
);
};
},
